{
.appVersion = "1273";
DisplayStrings = (
"/zero.numr/two.numr/four.numr/five.numr/six.numr/seven.numr/eight.numr/nine.numr",
"/alefpatah-hb/alefqamats-hb/alefdagesh-hb/betdagesh-hb/gimeldagesh-hb/daletdagesh-hb/hedagesh-hb/vavdagesh-hb/vavholam-hb/zayindagesh-hb/tetdagesh-hb/yoddagesh-hb/finalkafdagesh-hb/kafdagesh-hb/lameddagesh-hb/memdagesh-hb/nundagesh-hb/samekhdagesh-hb/finalpedagesh-hb/pedagesh-hb/tsadidagesh-hb/qofdagesh-hb/reshdagesh-hb/shin-hb/shinshindot-hb/shinsindot-hb/shindageshshindot-hb/shindageshsindot-hb/shindagesh-hb/tavdagesh-hb/shindot-hb/sheva-hb/hatafsegol-hb/hatafpatah-hb/hatafqamats-hb/hiriq-hb/tsere-hb/segol-hb/patah-hb/qamats-hb/holam-hb/holamhaser-hb/qubuts-hb/dagesh-hb/sindot-hb/qamatsqatan-hb"
);
classes = (
{
automatic = 1;

glyphs = (
{
glyphname = A;
layers = (
{
anchors = (
{
name = bottom;
position = "{373, 0}";
},
{
name = ogonek;
position = "{685, 10}";
},
{
name = top;
position = "{373, 698}";
}
);
layerId = "A99C00BB-606F-4263-964D-93C8B7F0BADD";
paths = (
{
closed = 1;
nodes = (
"114 -5 OFFCURVE",
"130 5 OFFCURVE",
"138 23 CURVE SMOOTH",
"203 179 LINE",
"543 179 LINE",
"608 23 LINE SMOOTH",
"616 5 OFFCURVE",
"632 -5 OFFCURVE",
"651 -5 CURVE SMOOTH",
"679 -5 OFFCURVE",
"696 15 OFFCURVE",
"696 40 CURVE SMOOTH",
"696 46 OFFCURVE",
"694 53 OFFCURVE",
"691 60 CURVE SMOOTH",
"436 662 LINE SMOOTH",
"427 683 OFFCURVE",
"408 703 OFFCURVE",
"378 703 CURVE SMOOTH",
"368 703 LINE SMOOTH",
"338 703 OFFCURVE",
"319 683 OFFCURVE",
"310 662 CURVE SMOOTH",
"55 60 LINE SMOOTH",
"52 53 OFFCURVE",
"50 46 OFFCURVE",
"50 40 CURVE SMOOTH",
"50 15 OFFCURVE",
"67 -5 OFFCURVE",
"95 -5 CURVE SMOOTH"
);
},
{
closed = 1;
nodes = (
"373 587 LINE",
"508 262 LINE",
"238 262 LINE"
);
}
);
width = 746;
}
);
leftKerningGroup = A;
note = A;
rightKerningGroup = A;
unicode = 0041;
},
{
color = 10;
glyphname = Aacute;
layers = (
{
background = {
paths = (
{
closed = 1;
nodes = (
"90 -5 OFFCURVE",
"106 5 OFFCURVE",
"114 23 CURVE SMOOTH",
"179 179 LINE",
"519 179 LINE",
"584 23 LINE SMOOTH",
"592 5 OFFCURVE",
"608 -5 OFFCURVE",
"627 -5 CURVE SMOOTH",
"655 -5 OFFCURVE",
"672 15 OFFCURVE",
"672 40 CURVE SMOOTH",
"672 46 OFFCURVE",
"670 53 OFFCURVE",
"667 60 CURVE SMOOTH",
"412 662 LINE SMOOTH",
"403 683 OFFCURVE",
"384 703 OFFCURVE",
"354 703 CURVE SMOOTH",
"344 703 LINE SMOOTH",
"314 703 OFFCURVE",
"295 683 OFFCURVE",
"286 662 CURVE SMOOTH",
"31 60 LINE SMOOTH",
"28 53 OFFCURVE",
"26 46 OFFCURVE",
"26 40 CURVE SMOOTH",
"26 15 OFFCURVE",
"43 -5 OFFCURVE",
"71 -5 CURVE SMOOTH"
);
},
{
closed = 1;
nodes = (
"349 587 LINE",
"484 262 LINE",
"214 262 LINE"
);
},
{
closed = 1;
nodes = (
"349 739 OFFCURVE",
"355 743 OFFCURVE",
"361 750 CURVE SMOOTH",
"430 832 LINE SMOOTH",
"437 840 OFFCURVE",
"440 848 OFFCURVE",
"440 857 CURVE SMOOTH",
"440 879 OFFCURVE",
"425 894 OFFCURVE",
"403 894 CURVE SMOOTH",
"386 894 OFFCURVE",
"376 886 OFFCURVE",
"370 875 CURVE SMOOTH",
"319 785 LINE",
"317 782 OFFCURVE",
"312 774 OFFCURVE",
"312 766 CURVE SMOOTH",
"312 750 OFFCURVE",
"323 739 OFFCURVE",
"339 739 CURVE SMOOTH"
);
}
);
};
components = (
{
name = A;
},
{
name = acutecomb.case;
transform = "{1, 0, 0, 1, 173, 0}";
}
);
layerId = "A99C00BB-606F-4263-964D-93C8B7F0BADD";
width = 746;
}
);
leftKerningGroup = A;
note = Aacute;
rightKerningGroup = A;
unicode = 00C1;
},
{
color = 10;
glyphname = Acircumflex;
layers = (
{
background = {
paths = (
{
closed = 1;
nodes = (
"90 -5 OFFCURVE",
"106 5 OFFCURVE",
"114 23 CURVE SMOOTH",
"179 179 LINE",
"519 179 LINE",
"584 23 LINE SMOOTH",
"592 5 OFFCURVE",
"608 -5 OFFCURVE",
"627 -5 CURVE SMOOTH",
"655 -5 OFFCURVE",
"672 15 OFFCURVE",
"672 40 CURVE SMOOTH",
"672 46 OFFCURVE",
"670 53 OFFCURVE",
"667 60 CURVE SMOOTH",
"412 662 LINE SMOOTH",
"403 683 OFFCURVE",
"384 703 OFFCURVE",
"354 703 CURVE SMOOTH",
"344 703 LINE SMOOTH",
"314 703 OFFCURVE",
"295 683 OFFCURVE",
"286 662 CURVE SMOOTH",
"31 60 LINE SMOOTH",
"28 53 OFFCURVE",
"26 46 OFFCURVE",
"26 40 CURVE SMOOTH",
"26 15 OFFCURVE",
"43 -5 OFFCURVE",
"71 -5 CURVE SMOOTH"
);
},
{
closed = 1;
nodes = (
"349 587 LINE",
"484 262 LINE",
"214 262 LINE"
);
},
{
closed = 1;
nodes = (
"250 738 OFFCURVE",
"258 741 OFFCURVE",
"262 745 CURVE",
"349 819 LINE",
"436 745 LINE",
"440 741 OFFCURVE",
"448 738 OFFCURVE",
"454 738 CURVE SMOOTH",
"471 738 OFFCURVE",
"485 753 OFFCURVE",
"484 768 CURVE",
"484 775 OFFCURVE",
"481 782 OFFCURVE",
"476 787 CURVE SMOOTH",
"408 857 LINE SMOOTH",
"398 868 OFFCURVE",
"387 877 OFFCURVE",
"368 877 CURVE SMOOTH",
"330 877 LINE SMOOTH",
"311 877 OFFCURVE",
"300 868 OFFCURVE",
"290 857 CURVE SMOOTH",
"222 787 LINE SMOOTH",
"217 782 OFFCURVE",
"214 775 OFFCURVE",
"214 768 CURVE",
"213 753 OFFCURVE",
"227 738 OFFCURVE",
"244 738 CURVE SMOOTH"
);
}
);
};
components = (
{
name = A;
},
{
name = circumflexcomb.case;
transform = "{1, 0, 0, 1, 173, 0}";
}
);
layerId = "A99C00BB-606F-4263-964D-93C8B7F0BADD";
width = 746;
}
);
leftKerningGroup = A;
note = Acircumflex;
rightKerningGroup = A;
unicode = 00C2;
},
{
color = 10;
glyphname = Agrave;
layers = (
{
background = {
paths = (
{
closed = 1;
nodes = (
"90 -5 OFFCURVE",
"106 5 OFFCURVE",
"114 23 CURVE SMOOTH",
"179 179 LINE",
"519 179 LINE",
"584 23 LINE SMOOTH",
"592 5 OFFCURVE",
"608 -5 OFFCURVE",
"627 -5 CURVE SMOOTH",
"655 -5 OFFCURVE",
"672 15 OFFCURVE",
"672 40 CURVE SMOOTH",
"672 46 OFFCURVE",
"670 53 OFFCURVE",
"667 60 CURVE SMOOTH",
"412 662 LINE SMOOTH",
"403 683 OFFCURVE",
"384 703 OFFCURVE",
"354 703 CURVE SMOOTH",
"344 703 LINE SMOOTH",
"314 703 OFFCURVE",
"295 683 OFFCURVE",
"286 662 CURVE SMOOTH",
"31 60 LINE SMOOTH",
"28 53 OFFCURVE",
"26 46 OFFCURVE",
"26 40 CURVE SMOOTH",
"26 15 OFFCURVE",
"43 -5 OFFCURVE",
"71 -5 CURVE SMOOTH"
);
},
{
closed = 1;
nodes = (
"349 587 LINE",
"484 262 LINE",
"214 262 LINE"
);
},
{
closed = 1;
nodes = (
"374 739 OFFCURVE",
"385 750 OFFCURVE",
"385 766 CURVE SMOOTH",
"385 774 OFFCURVE",
"380 782 OFFCURVE",
"378 785 CURVE",
"327 875 LINE SMOOTH",
"321 886 OFFCURVE",
"311 894 OFFCURVE",
"294 894 CURVE SMOOTH",
"272 894 OFFCURVE",
"257 879 OFFCURVE",
"257 857 CURVE SMOOTH",
"257 848 OFFCURVE",
"260 840 OFFCURVE",
"267 832 CURVE SMOOTH",
"336 750 LINE SMOOTH",
"342 743 OFFCURVE",
"348 739 OFFCURVE",
"358 739 CURVE SMOOTH"
);
}
);
};
components = (
{
name = A;
},
{
name = gravecomb.case;
transform = "{1, 0, 0, 1, 173, 0}";
}
);
layerId = "A99C00BB-606F-4263-964D-93C8B7F0BADD";
width = 746;
}
);
leftKerningGroup = A;
note = Agrave;
rightKerningGroup = A;
unicode = 00C0;
},
{
color = 3;
glyphname = Aogonek;
layers = (
{
background = {
paths = (
{
closed = 1;
nodes = (
"114 -5 OFFCURVE",
"130 5 OFFCURVE",
"138 23 CURVE SMOOTH",
"203 179 LINE",
"543 179 LINE",
"608 23 LINE SMOOTH",
"616 5 OFFCURVE",
"632 -5 OFFCURVE",
"651 -5 CURVE SMOOTH",
"679 -5 OFFCURVE",
"696 15 OFFCURVE",
"696 40 CURVE SMOOTH",
"696 46 OFFCURVE",
"694 53 OFFCURVE",
"691 60 CURVE SMOOTH",
"436 662 LINE SMOOTH",
"427 683 OFFCURVE",
"408 703 OFFCURVE",
"378 703 CURVE SMOOTH",
"368 703 LINE SMOOTH",
"338 703 OFFCURVE",
"319 683 OFFCURVE",
"310 662 CURVE SMOOTH",
"55 60 LINE SMOOTH",
"52 53 OFFCURVE",
"50 46 OFFCURVE",
"50 40 CURVE SMOOTH",
"50 15 OFFCURVE",
"67 -5 OFFCURVE",
"95 -5 CURVE SMOOTH"
);
},
{
closed = 1;
nodes = (
"373 587 LINE",
"508 262 LINE",
"238 262 LINE"
);
},
{
closed = 1;
nodes = (
"630 -203 OFFCURVE",
"658 -194 OFFCURVE",
"679 -179 CURVE SMOOTH",
"686 -174 OFFCURVE",
"690 -168 OFFCURVE",
"690 -161 CURVE SMOOTH",
"690 -148 OFFCURVE",
"681 -139 OFFCURVE",
"668 -139 CURVE SMOOTH",
"665 -139 OFFCURVE",
"662 -140 OFFCURVE",
"659 -141 CURVE SMOOTH",
"649 -144 OFFCURVE",
"638 -147 OFFCURVE",
"624 -147 CURVE SMOOTH",
"588 -147 OFFCURVE",
"574 -129 OFFCURVE",
"573 -100 CURVE SMOOTH",
"572 -50 OFFCURVE",
"638 -12 OFFCURVE",
"685 10 CURVE",
"604 10 LINE",
"551 -17 OFFCURVE",
"500 -55 OFFCURVE",
"500 -119 CURVE SMOOTH",
"500 -172 OFFCURVE",
"545 -203 OFFCURVE",
"593 -203 CURVE SMOOTH"
);
}
);
};
layerId = "A99C00BB-606F-4263-964D-93C8B7F0BADD";
paths = (
{
closed = 1;
nodes = (
"630 -203 OFFCURVE",
"658 -194 OFFCURVE",
"679 -179 CURVE SMOOTH",
"686 -174 OFFCURVE",
"690 -168 OFFCURVE",
"690 -161 CURVE SMOOTH",
"690 -148 OFFCURVE",
"681 -139 OFFCURVE",
"668 -139 CURVE SMOOTH",
"665 -139 OFFCURVE",
"662 -140 OFFCURVE",
"659 -141 CURVE SMOOTH",
"649 -144 OFFCURVE",
"638 -147 OFFCURVE",
"624 -147 CURVE SMOOTH",
"588 -147 OFFCURVE",
"574 -129 OFFCURVE",
"573 -100 CURVE SMOOTH",
"572 -52 OFFCURVE",
"632 -18 OFFCURVE",
"671 -1 CURVE SMOOTH",
"686 6 OFFCURVE",
"696 21 OFFCURVE",
"696 40 CURVE SMOOTH",
"696 46 OFFCURVE",
"694 53 OFFCURVE",
"691 60 CURVE SMOOTH",
"436 662 LINE SMOOTH",
"427 683 OFFCURVE",
"408 703 OFFCURVE",
"378 703 CURVE SMOOTH",
"368 703 LINE SMOOTH",
"338 703 OFFCURVE",
"319 683 OFFCURVE",
"310 662 CURVE SMOOTH",
"55 60 LINE SMOOTH",
"52 53 OFFCURVE",
"50 46 OFFCURVE",
"50 40 CURVE SMOOTH",
"50 15 OFFCURVE",
"67 -5 OFFCURVE",
"95 -5 CURVE SMOOTH",
"114 -5 OFFCURVE",
"130 5 OFFCURVE",
"138 23 CURVE SMOOTH",
"203 179 LINE",
"543 179 LINE",
"611 16 LINE",
"530 -21 OFFCURVE",
"500 -73 OFFCURVE",
"500 -119 CURVE SMOOTH",
"500 -172 OFFCURVE",
"545 -203 OFFCURVE",
"593 -203 CURVE SMOOTH"
);
},
{
closed = 1;
nodes = (
"373 587 LINE",
"508 262 LINE",
"238 262 LINE"
);
}
);
width = 746;
}
);
leftKerningGroup = A;
leftMetricsKey = A;
rightKerningGroup = A;
rightMetricsKey = A;
unicode = 0104;
},
{
color = 10;
glyphname = Aring;
layers = (
{
background = {
paths = (
{
closed = 1;
nodes = (
"90 -5 OFFCURVE",
"106 5 OFFCURVE",
"114 23 CURVE SMOOTH",
"179 179 LINE",
"519 179 LINE",
"584 23 LINE SMOOTH",
"592 5 OFFCURVE",
"608 -5 OFFCURVE",
"627 -5 CURVE SMOOTH",
"655 -5 OFFCURVE",
"672 15 OFFCURVE",
"672 40 CURVE SMOOTH",
"672 46 OFFCURVE",
"670 53 OFFCURVE",
"667 60 CURVE SMOOTH",
"412 662 LINE SMOOTH",
"403 683 OFFCURVE",
"384 703 OFFCURVE",
"354 703 CURVE SMOOTH",
"344 703 LINE SMOOTH",
"314 703 OFFCURVE",
"295 683 OFFCURVE",
"286 662 CURVE SMOOTH",
"31 60 LINE SMOOTH",
"28 53 OFFCURVE",
"26 46 OFFCURVE",
"26 40 CURVE SMOOTH",
"26 15 OFFCURVE",
"43 -5 OFFCURVE",
"71 -5 CURVE SMOOTH"
);
},
{
closed = 1;
nodes = (
"349 587 LINE",
"484 262 LINE",
"214 262 LINE"
);
},
{
closed = 1;
nodes = (
"401 730 OFFCURVE",
"443 772 OFFCURVE",
"443 824 CURVE SMOOTH",
"443 876 OFFCURVE",
"401 918 OFFCURVE",
"349 918 CURVE SMOOTH",
"297 918 OFFCURVE",
"255 876 OFFCURVE",
"255 824 CURVE SMOOTH",
"255 772 OFFCURVE",
"297 730 OFFCURVE",
"349 730 CURVE SMOOTH"
);
},
{
closed = 1;
nodes = (
"322 775 OFFCURVE",
"300 797 OFFCURVE",
"300 824 CURVE SMOOTH",
"300 851 OFFCURVE",
"322 873 OFFCURVE",
"349 873 CURVE SMOOTH",
"376 873 OFFCURVE",
"398 851 OFFCURVE",
"398 824 CURVE SMOOTH",
"398 797 OFFCURVE",
"376 775 OFFCURVE",
"349 775 CURVE SMOOTH"
);
}
);
};
components = (
{
name = A;
},
{
name = ringcomb.case;
transform = "{1, 0, 0, 1, 173, 0}";
}
);
layerId = "A99C00BB-606F-4263-964D-93C8B7F0BADD";
width = 746;
}
);
leftKerningGroup = A;
note = Aring;
rightKerningGroup = A;
unicode = 00C5;
},
{
color = 3;
glyphname = Aringacute;
layers = (
{
background = {
paths = (
{
closed = 1;
nodes = (
"359 911 OFFCURVE",
"365 915 OFFCURVE",
"371 922 CURVE SMOOTH",
"440 1004 LINE SMOOTH",
"447 1012 OFFCURVE",
"450 1020 OFFCURVE",
"450 1029 CURVE SMOOTH",
"450 1051 OFFCURVE",
"435 1066 OFFCURVE",
"413 1066 CURVE SMOOTH",
"396 1066 OFFCURVE",
"386 1058 OFFCURVE",
"380 1047 CURVE SMOOTH",
"329 957 LINE",
"327 954 OFFCURVE",
"322 946 OFFCURVE",
"322 938 CURVE SMOOTH",
"322 922 OFFCURVE",
"333 911 OFFCURVE",
"349 911 CURVE SMOOTH"
);
}
);
};
layerId = "A99C00BB-606F-4263-964D-93C8B7F0BADD";
paths = (
{
closed = 1;
nodes = (
"114 -5 OFFCURVE",
"130 5 OFFCURVE",
"138 23 CURVE SMOOTH",
"203 179 LINE",
"543 179 LINE",
"608 23 LINE SMOOTH",
"616 5 OFFCURVE",
"632 -5 OFFCURVE",
"651 -5 CURVE SMOOTH",
"679 -5 OFFCURVE",
"696 15 OFFCURVE",
"696 40 CURVE SMOOTH",
"696 46 OFFCURVE",
"694 53 OFFCURVE",
"691 60 CURVE SMOOTH",
"436 662 LINE SMOOTH",
"427 683 OFFCURVE",
"408 703 OFFCURVE",
"378 703 CURVE SMOOTH",
"368 703 LINE SMOOTH",
"338 703 OFFCURVE",
"319 683 OFFCURVE",
"310 662 CURVE SMOOTH",
"55 60 LINE SMOOTH",
"52 53 OFFCURVE",
"50 46 OFFCURVE",
"50 40 CURVE SMOOTH",
"50 15 OFFCURVE",
"67 -5 OFFCURVE",
"95 -5 CURVE SMOOTH"
);
},
{
closed = 1;
nodes = (
"373 587 LINE",
"508 262 LINE",
"238 262 LINE"
);
},
{
closed = 1;
nodes = (
"425 723 OFFCURVE",
"467 765 OFFCURVE",
"467 817 CURVE SMOOTH",
"467 869 OFFCURVE",
"425 911 OFFCURVE",
"373 911 CURVE SMOOTH",
"321 911 OFFCURVE",
"279 869 OFFCURVE",
"279 817 CURVE SMOOTH",
"279 765 OFFCURVE",
"321 723 OFFCURVE",
"373 723 CURVE SMOOTH"
);
},
{
closed = 1;
nodes = (
"346 768 OFFCURVE",
"324 790 OFFCURVE",
"324 817 CURVE SMOOTH",
"324 844 OFFCURVE",
"346 866 OFFCURVE",
"373 866 CURVE SMOOTH",
"400 866 OFFCURVE",
"422 844 OFFCURVE",
"422 817 CURVE SMOOTH",
"422 790 OFFCURVE",
"400 768 OFFCURVE",
"373 768 CURVE SMOOTH"
);
},
{
closed = 1;
nodes = (
"468 894 OFFCURVE",
"475 896 OFFCURVE",
"483 904 CURVE SMOOTH",
"534 959 LINE SMOOTH",
"543 968 OFFCURVE",
"547 978 OFFCURVE",
"547 987 CURVE SMOOTH",
"547 1007 OFFCURVE",
"530 1019 OFFCURVE",
"513 1019 CURVE SMOOTH",
"503 1019 OFFCURVE",
"491 1012 OFFCURVE",
"481 995 CURVE SMOOTH",
"445 934 LINE SMOOTH",
"442 928 OFFCURVE",
"440 923 OFFCURVE",
"440 914 CURVE SMOOTH",
"440 904 OFFCURVE",
"449 894 OFFCURVE",
"461 894 CURVE SMOOTH"
);
}
);
width = 746;
}
);
leftKerningGroup = A;
leftMetricsKey = A;
widthMetricsKey = A;
rightKerningGroup = A;
unicode = 01FA;
},
{
color = 10;
glyphname = Atilde;
layers = (
{
background = {
paths = (
{
closed = 1;
nodes = (
"90 -5 OFFCURVE",
"106 5 OFFCURVE",
"114 23 CURVE SMOOTH",
"179 179 LINE",
"519 179 LINE",
"584 23 LINE SMOOTH",
"592 5 OFFCURVE",
"608 -5 OFFCURVE",
"627 -5 CURVE SMOOTH",
"655 -5 OFFCURVE",
"672 15 OFFCURVE",
"672 40 CURVE SMOOTH",
"672 46 OFFCURVE",
"670 53 OFFCURVE",
"667 60 CURVE SMOOTH",
"412 662 LINE SMOOTH",
"403 683 OFFCURVE",
"384 703 OFFCURVE",
"354 703 CURVE SMOOTH",
"344 703 LINE SMOOTH",
"314 703 OFFCURVE",
"295 683 OFFCURVE",
"286 662 CURVE SMOOTH",
"31 60 LINE SMOOTH",
"28 53 OFFCURVE",
"26 46 OFFCURVE",
"26 40 CURVE SMOOTH",
"26 15 OFFCURVE",
"43 -5 OFFCURVE",
"71 -5 CURVE SMOOTH"
);
},
{
closed = 1;
nodes = (
"349 587 LINE",
"484 262 LINE",
"214 262 LINE"
);
},
{
closed = 1;
nodes = (
"225 743 OFFCURVE",
"232 752 OFFCURVE",
"235 761 CURVE",
"243 780 OFFCURVE",
"254 793 OFFCURVE",
"274 793 CURVE SMOOTH",
"326 793 OFFCURVE",
"369 745 OFFCURVE",
"428 745 CURVE SMOOTH",
"478 745 OFFCURVE",
"512 797 OFFCURVE",
"512 840 CURVE",
"511 852 OFFCURVE",
"503 862 OFFCURVE",
"489 862 CURVE SMOOTH",
"474 862 OFFCURVE",
"468 852 OFFCURVE",
"464 841 CURVE SMOOTH",
"458 824 OFFCURVE",
"448 814 OFFCURVE",
"427 814 CURVE SMOOTH",
"373 814 OFFCURVE",
"331 861 OFFCURVE",
"273 861 CURVE SMOOTH",
"221 861 OFFCURVE",
"189 806 OFFCURVE",
"189 766 CURVE SMOOTH",
"189 753 OFFCURVE",
"200 743 OFFCURVE",
"212 743 CURVE SMOOTH"
);
}
);
};
components = (
{
name = A;
},
{
name = tildecomb.case;
transform = "{1, 0, 0, 1, 173, 0}";
}
);
layerId = "A99C00BB-606F-4263-964D-93C8B7F0BADD";
width = 746;
}
);
leftKerningGroup = A;
note = Atilde;
rightKerningGroup = A;
unicode = 00C3;
},
{
glyphname = AE;
layers = (
{
anchors = (
{
name = bottom;
position = "{545, 0}";
},
{
name = top;
position = "{545, 698}";
}
);
layerId = "A99C00BB-606F-4263-964D-93C8B7F0BADD";
paths = (
{
closed = 1;
nodes = (
"66 -5 OFFCURVE",
"80 7 OFFCURVE",
"89 21 CURVE SMOOTH",
"191 179 LINE",
"499 179 LINE",
"499 45 LINE SMOOTH",
"499 20 OFFCURVE",
"519 0 OFFCURVE",
"544 0 CURVE SMOOTH",
"945 0 LINE SMOOTH",
"969 0 OFFCURVE",
"988 18 OFFCURVE",
"988 42 CURVE SMOOTH",
"988 66 OFFCURVE",
"969 85 OFFCURVE",
"945 85 CURVE SMOOTH",
"590 85 LINE",
"590 307 LINE",
"909 307 LINE SMOOTH",
"933 307 OFFCURVE",
"952 325 OFFCURVE",
"952 349 CURVE SMOOTH",
"952 373 OFFCURVE",
"933 392 OFFCURVE",
"909 392 CURVE SMOOTH",
"590 392 LINE",
"590 613 LINE",
"945 613 LINE SMOOTH",
"969 613 OFFCURVE",
"988 631 OFFCURVE",
"988 655 CURVE SMOOTH",
"988 679 OFFCURVE",
"969 698 OFFCURVE",
"945 698 CURVE SMOOTH",
"457 698 LINE SMOOTH",
"438 698 OFFCURVE",
"421 688 OFFCURVE",
"411 673 CURVE SMOOTH",
"12 68 LINE SMOOTH",
"6 59 OFFCURVE",
"2 51 OFFCURVE",
"2 40 CURVE SMOOTH",
"2 15 OFFCURVE",
"22 -5 OFFCURVE",
"48 -5 CURVE SMOOTH"
);
},
{
closed = 1;
nodes = (
"474 613 LINE",
"499 613 LINE",
"499 262 LINE",
"245 262 LINE"
);
}
);
width = 1040;
}
);
leftKerningGroup = AE;
note = AE;
rightKerningGroup = E;
rightMetricsKey = E;
unicode = 00C6;
},
{
glyphname = B;
layers = (
{
anchors = (
{
name = bottom;
position = "{347, 0}";
},
{
name = top;
position = "{347, 698}";
}
);
layerId = "A99C00BB-606F-4263-964D-93C8B7F0BADD";
paths = (
{
closed = 1;
nodes = (
"384 0 LINE SMOOTH",
"569 0 OFFCURVE",
"641 79 OFFCURVE",
"641 196 CURVE SMOOTH",
"641 288 OFFCURVE",
"576 340 OFFCURVE",
"504 363 CURVE",
"555 386 OFFCURVE",
"602 434 OFFCURVE",
"602 517 CURVE SMOOTH",
"602 625 OFFCURVE",
"524 698 OFFCURVE",
"378 698 CURVE SMOOTH",
"142 698 LINE SMOOTH",
"117 698 OFFCURVE",
"97 677 OFFCURVE",
"97 652 CURVE SMOOTH",
"97 45 LINE SMOOTH",
"97 20 OFFCURVE",
"117 0 OFFCURVE",
"142 0 CURVE SMOOTH"
);
},
{
closed = 1;
nodes = (
"188 314 LINE",
"376 314 LINE SMOOTH",
"491 314 OFFCURVE",
"553 279 OFFCURVE",
"553 200 CURVE SMOOTH",
"553 132 OFFCURVE",
"512 85 OFFCURVE",
"375 85 CURVE SMOOTH",
"188 85 LINE"
);
},
{
closed = 1;
nodes = (
"188 613 LINE",
"371 613 LINE SMOOTH",
"462 613 OFFCURVE",
"515 572 OFFCURVE",
"515 510 CURVE SMOOTH",
"515 445 OFFCURVE",
"480 396 OFFCURVE",
"354 396 CURVE SMOOTH",
"188 396 LINE"
);
}
);
width = 693;
}
);
leftKerningGroup = H;
leftMetricsKey = I;
note = B;
rightKerningGroup = B;
unicode = 0042;
},
{
glyphname = C;
layers = (
{
anchors = (
{
name = bottom;
position = "{395, 0}";
},
{
name = top;
position = "{395, 698}";
}
);
layerId = "A99C00BB-606F-4263-964D-93C8B7F0BADD";
paths = (
{
closed = 1;
nodes = (
"503 -10 OFFCURVE",
"571 17 OFFCURVE",
"633 52 CURVE SMOOTH",
"646 59 OFFCURVE",
"654 69 OFFCURVE",
"655 88 CURVE SMOOTH",
"656 109 OFFCURVE",
"640 128 OFFCURVE",
"615 128 CURVE SMOOTH",
"610 128 OFFCURVE",
"603 127 OFFCURVE",
"597 124 CURVE SMOOTH",
"544 96 OFFCURVE",
"492 77 OFFCURVE",
"414 77 CURVE SMOOTH",
"237 77 OFFCURVE",
"146 195 OFFCURVE",
"146 349 CURVE SMOOTH",
"146 503 OFFCURVE",
"237 621 OFFCURVE",
"414 621 CURVE SMOOTH",
"492 621 OFFCURVE",
"544 602 OFFCURVE",
"597 574 CURVE SMOOTH",
"603 571 OFFCURVE",
"610 570 OFFCURVE",
"615 570 CURVE SMOOTH",
"640 570 OFFCURVE",
"656 589 OFFCURVE",
"655 610 CURVE SMOOTH",
"654 629 OFFCURVE",
"646 639 OFFCURVE",
"633 646 CURVE SMOOTH",
"571 681 OFFCURVE",
"503 708 OFFCURVE",
"405 708 CURVE SMOOTH",
"206 708 OFFCURVE",
"55 572 OFFCURVE",
"55 349 CURVE SMOOTH",
"55 126 OFFCURVE",
"206 -10 OFFCURVE",
"405 -10 CURVE SMOOTH"
);
}
);
width = 695;
}
);
leftKerningGroup = O;
leftMetricsKey = O;
note = C;
rightKerningGroup = C;
unicode = 0043;
},
{
color = 10;
glyphname = Ccedilla;
layers = (
{
background = {
paths = (
{
closed = 1;
nodes = (
"452 -221 OFFCURVE",
"492 -191 OFFCURVE",
"492 -129 CURVE SMOOTH",
"492 -87 OFFCURVE",
"460 -59 OFFCURVE",
"415 -59 CURVE SMOOTH",
"403 -59 OFFCURVE",
"393 -60 OFFCURVE",
"381 -63 CURVE",
"411 -10 LINE",
"506 -9 OFFCURVE",
"573 17 OFFCURVE",
"634 52 CURVE SMOOTH",
"647 59 OFFCURVE",
"655 69 OFFCURVE",
"656 88 CURVE SMOOTH",
"657 109 OFFCURVE",
"641 128 OFFCURVE",
"616 128 CURVE SMOOTH",
"611 128 OFFCURVE",
"604 127 OFFCURVE",
"598 124 CURVE SMOOTH",
"545 96 OFFCURVE",
"493 77 OFFCURVE",
"415 77 CURVE SMOOTH",
"238 77 OFFCURVE",
"147 195 OFFCURVE",
"147 349 CURVE SMOOTH",
"147 503 OFFCURVE",
"238 621 OFFCURVE",
"415 621 CURVE SMOOTH",
"493 621 OFFCURVE",
"545 602 OFFCURVE",
"598 574 CURVE SMOOTH",
"604 571 OFFCURVE",
"611 570 OFFCURVE",
"616 570 CURVE SMOOTH",
"641 570 OFFCURVE",
"657 589 OFFCURVE",
"656 610 CURVE SMOOTH",
"655 629 OFFCURVE",
"647 639 OFFCURVE",
"634 646 CURVE SMOOTH",
"572 681 OFFCURVE",
"504 708 OFFCURVE",
"406 708 CURVE SMOOTH",
"207 708 OFFCURVE",
"56 572 OFFCURVE",
"56 349 CURVE SMOOTH",
"56 140 OFFCURVE",
"188 8 OFFCURVE",
"369 -8 CURVE",
"321 -85 LINE SMOOTH",
"319 -88 OFFCURVE",
"317 -92 OFFCURVE",
"317 -99 CURVE SMOOTH",
"317 -108 OFFCURVE",
"326 -115 OFFCURVE",
"335 -115 CURVE SMOOTH",
"339 -115 OFFCURVE",
"343 -113 OFFCURVE",
"345 -112 CURVE SMOOTH",
"363 -103 OFFCURVE",
"375 -101 OFFCURVE",
"389 -101 CURVE SMOOTH",
"409 -101 OFFCURVE",
"425 -112 OFFCURVE",
"425 -132 CURVE SMOOTH",
"425 -167 OFFCURVE",
"400 -178 OFFCURVE",
"368 -178 CURVE SMOOTH",
"351 -178 OFFCURVE",
"331 -173 OFFCURVE",
"309 -161 CURVE",
"307 -160 OFFCURVE",
"303 -158 OFFCURVE",
"299 -158 CURVE SMOOTH",
"286 -158 OFFCURVE",
"280 -168 OFFCURVE",
"280 -178 CURVE SMOOTH",
"280 -185 OFFCURVE",
"286 -192 OFFCURVE",
"291 -195 CURVE SMOOTH",
"325 -216 OFFCURVE",
"359 -221 OFFCURVE",
"381 -221 CURVE SMOOTH"
);
}
);
};
components = (
{
name = C;
},
{
name = cedillacomb;
transform = "{1, 0, 0, 1, 195, 0}";
}
);
layerId = "A99C00BB-606F-4263-964D-93C8B7F0BADD";
width = 695;
}
);
leftKerningGroup = O;
note = Ccedilla;
rightKerningGroup = C;
unicode = 00C7;
},
{
glyphname = D;
layers = (
{
anchors = (
{
name = bottom;
position = "{375, 0}";
},
{
name = center;
position = "{375, 349}";
},
{
name = top;
position = "{375, 698}";
}
);
layerId = "A99C00BB-606F-4263-964D-93C8B7F0BADD";
paths = (
{
closed = 1;
nodes = (
"343 0 LINE SMOOTH",
"582 0 OFFCURVE",
"696 181 OFFCURVE",
"696 349 CURVE SMOOTH",
"696 518 OFFCURVE",
"582 698 OFFCURVE",
"343 698 CURVE SMOOTH",
"142 698 LINE SMOOTH",
"117 698 OFFCURVE",
"97 677 OFFCURVE",
"97 652 CURVE SMOOTH",
"97 45 LINE SMOOTH",
"97 20 OFFCURVE",
"117 0 OFFCURVE",
"142 0 CURVE SMOOTH"
);
},
{
closed = 1;
nodes = (
"188 613 LINE",
"332 613 LINE SMOOTH",
"499 613 OFFCURVE",
"606 505 OFFCURVE",
"606 349 CURVE SMOOTH",
"606 193 OFFCURVE",
"499 85 OFFCURVE",
"332 85 CURVE SMOOTH",
"188 85 LINE"
);
}
);
width = 751;
}
);
leftKerningGroup = H;
leftMetricsKey = I;
note = D;
rightKerningGroup = O;
rightMetricsKey = O;
unicode = 0044;
},
{
glyphname = Eth;
layers = (
{
layerId = "A99C00BB-606F-4263-964D-93C8B7F0BADD";
paths = (
{
closed = 1;
nodes = (
"348 0 LINE SMOOTH",
"587 0 OFFCURVE",
"701 181 OFFCURVE",
"701 349 CURVE SMOOTH",
"701 518 OFFCURVE",
"587 698 OFFCURVE",
"348 698 CURVE SMOOTH",
"147 698 LINE SMOOTH",
"122 698 OFFCURVE",
"102 677 OFFCURVE",
"102 652 CURVE SMOOTH",
"102 382 LINE",
"48 382 LINE SMOOTH",
"29 382 OFFCURVE",
"15 367 OFFCURVE",
"15 348 CURVE SMOOTH",
"15 329 OFFCURVE",
"29 315 OFFCURVE",
"48 315 CURVE SMOOTH",
"102 315 LINE",
"102 45 LINE SMOOTH",
"102 20 OFFCURVE",
"122 0 OFFCURVE",
"147 0 CURVE SMOOTH"
);
},
{
closed = 1;
nodes = (
"193 315 LINE",
"310 315 LINE SMOOTH",
"329 315 OFFCURVE",
"344 329 OFFCURVE",
"344 348 CURVE SMOOTH",
"344 367 OFFCURVE",
"329 382 OFFCURVE",
"310 382 CURVE SMOOTH",
"193 382 LINE",
"193 613 LINE",
"337 613 LINE SMOOTH",
"504 613 OFFCURVE",
"611 505 OFFCURVE",
"611 349 CURVE SMOOTH",
"611 193 OFFCURVE",
"504 85 OFFCURVE",
"337 85 CURVE SMOOTH",
"193 85 LINE"
);
}
);
width = 756;
}
);
leftKerningGroup = H;
widthMetricsKey = "=D+5";
note = Eth;
rightKerningGroup = O;
rightMetricsKey = D;
unicode = 00D0;
},
{
glyphname = E;
layers = (
{
anchors = (
{
name = bottom;
position = "{342, 0}";
},
{
name = ogonek;
position = "{571, 10}";
},
{
name = top;
position = "{342, 698}";
},
{
name = topleft;
position = "{20, 698}";
}
);
layerId = "A99C00BB-606F-4263-964D-93C8B7F0BADD";
paths = (
{
closed = 1;
nodes = (
"543 0 LINE SMOOTH",
"567 0 OFFCURVE",
"586 18 OFFCURVE",
"586 42 CURVE SMOOTH",
"586 66 OFFCURVE",
"567 85 OFFCURVE",
"543 85 CURVE SMOOTH",
"188 85 LINE",
"188 307 LINE",
"507 307 LINE SMOOTH",
"531 307 OFFCURVE",
"550 325 OFFCURVE",
"550 349 CURVE SMOOTH",
"550 373 OFFCURVE",
"531 392 OFFCURVE",
"507 392 CURVE SMOOTH",
"188 392 LINE",
"188 613 LINE",
"543 613 LINE SMOOTH",
"567 613 OFFCURVE",
"586 631 OFFCURVE",
"586 655 CURVE SMOOTH",
"586 679 OFFCURVE",
"567 698 OFFCURVE",
"543 698 CURVE SMOOTH",
"142 698 LINE SMOOTH",
"117 698 OFFCURVE",
"97 677 OFFCURVE",
"97 652 CURVE SMOOTH",
"97 45 LINE SMOOTH",
"97 20 OFFCURVE",
"117 0 OFFCURVE",
"142 0 CURVE SMOOTH"
);
}
);
width = 638;
}
);
leftKerningGroup = H;
leftMetricsKey = I;
note = E;
rightKerningGroup = E;
unicode = 0045;
},
{
color = 3;
glyphname = Eogonek;
layers = (
{
anchors = (
{
name = top;
position = "{342, 698}";
}
);
background = {
paths = (
{
closed = 1;
nodes = (
"543 0 LINE SMOOTH",
"567 0 OFFCURVE",
"586 18 OFFCURVE",
"586 42 CURVE SMOOTH",
"586 66 OFFCURVE",
"567 85 OFFCURVE",
"543 85 CURVE SMOOTH",
"188 85 LINE",
"188 307 LINE",
"507 307 LINE SMOOTH",
"531 307 OFFCURVE",
"550 325 OFFCURVE",
"550 349 CURVE SMOOTH",
"550 373 OFFCURVE",
"531 392 OFFCURVE",
"507 392 CURVE SMOOTH",
"188 392 LINE",
"188 613 LINE",
"543 613 LINE SMOOTH",
"567 613 OFFCURVE",
"586 631 OFFCURVE",
"586 655 CURVE SMOOTH",
"586 679 OFFCURVE",
"567 698 OFFCURVE",
"543 698 CURVE SMOOTH",
"142 698 LINE SMOOTH",
"117 698 OFFCURVE",
"97 677 OFFCURVE",
"97 652 CURVE SMOOTH",
"97 45 LINE SMOOTH",
"97 20 OFFCURVE",
"117 0 OFFCURVE",
"142 0 CURVE SMOOTH"
);
},
{
closed = 1;
nodes = (
"516 -203 OFFCURVE",
"544 -194 OFFCURVE",
"565 -179 CURVE SMOOTH",
"572 -174 OFFCURVE",
"576 -168 OFFCURVE",
"576 -161 CURVE SMOOTH",
"576 -148 OFFCURVE",
"567 -139 OFFCURVE",
"554 -139 CURVE SMOOTH",
"551 -139 OFFCURVE",
"548 -140 OFFCURVE",
"545 -141 CURVE SMOOTH",
"535 -144 OFFCURVE",
"524 -147 OFFCURVE",
"510 -147 CURVE SMOOTH",
"474 -147 OFFCURVE",
"460 -129 OFFCURVE",
"459 -100 CURVE SMOOTH",
"458 -50 OFFCURVE",
"524 -12 OFFCURVE",
"559 3 CURVE",
"490 10 LINE",
"437 -17 OFFCURVE",
"386 -55 OFFCURVE",
"386 -119 CURVE SMOOTH",
"386 -172 OFFCURVE",
"431 -203 OFFCURVE",
"479 -203 CURVE SMOOTH"
);
}
);
};
layerId = "A99C00BB-606F-4263-964D-93C8B7F0BADD";
paths = (
{
closed = 1;
nodes = (
"516 -203 OFFCURVE",
"544 -194 OFFCURVE",
"565 -179 CURVE SMOOTH",
"572 -174 OFFCURVE",
"576 -168 OFFCURVE",
"576 -161 CURVE SMOOTH",
"576 -148 OFFCURVE",
"567 -139 OFFCURVE",
"554 -139 CURVE SMOOTH",
"551 -139 OFFCURVE",
"548 -140 OFFCURVE",
"545 -141 CURVE SMOOTH",
"535 -144 OFFCURVE",
"524 -147 OFFCURVE",
"510 -147 CURVE SMOOTH",
"474 -147 OFFCURVE",
"460 -129 OFFCURVE",
"459 -100 CURVE SMOOTH",
"458 -51 OFFCURVE",
"523 -12 OFFCURVE",
"558 2 CURVE SMOOTH",
"575 9 OFFCURVE",
"586 23 OFFCURVE",
"586 42 CURVE SMOOTH",
"586 66 OFFCURVE",
"567 85 OFFCURVE",
"543 85 CURVE SMOOTH",
"188 85 LINE",
"188 307 LINE",
"507 307 LINE SMOOTH",
"531 307 OFFCURVE",
"550 325 OFFCURVE",
"550 349 CURVE SMOOTH",
"550 373 OFFCURVE",
"531 392 OFFCURVE",
"507 392 CURVE SMOOTH",
"188 392 LINE",
"188 613 LINE",
"543 613 LINE SMOOTH",
"567 613 OFFCURVE",
"586 631 OFFCURVE",
"586 655 CURVE SMOOTH",
"586 679 OFFCURVE",
"567 698 OFFCURVE",
"543 698 CURVE SMOOTH",
"142 698 LINE SMOOTH",
"117 698 OFFCURVE",
"97 677 OFFCURVE",
"97 652 CURVE SMOOTH",
"97 45 LINE SMOOTH",
"97 20 OFFCURVE",
"117 0 OFFCURVE",
"142 0 CURVE SMOOTH",
"471 0 LINE",
"426 -26 OFFCURVE",
"386 -63 OFFCURVE",
"386 -119 CURVE SMOOTH",
"386 -172 OFFCURVE",
"431 -203 OFFCURVE",
"479 -203 CURVE SMOOTH"
);
}
);
width = 638;
}
);
leftKerningGroup = H;
leftMetricsKey = E;
widthMetricsKey = E;
rightKerningGroup = E;
unicode = 0118;
},
{
glyphname = F;
layers = (
{
anchors = (
{
name = bottom;
position = "{305, 0}";
},
{
name = top;
position = "{305, 698}";
}
);
layerId = "A99C00BB-606F-4263-964D-93C8B7F0BADD";
paths = (
{
closed = 1;
nodes = (
"167 -5 OFFCURVE",
"188 15 OFFCURVE",
"188 40 CURVE SMOOTH",
"188 307 LINE",
"496 307 LINE SMOOTH",
"520 307 OFFCURVE",
"539 325 OFFCURVE",
"539 349 CURVE SMOOTH",
"539 373 OFFCURVE",
"520 392 OFFCURVE",
"496 392 CURVE SMOOTH",
"188 392 LINE",
"188 613 LINE",
"531 613 LINE SMOOTH",
"555 613 OFFCURVE",
"574 631 OFFCURVE",
"574 655 CURVE SMOOTH",
"574 679 OFFCURVE",
"555 698 OFFCURVE",
"531 698 CURVE SMOOTH",
"142 698 LINE SMOOTH",
"117 698 OFFCURVE",
"97 677 OFFCURVE",
"97 652 CURVE SMOOTH",
"97 40 LINE SMOOTH",
"97 15 OFFCURVE",
"117 -5 OFFCURVE",
"142 -5 CURVE SMOOTH"
);
}
);
width = 608;
}
);
leftKerningGroup = H;
leftMetricsKey = I;
note = F;
rightKerningGroup = F;
unicode = 0046;
},
{
glyphname = G;
layers = (
{
anchors = (
{
name = bottom;
position = "{406, 0}";
},
{
name = top;
position = "{406, 698}";
}
);
layerId = "A99C00BB-606F-4263-964D-93C8B7F0BADD";
paths = (
{
closed = 1;
nodes = (
"493 -10 OFFCURVE",
"569 13 OFFCURVE",
"635 46 CURVE SMOOTH",
"658 57 OFFCURVE",
"673 80 OFFCURVE",
"673 108 CURVE SMOOTH",
"673 335 LINE SMOOTH",
"673 362 OFFCURVE",
"652 383 OFFCURVE",
"625 383 CURVE SMOOTH",
"428 383 LINE SMOOTH",
"405 383 OFFCURVE",
"387 365 OFFCURVE",
"387 342 CURVE SMOOTH",
"387 319 OFFCURVE",
"405 301 OFFCURVE",
"428 301 CURVE SMOOTH",
"593 301 LINE",
"593 120 LINE",
"547 95 OFFCURVE",
"488 76 OFFCURVE",
"418 76 CURVE SMOOTH",
"246 76 OFFCURVE",
"146 194 OFFCURVE",
"146 348 CURVE SMOOTH",
"146 523 OFFCURVE",
"262 620 OFFCURVE",
"413 620 CURVE SMOOTH",
"490 620 OFFCURVE",
"550 599 OFFCURVE",
"609 564 CURVE",
"615 561 OFFCURVE",
"622 559 OFFCURVE",
"630 559 CURVE SMOOTH",
"656 559 OFFCURVE",
"672 579 OFFCURVE",
"672 600 CURVE SMOOTH",
"672 618 OFFCURVE",
"661 631 OFFCURVE",
"652 636 CURVE",
"589 676 OFFCURVE",
"516 708 OFFCURVE",
"403 708 CURVE SMOOTH",
"209 708 OFFCURVE",
"55 565 OFFCURVE",
"55 348 CURVE SMOOTH",
"55 139 OFFCURVE",
"196 -10 OFFCURVE",
"406 -10 CURVE SMOOTH"
);
}
);
width = 757;
}
);
leftKerningGroup = O;
leftMetricsKey = O;
note = G;
rightKerningGroup = G;
unicode = 0047;
},
{
glyphname = H;
layers = (
{
anchors = (
{
name = bottom;
position = "{378, 0}";
},
{
name = center;
position = "{378, 349}";
},
{
name = top;
position = "{378, 698}";
},
{
name = topleft;
position = "{20, 698}";
}
);
layerId = "A99C00BB-606F-4263-964D-93C8B7F0BADD";
paths = (
{
closed = 1;
nodes = (
"167 -5 OFFCURVE",
"188 15 OFFCURVE",
"188 40 CURVE SMOOTH",
"188 306 LINE",
"567 306 LINE",
"567 40 LINE SMOOTH",
"567 15 OFFCURVE",
"587 -5 OFFCURVE",
"612 -5 CURVE SMOOTH",
"637 -5 OFFCURVE",
"658 15 OFFCURVE",
"658 40 CURVE SMOOTH",
"658 657 LINE SMOOTH",
"658 682 OFFCURVE",
"637 703 OFFCURVE",
"612 703 CURVE SMOOTH",
"587 703 OFFCURVE",
"567 682 OFFCURVE",
"567 657 CURVE SMOOTH",
"567 391 LINE",
"188 391 LINE",
"188 657 LINE SMOOTH",
"188 682 OFFCURVE",
"167 703 OFFCURVE",
"142 703 CURVE SMOOTH",
"117 703 OFFCURVE",
"97 682 OFFCURVE",
"97 657 CURVE SMOOTH",
"97 40 LINE SMOOTH",
"97 15 OFFCURVE",
"117 -5 OFFCURVE",
"142 -5 CURVE SMOOTH"
);
}
);
width = 755;
}
);
leftKerningGroup = H;
leftMetricsKey = I;
note = H;
rightKerningGroup = H;
rightMetricsKey = I;
unicode = 0048;
},
{
color = 3;
glyphname = Hbar;
layers = (
{
background = {
paths = (
{
closed = 1;
nodes = (
"55 582 LINE SMOOTH",
"36 582 OFFCURVE",
"22 567 OFFCURVE",
"22 548 CURVE SMOOTH",
"22 529 OFFCURVE",
"36 515 OFFCURVE",
"55 515 CURVE SMOOTH",
"709 515 LINE SMOOTH",
"728 515 OFFCURVE",
"743 529 OFFCURVE",
"743 548 CURVE SMOOTH",
"743 567 OFFCURVE",
"728 582 OFFCURVE",
"709 582 CURVE SMOOTH"
);
},
{
closed = 1;
nodes = (
"172 -5 OFFCURVE",
"193 15 OFFCURVE",
"193 40 CURVE SMOOTH",
"193 306 LINE",
"572 306 LINE",
"572 40 LINE SMOOTH",
"572 15 OFFCURVE",
"592 -5 OFFCURVE",
"617 -5 CURVE SMOOTH",
"642 -5 OFFCURVE",
"663 15 OFFCURVE",
"663 40 CURVE SMOOTH",
"663 657 LINE SMOOTH",
"663 682 OFFCURVE",
"642 703 OFFCURVE",
"617 703 CURVE SMOOTH",
"592 703 OFFCURVE",
"572 682 OFFCURVE",
"572 657 CURVE SMOOTH",
"572 391 LINE",
"193 391 LINE",
"193 657 LINE SMOOTH",
"193 682 OFFCURVE",
"172 703 OFFCURVE",
"147 703 CURVE SMOOTH",
"122 703 OFFCURVE",
"102 682 OFFCURVE",
"102 657 CURVE SMOOTH",
"102 40 LINE SMOOTH",
"102 15 OFFCURVE",
"122 -5 OFFCURVE",
"147 -5 CURVE SMOOTH"
);
}
);
};
layerId = "A99C00BB-606F-4263-964D-93C8B7F0BADD";
paths = (
{
closed = 1;
nodes = (
"172 -5 OFFCURVE",
"193 15 OFFCURVE",
"193 40 CURVE SMOOTH",
"193 306 LINE",
"572 306 LINE",
"572 40 LINE SMOOTH",
"572 15 OFFCURVE",
"592 -5 OFFCURVE",
"617 -5 CURVE SMOOTH",
"642 -5 OFFCURVE",
"663 15 OFFCURVE",
"663 40 CURVE SMOOTH",
"663 511 LINE",
"707 511 LINE SMOOTH",
"726 511 OFFCURVE",
"743 525 OFFCURVE",
"743 546 CURVE SMOOTH",
"743 567 OFFCURVE",
"726 582 OFFCURVE",
"707 582 CURVE SMOOTH",
"663 582 LINE",
"663 657 LINE SMOOTH",
"663 682 OFFCURVE",
"642 703 OFFCURVE",
"617 703 CURVE SMOOTH",
"592 703 OFFCURVE",
"572 682 OFFCURVE",
"572 657 CURVE SMOOTH",
"572 582 LINE",
"193 582 LINE",
"193 657 LINE SMOOTH",
"193 682 OFFCURVE",
"172 703 OFFCURVE",
"147 703 CURVE SMOOTH",
"122 703 OFFCURVE",
"102 682 OFFCURVE",
"102 657 CURVE SMOOTH",
"102 582 LINE",
"57 582 LINE SMOOTH",
"38 582 OFFCURVE",
"22 567 OFFCURVE",
"22 546 CURVE SMOOTH",
"22 525 OFFCURVE",
"38 511 OFFCURVE",
"57 511 CURVE SMOOTH",
"102 511 LINE",
"102 40 LINE SMOOTH",
"102 15 OFFCURVE",
"122 -5 OFFCURVE",
"147 -5 CURVE SMOOTH"
);
},
{
closed = 1;
nodes = (
"193 511 LINE",
"572 511 LINE",
"572 391 LINE",
"193 391 LINE"
);
}
);
width = 765;
}
);
leftKerningGroup = H;
rightKerningGroup = H;
unicode = 0126;
},
{
glyphname = I;
layers = (
{
anchors = (
{
name = bottom;
position = "{143, 0}";
},
{
name = ogonek;
position = "{176, 10}";
},
{
name = top;
position = "{143, 698}";
},
{
name = topleft;
position = "{20, 698}";
}
);
layerId = "A99C00BB-606F-4263-964D-93C8B7F0BADD";
paths = (
{
closed = 1;
nodes = (
"167 -5 OFFCURVE",
"188 15 OFFCURVE",
"188 40 CURVE SMOOTH",
"188 657 LINE SMOOTH",
"188 682 OFFCURVE",
"167 703 OFFCURVE",
"142 703 CURVE SMOOTH",
"117 703 OFFCURVE",
"97 682 OFFCURVE",
"97 657 CURVE SMOOTH",
"97 40 LINE SMOOTH",
"97 15 OFFCURVE",
"117 -5 OFFCURVE",
"142 -5 CURVE SMOOTH"
);
}
);
width = 285;
}
);
leftKerningGroup = H;
note = I;
rightKerningGroup = H;
unicode = 0049;
},
{
color = 3;
glyphname = Iogonek;
layers = (
{
background = {
paths = (
{
closed = 1;
nodes = (
"167 -5 OFFCURVE",
"188 15 OFFCURVE",
"188 40 CURVE SMOOTH",
"188 657 LINE SMOOTH",
"188 682 OFFCURVE",
"167 703 OFFCURVE",
"142 703 CURVE SMOOTH",
"117 703 OFFCURVE",
"97 682 OFFCURVE",
"97 657 CURVE SMOOTH",
"97 40 LINE SMOOTH",
"97 15 OFFCURVE",
"117 -5 OFFCURVE",
"142 -5 CURVE SMOOTH"
);
},
{
closed = 1;
nodes = (
"195 -203 OFFCURVE",
"223 -194 OFFCURVE",
"244 -179 CURVE SMOOTH",
"251 -174 OFFCURVE",
"255 -168 OFFCURVE",
"255 -161 CURVE SMOOTH",
"255 -148 OFFCURVE",
"246 -139 OFFCURVE",
"233 -139 CURVE SMOOTH",
"230 -139 OFFCURVE",
"227 -140 OFFCURVE",
"224 -141 CURVE SMOOTH",
"214 -144 OFFCURVE",
"203 -147 OFFCURVE",
"189 -147 CURVE SMOOTH",
"153 -147 OFFCURVE",
"139 -129 OFFCURVE",
"138 -100 CURVE SMOOTH",
"137 -50 OFFCURVE",
"203 -12 OFFCURVE",
"250 10 CURVE",
"169 10 LINE",
"116 -17 OFFCURVE",
"65 -55 OFFCURVE",
"65 -119 CURVE SMOOTH",
"65 -172 OFFCURVE",
"110 -203 OFFCURVE",
"158 -203 CURVE SMOOTH"
);
}
);
};
layerId = "A99C00BB-606F-4263-964D-93C8B7F0BADD";
paths = (
{
closed = 1;
nodes = (
"176 -203 OFFCURVE",
"204 -194 OFFCURVE",
"225 -179 CURVE SMOOTH",
"232 -174 OFFCURVE",
"236 -168 OFFCURVE",
"236 -161 CURVE SMOOTH",
"236 -148 OFFCURVE",
"227 -139 OFFCURVE",
"214 -139 CURVE SMOOTH",
"211 -139 OFFCURVE",
"208 -140 OFFCURVE",
"205 -141 CURVE SMOOTH",
"195 -144 OFFCURVE",
"184 -147 OFFCURVE",
"170 -147 CURVE SMOOTH",
"136 -147 OFFCURVE",
"119 -127 OFFCURVE",
"119 -97 CURVE SMOOTH",
"119 -40 OFFCURVE",
"162 -10 OFFCURVE",
"176 10 CURVE SMOOTH",
"185 23 OFFCURVE",
"188 32 OFFCURVE",
"188 50 CURVE SMOOTH",
"188 657 LINE SMOOTH",
"188 682 OFFCURVE",
"167 703 OFFCURVE",
"142 703 CURVE SMOOTH",
"117 703 OFFCURVE",
"97 682 OFFCURVE",
"97 657 CURVE SMOOTH",
"97 40 LINE SMOOTH",
"97 25 OFFCURVE",
"104 12 OFFCURVE",
"116 4 CURVE",
"75 -23 OFFCURVE",
"46 -62 OFFCURVE",
"46 -109 CURVE SMOOTH",
"46 -167 OFFCURVE",
"91 -203 OFFCURVE",
"149 -203 CURVE SMOOTH"
);
}
);
width = 285;
}
);
leftKerningGroup = H;
rightKerningGroup = H;
unicode = 012E;
},
{
glyphname = J;
layers = (
{
anchors = (
{
name = bottom;
position = "{234, 0}";
},
{
name = top;
position = "{328, 698}";
}
);
layerId = "A99C00BB-606F-4263-964D-93C8B7F0BADD";
paths = (
{
closed = 1;
nodes = (
"270 -10 OFFCURVE",
"374 39 OFFCURVE",
"374 230 CURVE SMOOTH",
"374 657 LINE SMOOTH",
"374 682 OFFCURVE",
"353 703 OFFCURVE",
"328 703 CURVE SMOOTH",
"303 703 OFFCURVE",
"283 682 OFFCURVE",
"283 657 CURVE SMOOTH",
"283 224 LINE SMOOTH",
"283 98 OFFCURVE",
"222 76 OFFCURVE",
"162 76 CURVE SMOOTH",
"127 76 OFFCURVE",
"96 85 OFFCURVE",
"69 98 CURVE SMOOTH",
"63 101 OFFCURVE",
"56 102 OFFCURVE",
"51 102 CURVE SMOOTH",
"28 102 OFFCURVE",
"13 82 OFFCURVE",
"13 61 CURVE SMOOTH",
"13 42 OFFCURVE",
"23 31 OFFCURVE",
"35 24 CURVE SMOOTH",
"72 3 OFFCURVE",
"117 -10 OFFCURVE",
"168 -10 CURVE SMOOTH"
);
}
);
width = 466;
}
);
leftKerningGroup = J;
note = J;
rightKerningGroup = J;
unicode = 004A;
},
{
glyphname = K;
layers = (
{
anchors = (
{
name = bottom;
position = "{335, 0}";
},
{
name = top;
position = "{335, 698}";
}
);
layerId = "A99C00BB-606F-4263-964D-93C8B7F0BADD";
paths = (
{
closed = 1;
nodes = (
"167 -5 OFFCURVE",
"188 15 OFFCURVE",
"188 40 CURVE SMOOTH",
"188 227 LINE",
"302 342 LINE",
"560 13 LINE",
"568 2 OFFCURVE",
"581 -5 OFFCURVE",
"596 -5 CURVE SMOOTH",
"621 -5 OFFCURVE",
"641 15 OFFCURVE",
"640 39 CURVE",
"640 50 OFFCURVE",
"636 59 OFFCURVE",
"629 68 CURVE SMOOTH",
"364 402 LINE",
"595 632 LINE SMOOTH",
"602 639 OFFCURVE",
"605 649 OFFCURVE",
"606 660 CURVE SMOOTH",
"608 684 OFFCURVE",
"588 703 OFFCURVE",
"564 703 CURVE SMOOTH",
"549 703 OFFCURVE",
"537 695 OFFCURVE",
"530 687 CURVE",
"188 339 LINE",
"188 657 LINE SMOOTH",
"188 682 OFFCURVE",
"167 703 OFFCURVE",
"142 703 CURVE SMOOTH",
"117 703 OFFCURVE",
"97 682 OFFCURVE",
"97 657 CURVE SMOOTH",
"97 40 LINE SMOOTH",
"97 15 OFFCURVE",
"117 -5 OFFCURVE",
"142 -5 CURVE SMOOTH"
);
}
);
width = 670;
}
);
leftKerningGroup = H;
leftMetricsKey = I;
note = K;
rightKerningGroup = K;
unicode = 004B;
},
{
glyphname = L;
layers = (
{
anchors = (
{
name = bottom;
position = "{329, 0}";
},
{
name = center;
position = "{288, 349}";
},
{
name = top;
position = "{142, 698}";
},
{
name = topright;
position = "{301, 698}";
}
);
layerId = "A99C00BB-606F-4263-964D-93C8B7F0BADD";
paths = (
{
closed = 1;
nodes = (
"515 0 LINE SMOOTH",
"540 0 OFFCURVE",
"561 20 OFFCURVE",
"561 45 CURVE SMOOTH",
"561 70 OFFCURVE",
"540 91 OFFCURVE",
"515 91 CURVE SMOOTH",
"188 91 LINE",
"188 657 LINE SMOOTH",
"188 682 OFFCURVE",
"167 703 OFFCURVE",
"142 703 CURVE SMOOTH",
"117 703 OFFCURVE",
"97 682 OFFCURVE",
"97 657 CURVE SMOOTH",
"97 63 LINE SMOOTH",
"97 28 OFFCURVE",
"125 0 OFFCURVE",
"160 0 CURVE SMOOTH"
);
}
);
width = 576;
}
);
leftKerningGroup = H;
leftMetricsKey = I;
note = L;
rightKerningGroup = L;
unicode = 004C;
},
{
color = 3;
glyphname = Ldot;
layers = (
{
layerId = "A99C00BB-606F-4263-964D-93C8B7F0BADD";
paths = (
{
closed = 1;
nodes = (
"515 0 LINE SMOOTH",
"540 0 OFFCURVE",
"561 20 OFFCURVE",
"561 45 CURVE SMOOTH",
"561 70 OFFCURVE",
"540 91 OFFCURVE",
"515 91 CURVE SMOOTH",
"188 91 LINE",
"188 657 LINE SMOOTH",
"188 682 OFFCURVE",
"167 703 OFFCURVE",
"142 703 CURVE SMOOTH",
"117 703 OFFCURVE",
"97 682 OFFCURVE",
"97 657 CURVE SMOOTH",
"97 63 LINE SMOOTH",
"97 28 OFFCURVE",
"125 0 OFFCURVE",
"160 0 CURVE SMOOTH"
);
},
{
closed = 1;
nodes = (
"427 336 LINE SMOOTH",
"458 336 OFFCURVE",
"483 361 OFFCURVE",
"483 392 CURVE SMOOTH",
"483 398 LINE SMOOTH",
"483 429 OFFCURVE",
"458 454 OFFCURVE",
"427 454 CURVE SMOOTH",
"417 454 LINE SMOOTH",
"386 454 OFFCURVE",
"361 429 OFFCURVE",
"361 398 CURVE SMOOTH",
"361 392 LINE SMOOTH",
"361 361 OFFCURVE",
"386 336 OFFCURVE",
"417 336 CURVE SMOOTH"
);
}
);
width = 576;
}
);
leftKerningGroup = H;
leftMetricsKey = L;
widthMetricsKey = L;
rightKerningGroup = L;
unicode = 013F;
},
{
color = 3;
glyphname = Lslash;
layers = (
{
background = {
paths = (
{
closed = 1;
nodes = (
"520 0 LINE SMOOTH",
"545 0 OFFCURVE",
"566 20 OFFCURVE",
"566 45 CURVE SMOOTH",
"566 70 OFFCURVE",
"545 91 OFFCURVE",
"520 91 CURVE SMOOTH",
"193 91 LINE",
"193 657 LINE SMOOTH",
"193 682 OFFCURVE",
"172 703 OFFCURVE",
"147 703 CURVE SMOOTH",
"122 703 OFFCURVE",
"102 682 OFFCURVE",
"102 657 CURVE SMOOTH",
"102 63 LINE SMOOTH",
"102 28 OFFCURVE",
"130 0 OFFCURVE",
"165 0 CURVE SMOOTH"
);
},
{
closed = 1;
nodes = (
"301 501 LINE SMOOTH",
"339 539 OFFCURVE",
"289 589 OFFCURVE",
"253 553 CURVE SMOOTH",
"35 334 LINE SMOOTH",
"-5 294 OFFCURVE",
"48 248 OFFCURVE",
"85 285 CURVE SMOOTH"
);
}
);
};
guideLines = (
{
angle = 90;
position = "{22, 360}";
}
);
layerId = "A99C00BB-606F-4263-964D-93C8B7F0BADD";
paths = (
{
closed = 1;
nodes = (
"520 0 LINE SMOOTH",
"545 0 OFFCURVE",
"566 20 OFFCURVE",
"566 45 CURVE SMOOTH",
"566 70 OFFCURVE",
"545 91 OFFCURVE",
"520 91 CURVE SMOOTH",
"193 91 LINE",
"193 393 LINE",
"301 501 LINE SMOOTH",
"311 511 OFFCURVE",
"315 521 OFFCURVE",
"315 530 CURVE SMOOTH",
"315 549 OFFCURVE",
"299 565 OFFCURVE",
"280 565 CURVE SMOOTH",
"271 565 OFFCURVE",
"262 562 OFFCURVE",
"253 553 CURVE SMOOTH",
"193 493 LINE",
"193 657 LINE SMOOTH",
"193 682 OFFCURVE",
"172 703 OFFCURVE",
"147 703 CURVE SMOOTH",
"122 703 OFFCURVE",
"102 682 OFFCURVE",
"102 657 CURVE SMOOTH",
"102 401 LINE",
"35 334 LINE SMOOTH",
"25 324 OFFCURVE",
"21 313 OFFCURVE",
"21 304 CURVE SMOOTH",
"21 285 OFFCURVE",
"37 271 OFFCURVE",
"55 271 CURVE SMOOTH",
"65 271 OFFCURVE",
"75 275 OFFCURVE",
"85 285 CURVE SMOOTH",
"102 302 LINE",
"102 63 LINE SMOOTH",
"102 28 OFFCURVE",
"130 0 OFFCURVE",
"165 0 CURVE SMOOTH"
);
}
);
width = 581;
}
);
leftKerningGroup = Hbar;
widthMetricsKey = "=L+5";
rightKerningGroup = L;
rightMetricsKey = L;
unicode = 0141;
},
{
glyphname = M;
layers = (
{
anchors = (
{
name = bottom;
position = "{483, 0}";
},
{
name = top;
position = "{483, 698}";
}
);
layerId = "A99C00BB-606F-4263-964D-93C8B7F0BADD";
paths = (
{
closed = 1;
nodes = (
"167 -5 OFFCURVE",
"188 15 OFFCURVE",
"188 40 CURVE SMOOTH",
"188 608 LINE",
"419 37 LINE SMOOTH",
"430 12 OFFCURVE",
"454 -5 OFFCURVE",
"483 -5 CURVE SMOOTH",
"512 -5 OFFCURVE",
"536 12 OFFCURVE",
"547 37 CURVE SMOOTH",
"778 608 LINE",
"778 40 LINE SMOOTH",
"778 15 OFFCURVE",
"799 -5 OFFCURVE",
"824 -5 CURVE SMOOTH",
"849 -5 OFFCURVE",
"869 15 OFFCURVE",
"869 40 CURVE SMOOTH",
"869 637 LINE SMOOTH",
"869 673 OFFCURVE",
"840 703 OFFCURVE",
"804 703 CURVE SMOOTH",
"771 703 LINE SMOOTH",
"744 703 OFFCURVE",
"720 685 OFFCURVE",
"710 661 CURVE SMOOTH",
"483 95 LINE",
"256 661 LINE SMOOTH",
"246 685 OFFCURVE",
"222 703 OFFCURVE",
"195 703 CURVE SMOOTH",
"162 703 LINE SMOOTH",
"126 703 OFFCURVE",
"97 673 OFFCURVE",
"97 637 CURVE SMOOTH",
"97 40 LINE SMOOTH",
"97 15 OFFCURVE",
"117 -5 OFFCURVE",
"142 -5 CURVE SMOOTH"
);
}
);
width = 966;
}
);
leftKerningGroup = H;
leftMetricsKey = I;
note = M;
rightKerningGroup = H;
rightMetricsKey = I;
unicode = 004D;
},
{
glyphname = N;
layers = (
{
anchors = (
{
name = bottom;
position = "{402, 0}";
},
{
name = top;
position = "{402, 698}";
}
);
layerId = "A99C00BB-606F-4263-964D-93C8B7F0BADD";
paths = (
{
closed = 1;
nodes = (
"167 -5 OFFCURVE",
"188 15 OFFCURVE",
"188 40 CURVE SMOOTH",
"188 581 LINE",
"575 22 LINE",
"587 6 OFFCURVE",
"606 -5 OFFCURVE",
"628 -5 CURVE SMOOTH",
"640 -5 LINE SMOOTH",
"676 -5 OFFCURVE",
"706 24 OFFCURVE",
"706 60 CURVE SMOOTH",
"706 657 LINE SMOOTH",
"706 682 OFFCURVE",
"685 703 OFFCURVE",
"660 703 CURVE SMOOTH",
"635 703 OFFCURVE",
"615 682 OFFCURVE",
"615 657 CURVE SMOOTH",
"615 117 LINE",
"230 673 LINE",
"216 691 OFFCURVE",
"197 703 OFFCURVE",
"175 703 CURVE SMOOTH",
"162 703 LINE SMOOTH",
"126 703 OFFCURVE",
"97 673 OFFCURVE",
"97 637 CURVE SMOOTH",
"97 40 LINE SMOOTH",
"97 15 OFFCURVE",
"117 -5 OFFCURVE",
"142 -5 CURVE SMOOTH"
);
}
);
width = 803;
}
);
leftKerningGroup = H;
leftMetricsKey = I;
note = N;
rightKerningGroup = H;
rightMetricsKey = I;
unicode = 004E;
},
{
color = 3;
glyphname = Eng;
layers = (
{
background = {
paths = (
{
closed = 1;
nodes = (
"167 -5 OFFCURVE",
"188 15 OFFCURVE",
"188 40 CURVE SMOOTH",
"188 581 LINE",
"575 22 LINE",
"587 6 OFFCURVE",
"606 -5 OFFCURVE",
"628 -5 CURVE SMOOTH",
"640 -5 LINE SMOOTH",
"676 -5 OFFCURVE",
"706 24 OFFCURVE",
"706 60 CURVE SMOOTH",
"706 657 LINE SMOOTH",
"706 682 OFFCURVE",
"685 703 OFFCURVE",
"660 703 CURVE SMOOTH",
"635 703 OFFCURVE",
"615 682 OFFCURVE",
"615 657 CURVE SMOOTH",
"615 117 LINE",
"230 673 LINE",
"216 691 OFFCURVE",
"197 703 OFFCURVE",
"175 703 CURVE SMOOTH",
"162 703 LINE SMOOTH",
"126 703 OFFCURVE",
"97 673 OFFCURVE",
"97 637 CURVE SMOOTH",
"97 40 LINE SMOOTH",
"97 15 OFFCURVE",
"117 -5 OFFCURVE",
"142 -5 CURVE SMOOTH"
);
},
{
closed = 1;
nodes = (
"671 -240 OFFCURVE",
"706 -180 OFFCURVE",
"706 -103 CURVE SMOOTH",
"706 468 LINE SMOOTH",
"706 494 OFFCURVE",
"686 514 OFFCURVE",
"660 514 CURVE SMOOTH",
"635 514 OFFCURVE",
"615 494 OFFCURVE",
"615 468 CURVE SMOOTH",
"615 -101 LINE SMOOTH",
"615 -155 OFFCURVE",
"589 -160 OFFCURVE",
"554 -160 CURVE SMOOTH",
"542 -160 OFFCURVE",
"533 -157 OFFCURVE",
"524 -157 CURVE SMOOTH",
"502 -157 OFFCURVE",
"486 -175 OFFCURVE",
"486 -195 CURVE SMOOTH",
"486 -212 OFFCURVE",
"496 -226 OFFCURVE",
"512 -231 CURVE SMOOTH",
"530 -237 OFFCURVE",
"551 -240 OFFCURVE",
"575 -240 CURVE SMOOTH"
);
}
);
};
layerId = "A99C00BB-606F-4263-964D-93C8B7F0BADD";
paths = (
{
closed = 1;
nodes = (
"671 -240 OFFCURVE",
"706 -170 OFFCURVE",
"706 -83 CURVE SMOOTH",
"706 657 LINE SMOOTH",
"706 682 OFFCURVE",
"685 703 OFFCURVE",
"660 703 CURVE SMOOTH",
"635 703 OFFCURVE",
"615 682 OFFCURVE",
"615 657 CURVE SMOOTH",
"615 137 LINE",
"230 673 LINE",
"216 691 OFFCURVE",
"197 703 OFFCURVE",
"175 703 CURVE SMOOTH",
"162 703 LINE SMOOTH",
"126 703 OFFCURVE",
"97 673 OFFCURVE",
"97 637 CURVE SMOOTH",
"97 40 LINE SMOOTH",
"97 15 OFFCURVE",
"117 -5 OFFCURVE",
"142 -5 CURVE SMOOTH",
"167 -5 OFFCURVE",
"188 15 OFFCURVE",
"188 40 CURVE SMOOTH",
"188 581 LINE",
"615 -16 LINE",
"615 -81 LINE SMOOTH",
"615 -145 OFFCURVE",
"589 -160 OFFCURVE",
"554 -160 CURVE SMOOTH",
"542 -160 OFFCURVE",
"533 -157 OFFCURVE",
"524 -157 CURVE SMOOTH",
"502 -157 OFFCURVE",
"486 -175 OFFCURVE",
"486 -195 CURVE SMOOTH",
"486 -212 OFFCURVE",
"496 -226 OFFCURVE",
"512 -231 CURVE SMOOTH",
"530 -237 OFFCURVE",
"551 -240 OFFCURVE",
"575 -240 CURVE SMOOTH"
);
}
);
width = 803;
}
);
leftKerningGroup = H;
leftMetricsKey = N;
rightKerningGroup = H;
rightMetricsKey = N;
unicode = 014A;
},
{
glyphname = O;
layers = (
{
anchors = (
{
name = bottom;
position = "{406, 0}";
},
{
name = center;
position = "{406, 349}";
},
{
name = ogonek;
position = "{531, 10}";
},
{
name = top;
position = "{406, 698}";
},
{
name = topleft;
position = "{20, 698}";
},
{
name = topright;
position = "{537, 698}";
}
);
background = {
paths = (
{
closed = 1;
nodes = (
"619 -10 OFFCURVE",
"753 140 OFFCURVE",
"757 349 CURVE",
"753 558 OFFCURVE",
"619 708 OFFCURVE",
"406 708 CURVE SMOOTH",
"192 708 OFFCURVE",
"59 558 OFFCURVE",
"55 349 CURVE",
"59 140 OFFCURVE",
"192 -10 OFFCURVE",
"406 -10 CURVE SMOOTH"
);
},
{
closed = 1;
nodes = (
"240 75 OFFCURVE",
"146 195 OFFCURVE",
"146 349 CURVE SMOOTH",
"146 503 OFFCURVE",
"240 623 OFFCURVE",
"406 623 CURVE SMOOTH",
"571 623 OFFCURVE",
"666 503 OFFCURVE",
"666 349 CURVE SMOOTH",
"666 195 OFFCURVE",
"571 75 OFFCURVE",
"406 75 CURVE SMOOTH"
);
}
);
};
layerId = "A99C00BB-606F-4263-964D-93C8B7F0BADD";
paths = (
{
closed = 1;
nodes = (
"619 -10 OFFCURVE",
"753 140 OFFCURVE",
"757 349 CURVE",
"753 558 OFFCURVE",
"619 708 OFFCURVE",
"406 708 CURVE SMOOTH",
"192 708 OFFCURVE",
"59 558 OFFCURVE",
"55 349 CURVE",
"59 140 OFFCURVE",
"192 -10 OFFCURVE",
"406 -10 CURVE SMOOTH"
);
},
{
closed = 1;
nodes = (
"240 75 OFFCURVE",
"146 195 OFFCURVE",
"146 349 CURVE SMOOTH",
"146 503 OFFCURVE",
"240 623 OFFCURVE",
"406 623 CURVE SMOOTH",
"571 623 OFFCURVE",
"666 503 OFFCURVE",
"666 349 CURVE SMOOTH",
"666 195 OFFCURVE",
"571 75 OFFCURVE",
"406 75 CURVE SMOOTH"
);
}
);
width = 812;
}
);
leftKerningGroup = O;
note = O;
rightKerningGroup = O;
unicode = 004F;
},
{
color = 3;
glyphname = Ohorn;
layers = (
{
anchors = (
{
name = bottom;
position = "{406, 0}";
},
{
name = top;
position = "{406, 698}";
}
);
background = {
paths = (
{
closed = 1;
nodes = (
"619 -10 OFFCURVE",
"753 140 OFFCURVE",
"757 349 CURVE",
"753 558 OFFCURVE",
"619 708 OFFCURVE",
"406 708 CURVE SMOOTH",
"192 708 OFFCURVE",
"59 558 OFFCURVE",
"55 349 CURVE",
"59 140 OFFCURVE",
"192 -10 OFFCURVE",
"406 -10 CURVE SMOOTH"
);
},
{
closed = 1;
nodes = (
"240 75 OFFCURVE",
"146 195 OFFCURVE",
"146 349 CURVE SMOOTH",
"146 503 OFFCURVE",
"240 623 OFFCURVE",
"406 623 CURVE SMOOTH",
"571 623 OFFCURVE",
"666 503 OFFCURVE",
"666 349 CURVE SMOOTH",
"666 195 OFFCURVE",
"571 75 OFFCURVE",
"406 75 CURVE SMOOTH"
);
},
{
closed = 1;
nodes = (
"696 626 OFFCURVE",
"738 687 OFFCURVE",
"738 753 CURVE SMOOTH",
"738 816 OFFCURVE",
"718 853 OFFCURVE",
"688 853 CURVE SMOOTH",
"670 853 OFFCURVE",
"655 839 OFFCURVE",
"655 820 CURVE SMOOTH",
"655 805 OFFCURVE",
"662 791 OFFCURVE",
"662 769 CURVE SMOOTH",
"662 724 OFFCURVE",
"637 698 OFFCURVE",
"586 698 CURVE SMOOTH",
"569 698 OFFCURVE",
"556 698 OFFCURVE",
"537 698 CURVE",
"537 634 LINE",
"564 628 OFFCURVE",
"580 626 OFFCURVE",
"596 626 CURVE SMOOTH"
);
}
);
};
layerId = "A99C00BB-606F-4263-964D-93C8B7F0BADD";
paths = (
{
closed = 1;
nodes = (
"619 -10 OFFCURVE",
"753 140 OFFCURVE",
"757 349 CURVE",
"755 468 OFFCURVE",
"711 567 OFFCURVE",
"634 631 CURVE",
"726 644 OFFCURVE",
"757 696 OFFCURVE",
"757 753 CURVE SMOOTH",
"757 816 OFFCURVE",
"737 853 OFFCURVE",
"707 853 CURVE SMOOTH",
"689 853 OFFCURVE",
"674 839 OFFCURVE",
"674 820 CURVE SMOOTH",
"674 805 OFFCURVE",
"681 791 OFFCURVE",
"681 769 CURVE SMOOTH",
"681 724 OFFCURVE",
"656 696 OFFCURVE",
"587 696 CURVE SMOOTH",
"506 696 OFFCURVE",
"476 708 OFFCURVE",
"414 708 CURVE SMOOTH",
"190 708 OFFCURVE",
"59 558 OFFCURVE",
"55 349 CURVE",
"59 140 OFFCURVE",
"192 -10 OFFCURVE",
"406 -10 CURVE SMOOTH"
);
},
{
closed = 1;
nodes = (
"240 75 OFFCURVE",
"146 195 OFFCURVE",
"146 349 CURVE SMOOTH",
"146 503 OFFCURVE",
"240 623 OFFCURVE",
"406 623 CURVE SMOOTH",
"571 623 OFFCURVE",
"666 503 OFFCURVE",
"666 349 CURVE SMOOTH",
"666 195 OFFCURVE",
"571 75 OFFCURVE",
"406 75 CURVE SMOOTH"
);
}
);
width = 811;
}
);
leftKerningGroup = O;
rightKerningGroup = O;
unicode = 01A0;
},
{
color = 3;
glyphname = Oogonek;
layers = (
{
anchors = (
{
name = top;
position = "{406, 698}";
}
);
background = {
paths = (
{
closed = 1;
nodes = (
"619 -10 OFFCURVE",
"753 140 OFFCURVE",
"757 349 CURVE",
"753 558 OFFCURVE",
"619 708 OFFCURVE",
"406 708 CURVE SMOOTH",
"192 708 OFFCURVE",
"59 558 OFFCURVE",
"55 349 CURVE",
"59 140 OFFCURVE",
"192 -10 OFFCURVE",
"406 -10 CURVE SMOOTH"
);
},
{
closed = 1;
nodes = (
"240 75 OFFCURVE",
"146 195 OFFCURVE",
"146 349 CURVE SMOOTH",
"146 503 OFFCURVE",
"240 623 OFFCURVE",
"406 623 CURVE SMOOTH",
"571 623 OFFCURVE",
"666 503 OFFCURVE",
"666 349 CURVE SMOOTH",
"666 195 OFFCURVE",
"571 75 OFFCURVE",
"406 75 CURVE SMOOTH"
);
},
{
closed = 1;
nodes = (
"476 -203 OFFCURVE",
"504 -194 OFFCURVE",
"525 -179 CURVE SMOOTH",
"532 -174 OFFCURVE",
"536 -168 OFFCURVE",
"536 -161 CURVE SMOOTH",
"536 -148 OFFCURVE",
"527 -139 OFFCURVE",
"514 -139 CURVE SMOOTH",
"511 -139 OFFCURVE",
"508 -140 OFFCURVE",
"505 -141 CURVE SMOOTH",
"495 -144 OFFCURVE",
"484 -147 OFFCURVE",
"470 -147 CURVE SMOOTH",
"434 -147 OFFCURVE",
"419 -129 OFFCURVE",
"419 -100 CURVE SMOOTH",
"419 -50 OFFCURVE",
"484 -12 OFFCURVE",
"531 10 CURVE",
"450 10 LINE",
"397 -17 OFFCURVE",
"346 -55 OFFCURVE",
"346 -119 CURVE SMOOTH",
"346 -172 OFFCURVE",
"391 -203 OFFCURVE",
"439 -203 CURVE SMOOTH"
);
}
);
};
layerId = "A99C00BB-606F-4263-964D-93C8B7F0BADD";
paths = (
{
closed = 1;
nodes = (
"476 -203 OFFCURVE",
"504 -194 OFFCURVE",
"525 -179 CURVE SMOOTH",
"532 -174 OFFCURVE",
"536 -168 OFFCURVE",
"536 -161 CURVE SMOOTH",
"536 -148 OFFCURVE",
"527 -139 OFFCURVE",
"514 -139 CURVE SMOOTH",
"511 -139 OFFCURVE",
"508 -140 OFFCURVE",
"505 -141 CURVE SMOOTH",
"495 -144 OFFCURVE",
"484 -147 OFFCURVE",
"470 -147 CURVE SMOOTH",
"434 -147 OFFCURVE",
"419 -129 OFFCURVE",
"419 -100 CURVE SMOOTH",
"419 -54 OFFCURVE",
"482 -11 OFFCURVE",
"532 9 CURVE SMOOTH",
"674 65 OFFCURVE",
"754 183 OFFCURVE",
"757 349 CURVE",
"753 558 OFFCURVE",
"619 708 OFFCURVE",
"406 708 CURVE SMOOTH",
"192 708 OFFCURVE",
"59 558 OFFCURVE",
"55 349 CURVE",
"59 140 OFFCURVE",
"192 -10 OFFCURVE",
"406 -10 CURVE SMOOTH",
"415 -10 LINE",
"377 -35 OFFCURVE",
"346 -69 OFFCURVE",
"346 -119 CURVE SMOOTH",
"346 -172 OFFCURVE",
"391 -203 OFFCURVE",
"439 -203 CURVE SMOOTH"
);
},
{
closed = 1;
nodes = (
"240 75 OFFCURVE",
"146 195 OFFCURVE",
"146 349 CURVE SMOOTH",
"146 503 OFFCURVE",
"240 623 OFFCURVE",
"406 623 CURVE SMOOTH",
"571 623 OFFCURVE",
"666 503 OFFCURVE",
"666 349 CURVE SMOOTH",
"666 195 OFFCURVE",
"571 75 OFFCURVE",
"406 75 CURVE SMOOTH"
);
}
);
width = 811;
}
);
leftKerningGroup = O;
rightKerningGroup = O;
unicode = 01EA;
},
{
glyphname = Oslash;
layers = (
{
anchors = (
{
name = bottom;
position = "{406, 0}";
},
{
name = top;
position = "{406, 698}";
}
);
layerId = "A99C00BB-606F-4263-964D-93C8B7F0BADD";
paths = (
{
closed = 1;
nodes = (
"166 -30 OFFCURVE",
"174 -27 OFFCURVE",
"179 -20 CURVE SMOOTH",
"219 37 LINE",
"271 7 OFFCURVE",
"334 -10 OFFCURVE",
"406 -10 CURVE SMOOTH",
"619 -10 OFFCURVE",
"753 140 OFFCURVE",
"757 349 CURVE",
"754 467 OFFCURVE",
"711 566 OFFCURVE",
"635 630 CURVE",
"674 686 LINE SMOOTH",
"678 692 OFFCURVE",
"680 697 OFFCURVE",
"680 703 CURVE SMOOTH",
"680 716 OFFCURVE",
"670 727 OFFCURVE",
"655 727 CURVE SMOOTH",
"647 727 OFFCURVE",
"639 724 OFFCURVE",
"634 717 CURVE SMOOTH",
"594 659 LINE",
"542 690 OFFCURVE",
"478 708 OFFCURVE",
"406 708 CURVE SMOOTH",
"192 708 OFFCURVE",
"59 558 OFFCURVE",
"55 349 CURVE",
"57 230 OFFCURVE",
"101 130 OFFCURVE",
"178 66 CURVE",
"139 11 LINE SMOOTH",
"135 5 OFFCURVE",
"133 0 OFFCURVE",
"133 -6 CURVE SMOOTH",
"133 -19 OFFCURVE",
"143 -30 OFFCURVE",
"158 -30 CURVE SMOOTH"
);
},
{
closed = 1;
nodes = (
"175 189 OFFCURVE",
"146 263 OFFCURVE",
"146 349 CURVE SMOOTH",
"146 503 OFFCURVE",
"240 623 OFFCURVE",
"406 623 CURVE SMOOTH",
"459 623 OFFCURVE",
"505 610 OFFCURVE",
"543 588 CURVE",
"229 139 LINE"
);
},
{
closed = 1;
nodes = (
"353 75 OFFCURVE",
"307 87 OFFCURVE",
"269 109 CURVE",
"584 558 LINE",
"637 508 OFFCURVE",
"666 433 OFFCURVE",
"666 349 CURVE SMOOTH",
"666 195 OFFCURVE",
"571 75 OFFCURVE",
"406 75 CURVE SMOOTH"
);
}
);
width = 812;
}
);
leftKerningGroup = O;
leftMetricsKey = O;
note = Oslash;
rightKerningGroup = O;
rightMetricsKey = O;
unicode = 00D8;
},
{
color = 3;
glyphname = OE;
layers = (
{
anchors = (
{
name = bottom;
position = "{604, 0}";
},
{
name = top;
position = "{604, 698}";
}
);
background = {
paths = (
{
closed = 1;
nodes = (
"619 -10 OFFCURVE",
"753 140 OFFCURVE",
"757 349 CURVE",
"753 558 OFFCURVE",
"619 708 OFFCURVE",
"406 708 CURVE SMOOTH",
"192 708 OFFCURVE",
"59 558 OFFCURVE",
"55 349 CURVE",
"59 140 OFFCURVE",
"192 -10 OFFCURVE",
"406 -10 CURVE SMOOTH"
);
},
{
closed = 1;
nodes = (
"240 75 OFFCURVE",
"146 195 OFFCURVE",
"146 349 CURVE SMOOTH",
"146 503 OFFCURVE",
"240 623 OFFCURVE",
"406 623 CURVE SMOOTH",
"571 623 OFFCURVE",
"666 503 OFFCURVE",
"666 349 CURVE SMOOTH",
"666 195 OFFCURVE",
"571 75 OFFCURVE",
"406 75 CURVE SMOOTH"
);
},
{
closed = 1;
nodes = (
"1112 0 LINE SMOOTH",
"1136 0 OFFCURVE",
"1155 18 OFFCURVE",
"1155 42 CURVE SMOOTH",
"1155 66 OFFCURVE",
"1136 85 OFFCURVE",
"1112 85 CURVE SMOOTH",
"757 85 LINE",
"757 307 LINE",
"1076 307 LINE SMOOTH",
"1100 307 OFFCURVE",
"1119 325 OFFCURVE",
"1119 349 CURVE SMOOTH",
"1119 373 OFFCURVE",
"1100 392 OFFCURVE",
"1076 392 CURVE SMOOTH",
"757 392 LINE",
"757 613 LINE",
"1112 613 LINE SMOOTH",
"1136 613 OFFCURVE",
"1155 631 OFFCURVE",
"1155 655 CURVE SMOOTH",
"1155 679 OFFCURVE",
"1136 698 OFFCURVE",
"1112 698 CURVE SMOOTH",
"711 698 LINE SMOOTH",
"686 698 OFFCURVE",
"666 677 OFFCURVE",
"666 652 CURVE SMOOTH",
"666 45 LINE SMOOTH",
"666 20 OFFCURVE",
"686 0 OFFCURVE",
"711 0 CURVE SMOOTH"
);
}
);
};
layerId = "A99C00BB-606F-4263-964D-93C8B7F0BADD";
paths = (
{
closed = 1;
nodes = (
"521 -10 OFFCURVE",
"610 38 OFFCURVE",
"666 119 CURVE",
"666 45 LINE SMOOTH",
"666 20 OFFCURVE",
"686 0 OFFCURVE",
"711 0 CURVE SMOOTH",
"1112 0 LINE SMOOTH",
"1136 0 OFFCURVE",
"1155 18 OFFCURVE",
"1155 42 CURVE SMOOTH",
"1155 66 OFFCURVE",
"1136 85 OFFCURVE",
"1112 85 CURVE SMOOTH",
"757 85 LINE",
"757 307 LINE",
"1076 307 LINE SMOOTH",
"1100 307 OFFCURVE",
"1119 325 OFFCURVE",
"1119 349 CURVE SMOOTH",
"1119 373 OFFCURVE",
"1100 392 OFFCURVE",
"1076 392 CURVE SMOOTH",
"757 392 LINE",
"757 613 LINE",
"1112 613 LINE SMOOTH",
"1136 613 OFFCURVE",
"1155 631 OFFCURVE",
"1155 655 CURVE SMOOTH",
"1155 679 OFFCURVE",
"1136 698 OFFCURVE",
"1112 698 CURVE SMOOTH",
"711 698 LINE SMOOTH",
"686 698 OFFCURVE",
"666 677 OFFCURVE",
"666 652 CURVE SMOOTH",
"666 579 LINE",
"610 660 OFFCURVE",
"521 708 OFFCURVE",
"406 708 CURVE SMOOTH",
"192 708 OFFCURVE",
"59 558 OFFCURVE",
"55 349 CURVE",
"59 140 OFFCURVE",
"192 -10 OFFCURVE",
"406 -10 CURVE SMOOTH"
);
},
{
closed = 1;
nodes = (
"240 75 OFFCURVE",
"146 195 OFFCURVE",
"146 349 CURVE SMOOTH",
"146 503 OFFCURVE",
"240 623 OFFCURVE",
"406 623 CURVE SMOOTH",
"571 623 OFFCURVE",
"666 503 OFFCURVE",
"666 349 CURVE SMOOTH",
"666 195 OFFCURVE",
"571 75 OFFCURVE",
"406 75 CURVE SMOOTH"
);
}
);
width = 1207;
}
);
leftKerningGroup = O;
leftMetricsKey = O;
rightKerningGroup = E;
rightMetricsKey = E;
unicode = 0152;
},
{
glyphname = P;
layers = (
{
anchors = (
{
name = bottom;
position = "{335, 0}";
},
{
name = top;
position = "{335, 698}";
}
);
layerId = "A99C00BB-606F-4263-964D-93C8B7F0BADD";
paths = (
{
closed = 1;
nodes = (
"167 -5 OFFCURVE",
"188 15 OFFCURVE",
"188 40 CURVE SMOOTH",
"188 254 LINE",
"370 254 LINE SMOOTH",
"572 254 OFFCURVE",
"637 370 OFFCURVE",
"637 476 CURVE SMOOTH",
"637 582 OFFCURVE",
"572 698 OFFCURVE",
"370 698 CURVE SMOOTH",
"142 698 LINE SMOOTH",
"117 698 OFFCURVE",
"97 677 OFFCURVE",
"97 652 CURVE SMOOTH",
"97 40 LINE SMOOTH",
"97 15 OFFCURVE",
"117 -5 OFFCURVE",
"142 -5 CURVE SMOOTH"
);
},
{
closed = 1;
nodes = (
"188 612 LINE",
"361 612 LINE SMOOTH",
"510 612 OFFCURVE",
"546 541 OFFCURVE",
"546 476 CURVE SMOOTH",
"546 411 OFFCURVE",
"510 340 OFFCURVE",
"361 340 CURVE SMOOTH",
"188 340 LINE"
);
}
);
width = 672;
}
);
leftKerningGroup = H;
leftMetricsKey = I;
note = P;
rightKerningGroup = P;
unicode = 0050;
},
{
glyphname = Thorn;
layers = (
{
anchors = (
{
name = bottom;
position = "{336, 0}";
},
{
name = top;
position = "{336, 698}";
}
);
layerId = "A99C00BB-606F-4263-964D-93C8B7F0BADD";
paths = (
{
closed = 1;
nodes = (
"167 -5 OFFCURVE",
"188 15 OFFCURVE",
"188 40 CURVE SMOOTH",
"188 142 LINE",
"370 142 LINE SMOOTH",
"572 142 OFFCURVE",
"637 258 OFFCURVE",
"637 364 CURVE SMOOTH",
"637 470 OFFCURVE",
"572 586 OFFCURVE",
"370 586 CURVE SMOOTH",
"188 586 LINE",
"188 657 LINE SMOOTH",
"188 682 OFFCURVE",
"167 703 OFFCURVE",
"142 703 CURVE SMOOTH",
"117 703 OFFCURVE",
"97 682 OFFCURVE",
"97 657 CURVE SMOOTH",
"97 40 LINE SMOOTH",
"97 15 OFFCURVE",
"117 -5 OFFCURVE",
"142 -5 CURVE SMOOTH"
);
},
{
closed = 1;
nodes = (
"188 500 LINE",
"361 500 LINE SMOOTH",
"510 500 OFFCURVE",
"546 429 OFFCURVE",
"546 364 CURVE SMOOTH",
"546 299 OFFCURVE",
"510 228 OFFCURVE",
"361 228 CURVE SMOOTH",
"188 228 LINE"
);
}
);
width = 672;
}
);
leftKerningGroup = H;
leftMetricsKey = I;
note = Thorn;
rightKerningGroup = Thorn;
unicode = 00DE;
},
{
glyphname = Q;
layers = (
{
anchors = (
{
name = bottom;
position = "{406, 0}";
},
{
name = top;
position = "{406, 698}";
}
);
layerId = "A99C00BB-606F-4263-964D-93C8B7F0BADD";
paths = (
{
closed = 1;
nodes = (
"631 -152 OFFCURVE",
"651 -132 OFFCURVE",
"650 -109 CURVE",
"650 -98 OFFCURVE",
"645 -87 OFFCURVE",
"638 -80 CURVE",
"550 17 LINE",
"678 70 OFFCURVE",
"754 193 OFFCURVE",
"757 349 CURVE",
"753 558 OFFCURVE",
"619 708 OFFCURVE",
"406 708 CURVE SMOOTH",
"192 708 OFFCURVE",
"59 558 OFFCURVE",
"55 349 CURVE",
"59 140 OFFCURVE",
"192 -10 OFFCURVE",
"406 -10 CURVE SMOOTH",
"427 -10 OFFCURVE",
"447 -9 OFFCURVE",
"466 -6 CURVE",
"575 -136 LINE SMOOTH",
"583 -146 OFFCURVE",
"594 -152 OFFCURVE",
"607 -152 CURVE SMOOTH"
);
},
{
closed = 1;
nodes = (
"240 75 OFFCURVE",
"146 195 OFFCURVE",
"146 349 CURVE SMOOTH",
"146 503 OFFCURVE",
"240 623 OFFCURVE",
"406 623 CURVE SMOOTH",
"571 623 OFFCURVE",
"666 503 OFFCURVE",
"666 349 CURVE SMOOTH",
"666 195 OFFCURVE",
"571 75 OFFCURVE",
"406 75 CURVE SMOOTH"
);
}
);
width = 812;
}
);
leftKerningGroup = O;
leftMetricsKey = O;
note = Q;
rightKerningGroup = O;
rightMetricsKey = O;
unicode = 0051;
},
{
glyphname = R;
layers = (
{
anchors = (
{
name = bottom;
position = "{356, 0}";
},
{
name = top;
position = "{356, 698}";
}
);
layerId = "A99C00BB-606F-4263-964D-93C8B7F0BADD";
paths = (
{
closed = 1;
nodes = (
"167 -5 OFFCURVE",
"188 15 OFFCURVE",
"188 40 CURVE SMOOTH",
"188 272 LINE",
"395 272 LINE SMOOTH",
"546 272 OFFCURVE",
"550 136 OFFCURVE",
"550 70 CURVE SMOOTH",
"550 40 LINE SMOOTH",
"550 13 OFFCURVE",
"568 -5 OFFCURVE",
"596 -5 CURVE SMOOTH",
"621 -5 OFFCURVE",
"641 15 OFFCURVE",
"641 40 CURVE SMOOTH",
"641 86 LINE SMOOTH",
"641 142 OFFCURVE",
"627 285 OFFCURVE",
"516 314 CURVE",
"604 344 OFFCURVE",
"647 418 OFFCURVE",
"647 495 CURVE SMOOTH",
"647 610 OFFCURVE",
"565 698 OFFCURVE",
"375 698 CURVE SMOOTH",
"142 698 LINE SMOOTH",
"117 698 OFFCURVE",
"97 677 OFFCURVE",
"97 652 CURVE SMOOTH",
"97 40 LINE SMOOTH",
"97 15 OFFCURVE",
"117 -5 OFFCURVE",
"142 -5 CURVE SMOOTH"
);
},
{
closed = 1;
nodes = (
"188 612 LINE",
"364 612 LINE SMOOTH",
"512 612 OFFCURVE",
"556 562 OFFCURVE",
"556 488 CURVE SMOOTH",
"556 403 OFFCURVE",
"481 358 OFFCURVE",
"369 358 CURVE SMOOTH",
"188 358 LINE"
);
}
);
width = 712;
}
);
leftKerningGroup = H;
leftMetricsKey = I;
note = R;
rightKerningGroup = R;
unicode = 0052;
},
{
glyphname = S;
layers = (
{
anchors = (
{
name = bottom;
position = "{308, 0}";
},
{
name = top;
position = "{308, 698}";
}
);
layerId = "A99C00BB-606F-4263-964D-93C8B7F0BADD";
paths = (
{
closed = 1;
nodes = (
"472 -10 OFFCURVE",
"573 72 OFFCURVE",
"573 185 CURVE SMOOTH",
"573 449 OFFCURVE",
"149 337 OFFCURVE",
"149 510 CURVE SMOOTH",
"149 585 OFFCURVE",
"226 624 OFFCURVE",
"327 624 CURVE SMOOTH",
"388 624 OFFCURVE",
"442 613 OFFCURVE",
"488 597 CURVE",
"493 595 OFFCURVE",
"499 593 OFFCURVE",
"504 593 CURVE SMOOTH",
"529 593 OFFCURVE",
"544 615 OFFCURVE",
"544 635 CURVE SMOOTH",
"544 659 OFFCURVE",
"530 670 OFFCURVE",
"516 675 CURVE SMOOTH",
"462 695 OFFCURVE",
"395 708 OFFCURVE",
"317 708 CURVE SMOOTH",
"148 708 OFFCURVE",
"58 614 OFFCURVE",
"58 503 CURVE SMOOTH",
"58 257 OFFCURVE",
"483 339 OFFCURVE",
"483 191 CURVE SMOOTH",
"483 104 OFFCURVE",
"407 76 OFFCURVE",
"308 76 CURVE SMOOTH",
"222 76 OFFCURVE",
"156 97 OFFCURVE",
"111 117 CURVE SMOOTH",
"104 120 OFFCURVE",
"98 121 OFFCURVE",
"92 121 CURVE SMOOTH",
"67 121 OFFCURVE",
"51 101 OFFCURVE",
"51 79 CURVE SMOOTH",
"51 61 OFFCURVE",
"64 44 OFFCURVE",
"79 38 CURVE SMOOTH",
"137 13 OFFCURVE",
"217 -10 OFFCURVE",
"317 -10 CURVE SMOOTH"
);
}
);
width = 616;
}
);
leftKerningGroup = S;
note = S;
rightKerningGroup = S;
unicode = 0053;
},
{
color = 3;
glyphname = Germandbls;
layers = (
{
background = {
paths = (
{
closed = 1;
nodes = (
"561 -10 OFFCURVE",
"636 79 OFFCURVE",
"636 206 CURVE SMOOTH",
"636 328 OFFCURVE",
"564 410 OFFCURVE",
"425 410 CURVE",
"429 375 LINE",
"552 510 LINE SMOOTH",
"615 580 OFFCURVE",
"589 698 OFFCURVE",
"463 698 CURVE SMOOTH",
"222 698 LINE SMOOTH",
"137 698 OFFCURVE",
"97 647 OFFCURVE",
"97 572 CURVE SMOOTH",
"97 40 LINE SMOOTH",
"97 15 OFFCURVE",
"117 -5 OFFCURVE",
"142 -5 CURVE SMOOTH",
"167 -5 OFFCURVE",
"188 15 OFFCURVE",
"188 40 CURVE SMOOTH",
"188 577 LINE SMOOTH",
"188 597 OFFCURVE",
"205 613 OFFCURVE",
"224 613 CURVE SMOOTH",
"439 613 LINE SMOOTH",
"483 613 OFFCURVE",
"495 577 OFFCURVE",
"460 538 CURVE SMOOTH",
"349 415 LINE SMOOTH",
"314 376 OFFCURVE",
"330 334 OFFCURVE",
"371 334 CURVE SMOOTH",
"486 334 OFFCURVE",
"548 299 OFFCURVE",
"548 210 CURVE SMOOTH",
"548 132 OFFCURVE",
"507 75 OFFCURVE",
"424 75 CURVE SMOOTH",
"363 75 OFFCURVE",
"334 88 OFFCURVE",
"300 107 CURVE SMOOTH",
"291 112 OFFCURVE",
"286 113 OFFCURVE",
"278 113 CURVE SMOOTH",
"257 113 OFFCURVE",
"240 92 OFFCURVE",
"240 73 CURVE SMOOTH",
"240 58 OFFCURVE",
"248 46 OFFCURVE",
"260 38 CURVE SMOOTH",
"294 16 OFFCURVE",
"344 -10 OFFCURVE",
"424 -10 CURVE SMOOTH"
);
}
);
};
layerId = "A99C00BB-606F-4263-964D-93C8B7F0BADD";
paths = (
{
closed = 1;
nodes = (
"561 -10 OFFCURVE",
"636 79 OFFCURVE",
"636 206 CURVE SMOOTH",
"636 328 OFFCURVE",
"564 410 OFFCURVE",
"425 410 CURVE",
"429 375 LINE",
"552 510 LINE SMOOTH",
"574 534 OFFCURVE",
"585 564 OFFCURVE",
"585 593 CURVE SMOOTH",
"585 648 OFFCURVE",
"545 698 OFFCURVE",
"463 698 CURVE SMOOTH",
"222 698 LINE SMOOTH",
"137 698 OFFCURVE",
"97 647 OFFCURVE",
"97 572 CURVE SMOOTH",
"97 40 LINE SMOOTH",
"97 15 OFFCURVE",
"117 -5 OFFCURVE",
"142 -5 CURVE SMOOTH",
"167 -5 OFFCURVE",
"188 15 OFFCURVE",
"188 40 CURVE SMOOTH",
"188 577 LINE SMOOTH",
"188 597 OFFCURVE",
"205 613 OFFCURVE",
"224 613 CURVE SMOOTH",
"439 613 LINE SMOOTH",
"466 613 OFFCURVE",
"480 600 OFFCURVE",
"480 581 CURVE SMOOTH",
"480 569 OFFCURVE",
"474 554 OFFCURVE",
"460 538 CURVE SMOOTH",
"349 415 LINE SMOOTH",
"336 400 OFFCURVE",
"330 385 OFFCURVE",
"330 372 CURVE SMOOTH",
"330 350 OFFCURVE",
"346 334 OFFCURVE",
"371 334 CURVE SMOOTH",
"486 334 OFFCURVE",
"548 299 OFFCURVE",
"548 210 CURVE SMOOTH",
"548 132 OFFCURVE",
"507 75 OFFCURVE",
"424 75 CURVE SMOOTH",
"363 75 OFFCURVE",
"334 88 OFFCURVE",
"300 107 CURVE SMOOTH",
"291 112 OFFCURVE",
"286 113 OFFCURVE",
"278 113 CURVE SMOOTH",
"257 113 OFFCURVE",
"240 92 OFFCURVE",
"240 73 CURVE SMOOTH",
"240 58 OFFCURVE",
"248 46 OFFCURVE",
"260 38 CURVE SMOOTH",
"294 16 OFFCURVE",
"344 -10 OFFCURVE",
"424 -10 CURVE SMOOTH"
);
}
);
width = 688;
}
);
leftKerningGroup = H;
leftMetricsKey = I;
rightKerningGroup = B;
rightMetricsKey = B;
unicode = 1E9E;
},
{
color = 3;
glyphname = Schwa;
layers = (
{
background = {
paths = (
{
closed = 1;
nodes = (
"288 708 OFFCURVE",
"221 680 OFFCURVE",
"158 646 CURVE SMOOTH",
"145 639 OFFCURVE",
"137 629 OFFCURVE",
"136 610 CURVE SMOOTH",
"135 589 OFFCURVE",
"151 570 OFFCURVE",
"176 570 CURVE SMOOTH",
"181 570 OFFCURVE",
"188 571 OFFCURVE",
"194 574 CURVE SMOOTH",
"248 601 OFFCURVE",
"299 621 OFFCURVE",
"377 621 CURVE SMOOTH",
"554 621 OFFCURVE",
"645 503 OFFCURVE",
"645 349 CURVE SMOOTH",
"645 195 OFFCURVE",
"554 77 OFFCURVE",
"377 77 CURVE SMOOTH",
"299 77 OFFCURVE",
"248 97 OFFCURVE",
"194 124 CURVE SMOOTH",
"188 127 OFFCURVE",
"181 128 OFFCURVE",
"176 128 CURVE SMOOTH",
"151 128 OFFCURVE",
"135 109 OFFCURVE",
"136 88 CURVE SMOOTH",
"137 69 OFFCURVE",
"145 59 OFFCURVE",
"158 52 CURVE SMOOTH",
"221 18 OFFCURVE",
"288 -10 OFFCURVE",
"386 -10 CURVE SMOOTH",
"585 -10 OFFCURVE",
"736 126 OFFCURVE",
"736 349 CURVE SMOOTH",
"736 572 OFFCURVE",
"585 708 OFFCURVE",
"386 708 CURVE SMOOTH"
);
},
{
closed = 1;
nodes = (
"1399 -10 OFFCURVE",
"1533 140 OFFCURVE",
"1537 349 CURVE",
"1533 558 OFFCURVE",
"1399 708 OFFCURVE",
"1186 708 CURVE SMOOTH",
"972 708 OFFCURVE",
"839 558 OFFCURVE",
"835 349 CURVE",
"839 140 OFFCURVE",
"972 -10 OFFCURVE",
"1186 -10 CURVE SMOOTH"
);
},
{
closed = 1;
nodes = (
"1020 75 OFFCURVE",
"926 195 OFFCURVE",
"926 349 CURVE SMOOTH",
"926 503 OFFCURVE",
"1020 623 OFFCURVE",
"1186 623 CURVE SMOOTH",
"1351 623 OFFCURVE",
"1446 503 OFFCURVE",
"1446 349 CURVE SMOOTH",
"1446 195 OFFCURVE",
"1351 75 OFFCURVE",
"1186 75 CURVE SMOOTH"
);
}
);
};
layerId = "A99C00BB-606F-4263-964D-93C8B7F0BADD";
paths = (
{
closed = 1;
nodes = (
"599 -10 OFFCURVE",
"733 140 OFFCURVE",
"737 349 CURVE SMOOTH",
"737 572 OFFCURVE",
"586 708 OFFCURVE",
"384 708 CURVE SMOOTH",
"279 708 OFFCURVE",
"202 682 OFFCURVE",
"139 646 CURVE SMOOTH",
"126 639 OFFCURVE",
"118 629 OFFCURVE",
"117 610 CURVE SMOOTH",
"116 589 OFFCURVE",
"132 570 OFFCURVE",
"157 570 CURVE SMOOTH",
"162 570 OFFCURVE",
"169 571 OFFCURVE",
"175 574 CURVE SMOOTH",
"229 603 OFFCURVE",
"290 621 OFFCURVE",
"376 621 CURVE SMOOTH",
"555 621 OFFCURVE",
"646 503 OFFCURVE",
"646 349 CURVE SMOOTH",
"646 195 OFFCURVE",
"551 75 OFFCURVE",
"396 75 CURVE SMOOTH",
"256 75 OFFCURVE",
"166 172 OFFCURVE",
"158 309 CURVE",
"675 309 LINE",
"675 391 LINE",
"102 391 LINE SMOOTH",
"77 391 OFFCURVE",
"55 370 OFFCURVE",
"55 339 CURVE SMOOTH",
"55 132 OFFCURVE",
"192 -10 OFFCURVE",
"396 -10 CURVE SMOOTH"
);
}
);
width = 792;
}
);
leftKerningGroup = O;
leftMetricsKey = O;
rightKerningGroup = O;
rightMetricsKey = O;
unicode = 018F;
},
{
glyphname = T;
layers = (
{
anchors = (
{
name = bottom;
position = "{305, 0}";
},
{
name = center;
position = "{305, 349}";
},
{
name = top;
position = "{305, 698}";
}
);
layerId = "A99C00BB-606F-4263-964D-93C8B7F0BADD";
paths = (
{
closed = 1;
nodes = (
"329 -5 OFFCURVE",
"350 15 OFFCURVE",
"350 40 CURVE SMOOTH",
"350 613 LINE",
"553 613 LINE SMOOTH",
"577 613 OFFCURVE",
"596 631 OFFCURVE",
"596 655 CURVE SMOOTH",
"596 679 OFFCURVE",
"577 698 OFFCURVE",
"553 698 CURVE SMOOTH",
"55 698 LINE SMOOTH",
"31 698 OFFCURVE",
"13 679 OFFCURVE",
"13 655 CURVE SMOOTH",
"13 631 OFFCURVE",
"31 613 OFFCURVE",
"55 613 CURVE SMOOTH",
"259 613 LINE",
"259 40 LINE SMOOTH",
"259 15 OFFCURVE",
"279 -5 OFFCURVE",
"304 -5 CURVE SMOOTH"
);
}
);
width = 609;
}
);
leftKerningGroup = T;
note = T;
rightKerningGroup = T;
unicode = 0054;
},
{
color = 3;
glyphname = Tbar;
layers = (
{
background = {
paths = (
{
closed = 1;
nodes = (
"464 313 LINE SMOOTH",
"483 313 OFFCURVE",
"500 327 OFFCURVE",
"500 348 CURVE SMOOTH",
"500 369 OFFCURVE",
"483 384 OFFCURVE",
"464 384 CURVE SMOOTH",
"144 384 LINE SMOOTH",
"125 384 OFFCURVE",
"109 369 OFFCURVE",
"109 348 CURVE SMOOTH",
"109 327 OFFCURVE",
"125 313 OFFCURVE",
"144 313 CURVE SMOOTH"
);
},
{
closed = 1;
nodes = (
"329 -5 OFFCURVE",
"350 15 OFFCURVE",
"350 40 CURVE SMOOTH",
"350 613 LINE",
"553 613 LINE SMOOTH",
"577 613 OFFCURVE",
"596 631 OFFCURVE",
"596 655 CURVE SMOOTH",
"596 679 OFFCURVE",
"577 698 OFFCURVE",
"553 698 CURVE SMOOTH",
"55 698 LINE SMOOTH",
"31 698 OFFCURVE",
"13 679 OFFCURVE",
"13 655 CURVE SMOOTH",
"13 631 OFFCURVE",
"31 613 OFFCURVE",
"55 613 CURVE SMOOTH",
"259 613 LINE",
"259 40 LINE SMOOTH",
"259 15 OFFCURVE",
"279 -5 OFFCURVE",
"304 -5 CURVE SMOOTH"
);
}
);
};
layerId = "A99C00BB-606F-4263-964D-93C8B7F0BADD";
paths = (
{
closed = 1;
nodes = (
"329 -5 OFFCURVE",
"350 15 OFFCURVE",
"350 40 CURVE SMOOTH",
"350 313 LINE",
"464 313 LINE SMOOTH",
"483 313 OFFCURVE",
"500 327 OFFCURVE",
"500 348 CURVE SMOOTH",
"500 369 OFFCURVE",
"483 384 OFFCURVE",
"464 384 CURVE SMOOTH",
"350 384 LINE",
"350 613 LINE",
"553 613 LINE SMOOTH",
"577 613 OFFCURVE",
"596 631 OFFCURVE",
"596 655 CURVE SMOOTH",
"596 679 OFFCURVE",
"577 698 OFFCURVE",
"553 698 CURVE SMOOTH",
"55 698 LINE SMOOTH",
"31 698 OFFCURVE",
"13 679 OFFCURVE",
"13 655 CURVE SMOOTH",
"13 631 OFFCURVE",
"31 613 OFFCURVE",
"55 613 CURVE SMOOTH",
"259 613 LINE",
"259 384 LINE",
"144 384 LINE SMOOTH",
"125 384 OFFCURVE",
"109 369 OFFCURVE",
"109 348 CURVE SMOOTH",
"109 327 OFFCURVE",
"125 313 OFFCURVE",
"144 313 CURVE SMOOTH",
"259 313 LINE",
"259 40 LINE SMOOTH",
"259 15 OFFCURVE",
"279 -5 OFFCURVE",
"304 -5 CURVE SMOOTH"
);
}
);
width = 609;
}
);
leftKerningGroup = T;
leftMetricsKey = T;
rightKerningGroup = T;
rightMetricsKey = T;
unicode = 0166;
},
{
color = 10;
glyphname = Tcommaaccent;
layers = (
{
background = {
paths = (
{
closed = 1;
nodes = (
"329 -5 OFFCURVE",
"350 15 OFFCURVE",
"350 40 CURVE SMOOTH",
"350 613 LINE",
"553 613 LINE SMOOTH",
"577 613 OFFCURVE",
"596 631 OFFCURVE",
"596 655 CURVE SMOOTH",
"596 679 OFFCURVE",
"577 698 OFFCURVE",
"553 698 CURVE SMOOTH",
"55 698 LINE SMOOTH",
"31 698 OFFCURVE",
"13 679 OFFCURVE",
"13 655 CURVE SMOOTH",
"13 631 OFFCURVE",
"31 613 OFFCURVE",
"55 613 CURVE SMOOTH",
"259 613 LINE",
"259 40 LINE SMOOTH",
"259 15 OFFCURVE",
"279 -5 OFFCURVE",
"304 -5 CURVE SMOOTH"
);
},
{
closed = 1;
nodes = (
"276 -286 OFFCURVE",
"283 -283 OFFCURVE",
"285 -281 CURVE",
"320 -260 OFFCURVE",
"359 -222 OFFCURVE",
"359 -150 CURVE SMOOTH",
"359 -103 LINE",
"359 -98 LINE SMOOTH",
"359 -70 OFFCURVE",
"336 -47 OFFCURVE",
"309 -47 CURVE SMOOTH",
"300 -47 LINE SMOOTH",
"272 -47 OFFCURVE",
"249 -70 OFFCURVE",
"249 -98 CURVE SMOOTH",
"249 -103 LINE SMOOTH",
"249 -131 OFFCURVE",
"272 -153 OFFCURVE",
"300 -153 CURVE SMOOTH",
"303 -153 LINE",
"303 -202 OFFCURVE",
"284 -221 OFFCURVE",
"258 -236 CURVE",
"249 -242 OFFCURVE",
"244 -249 OFFCURVE",
"244 -259 CURVE SMOOTH",
"244 -273 OFFCURVE",
"255 -286 OFFCURVE",
"270 -286 CURVE SMOOTH"
);
}
);
};
components = (
{
name = T;
},
{
name = commaaccentcomb;
transform = "{1, 0, 0, 1, 105, 0}";
}
);
layerId = "A99C00BB-606F-4263-964D-93C8B7F0BADD";
width = 609;
}
);
leftKerningGroup = T;
note = uni021A;
rightKerningGroup = T;
unicode = 021A;
},
{
glyphname = U;
layers = (
{
anchors = (
{
name = bottom;
position = "{379, 0}";
},
{
name = ogonek;
position = "{490, 10}";
},
{
name = top;
position = "{379, 698}";
},
{
name = topright;
position = "{620, 698}";
}
);
layerId = "A99C00BB-606F-4263-964D-93C8B7F0BADD";
paths = (
{
closed = 1;
nodes = (
"513 -10 OFFCURVE",
"666 74 OFFCURVE",
"666 262 CURVE SMOOTH",
"666 657 LINE SMOOTH",
"666 682 OFFCURVE",
"645 703 OFFCURVE",
"620 703 CURVE SMOOTH",
"595 703 OFFCURVE",
"575 682 OFFCURVE",
"575 657 CURVE SMOOTH",
"575 259 LINE SMOOTH",
"575 134 OFFCURVE",
"477 73 OFFCURVE",
"379 73 CURVE SMOOTH",
"281 73 OFFCURVE",
"183 134 OFFCURVE",
"183 259 CURVE SMOOTH",
"183 657 LINE SMOOTH",
"183 682 OFFCURVE",
"162 703 OFFCURVE",
"137 703 CURVE SMOOTH",
"112 703 OFFCURVE",
"92 682 OFFCURVE",
"92 657 CURVE SMOOTH",
"92 262 LINE SMOOTH",
"92 74 OFFCURVE",
"245 -10 OFFCURVE",
"379 -10 CURVE SMOOTH"
);
}
);
width = 758;
}
);
leftKerningGroup = U;
leftMetricsKey = "=I-5";
note = U;
rightKerningGroup = U;
rightMetricsKey = "=I-5";
unicode = 0055;
},
{
color = 3;
glyphname = Uhorn;
layers = (
{
anchors = (
{
name = bottom;
position = "{379, 0}";
},
{
name = top;
position = "{379, 698}";
}
);
background = {
paths = (
{
closed = 1;
nodes = (
"513 -10 OFFCURVE",
"666 74 OFFCURVE",
"666 262 CURVE SMOOTH",
"666 657 LINE",
"620 703 LINE",
"595 703 OFFCURVE",
"575 682 OFFCURVE",
"575 657 CURVE SMOOTH",
"575 259 LINE SMOOTH",
"575 134 OFFCURVE",
"477 73 OFFCURVE",
"379 73 CURVE SMOOTH",
"281 73 OFFCURVE",
"183 134 OFFCURVE",
"183 259 CURVE SMOOTH",
"183 657 LINE SMOOTH",
"183 682 OFFCURVE",
"162 703 OFFCURVE",
"137 703 CURVE SMOOTH",
"112 703 OFFCURVE",
"92 682 OFFCURVE",
"92 657 CURVE SMOOTH",
"92 262 LINE SMOOTH",
"92 74 OFFCURVE",
"245 -10 OFFCURVE",
"379 -10 CURVE SMOOTH"
);
},
{
closed = 1;
nodes = (
"776 626 OFFCURVE",
"819 687 OFFCURVE",
"819 753 CURVE SMOOTH",
"819 816 OFFCURVE",
"799 853 OFFCURVE",
"769 853 CURVE SMOOTH",
"751 853 OFFCURVE",
"736 839 OFFCURVE",
"736 820 CURVE SMOOTH",
"736 805 OFFCURVE",
"743 791 OFFCURVE",
"743 769 CURVE SMOOTH",
"743 724 OFFCURVE",
"718 698 OFFCURVE",
"676 698 CURVE SMOOTH",
"652 698 OFFCURVE",
"639 703 OFFCURVE",
"620 703 CURVE",
"620 634 LINE",
"647 628 OFFCURVE",
"662 626 OFFCURVE",
"678 626 CURVE SMOOTH"
);
}
);
};
layerId = "A99C00BB-606F-4263-964D-93C8B7F0BADD";
paths = (
{
closed = 1;
nodes = (
"513 -10 OFFCURVE",
"666 74 OFFCURVE",
"666 262 CURVE SMOOTH",
"666 626 LINE",
"678 626 LINE SMOOTH",
"776 626 OFFCURVE",
"819 687 OFFCURVE",
"819 753 CURVE SMOOTH",
"819 816 OFFCURVE",
"799 853 OFFCURVE",
"769 853 CURVE SMOOTH",
"751 853 OFFCURVE",
"736 839 OFFCURVE",
"736 820 CURVE SMOOTH",
"736 805 OFFCURVE",
"743 791 OFFCURVE",
"743 769 CURVE SMOOTH",
"743 724 OFFCURVE",
"718 698 OFFCURVE",
"676 698 CURVE SMOOTH",
"652 698 OFFCURVE",
"639 703 OFFCURVE",
"620 703 CURVE SMOOTH",
"595 703 OFFCURVE",
"575 682 OFFCURVE",
"575 657 CURVE SMOOTH",
"575 259 LINE SMOOTH",
"575 134 OFFCURVE",
"477 73 OFFCURVE",
"379 73 CURVE SMOOTH",
"281 73 OFFCURVE",
"183 134 OFFCURVE",
"183 259 CURVE SMOOTH",
"183 657 LINE SMOOTH",
"183 682 OFFCURVE",
"162 703 OFFCURVE",
"137 703 CURVE SMOOTH",
"112 703 OFFCURVE",
"92 682 OFFCURVE",
"92 657 CURVE SMOOTH",
"92 262 LINE SMOOTH",
"92 74 OFFCURVE",
"245 -10 OFFCURVE",
"379 -10 CURVE SMOOTH"
);
}
);
width = 763;
}
);
leftKerningGroup = U;
leftMetricsKey = U;
widthMetricsKey = "=U+5";
rightKerningGroup = Uhorn;
unicode = 01AF;
},
{
color = 3;
glyphname = Uogonek;
layers = (
{
background = {
paths = (
{
closed = 1;
nodes = (
"513 -10 OFFCURVE",
"666 74 OFFCURVE",
"666 262 CURVE SMOOTH",
"666 657 LINE SMOOTH",
"666 682 OFFCURVE",
"645 703 OFFCURVE",
"620 703 CURVE SMOOTH",
"595 703 OFFCURVE",
"575 682 OFFCURVE",
"575 657 CURVE SMOOTH",
"575 259 LINE SMOOTH",
"575 134 OFFCURVE",
"477 73 OFFCURVE",
"379 73 CURVE SMOOTH",
"281 73 OFFCURVE",
"183 134 OFFCURVE",
"183 259 CURVE SMOOTH",
"183 657 LINE SMOOTH",
"183 682 OFFCURVE",
"162 703 OFFCURVE",
"137 703 CURVE SMOOTH",
"112 703 OFFCURVE",
"92 682 OFFCURVE",
"92 657 CURVE SMOOTH",
"92 262 LINE SMOOTH",
"92 74 OFFCURVE",
"245 -10 OFFCURVE",
"379 -10 CURVE SMOOTH"
);
},
{
closed = 1;
nodes = (
"435 -203 OFFCURVE",
"463 -194 OFFCURVE",
"484 -179 CURVE SMOOTH",
"491 -174 OFFCURVE",
"495 -168 OFFCURVE",
"495 -161 CURVE SMOOTH",
"495 -148 OFFCURVE",
"486 -139 OFFCURVE",
"473 -139 CURVE SMOOTH",
"470 -139 OFFCURVE",
"467 -140 OFFCURVE",
"464 -141 CURVE SMOOTH",
"454 -144 OFFCURVE",
"443 -147 OFFCURVE",
"429 -147 CURVE SMOOTH",
"393 -147 OFFCURVE",
"379 -129 OFFCURVE",
"378 -100 CURVE SMOOTH",
"377 -50 OFFCURVE",
"443 -12 OFFCURVE",
"490 10 CURVE",
"409 10 LINE",
"356 -17 OFFCURVE",
"305 -55 OFFCURVE",
"305 -119 CURVE SMOOTH",
"305 -172 OFFCURVE",
"350 -203 OFFCURVE",
"398 -203 CURVE SMOOTH"
);
}
);
};
layerId = "A99C00BB-606F-4263-964D-93C8B7F0BADD";
paths = (
{
closed = 1;
nodes = (
"435 -203 OFFCURVE",
"463 -194 OFFCURVE",
"484 -179 CURVE SMOOTH",
"491 -174 OFFCURVE",
"495 -168 OFFCURVE",
"495 -161 CURVE SMOOTH",
"495 -148 OFFCURVE",
"486 -139 OFFCURVE",
"473 -139 CURVE SMOOTH",
"470 -139 OFFCURVE",
"467 -140 OFFCURVE",
"464 -141 CURVE SMOOTH",
"454 -144 OFFCURVE",
"443 -147 OFFCURVE",
"429 -147 CURVE SMOOTH",
"393 -147 OFFCURVE",
"379 -129 OFFCURVE",
"378 -100 CURVE SMOOTH",
"377 -54 OFFCURVE",
"442 -8 OFFCURVE",
"494 11 CURVE SMOOTH",
"588 46 OFFCURVE",
"666 128 OFFCURVE",
"666 262 CURVE SMOOTH",
"666 657 LINE SMOOTH",
"666 682 OFFCURVE",
"645 703 OFFCURVE",
"620 703 CURVE SMOOTH",
"595 703 OFFCURVE",
"575 682 OFFCURVE",
"575 657 CURVE SMOOTH",
"575 259 LINE SMOOTH",
"575 134 OFFCURVE",
"477 73 OFFCURVE",
"379 73 CURVE SMOOTH",
"281 73 OFFCURVE",
"183 134 OFFCURVE",
"183 259 CURVE SMOOTH",
"183 657 LINE SMOOTH",
"183 682 OFFCURVE",
"162 703 OFFCURVE",
"137 703 CURVE SMOOTH",
"112 703 OFFCURVE",
"92 682 OFFCURVE",
"92 657 CURVE SMOOTH",
"92 262 LINE SMOOTH",
"92 76 OFFCURVE",
"241 -8 OFFCURVE",
"374 -10 CURVE",
"336 -35 OFFCURVE",
"305 -69 OFFCURVE",
"305 -119 CURVE SMOOTH",
"305 -172 OFFCURVE",
"350 -203 OFFCURVE",
"398 -203 CURVE SMOOTH"
);
}
);
width = 758;
}
);
leftKerningGroup = U;
rightKerningGroup = U;
unicode = 0172;
},
{
glyphname = V;
layers = (
{
anchors = (
{
name = bottom;
position = "{347, 0}";
},
{
name = top;
position = "{347, 698}";
}
);
layerId = "A99C00BB-606F-4263-964D-93C8B7F0BADD";
paths = (
{
closed = 1;
nodes = (
"358 -5 LINE SMOOTH",
"386 -5 OFFCURVE",
"407 12 OFFCURVE",
"420 41 CURVE SMOOTH",
"667 640 LINE SMOOTH",
"669 645 OFFCURVE",
"670 652 OFFCURVE",
"670 657 CURVE SMOOTH",
"670 684 OFFCURVE",
"653 703 OFFCURVE",
"625 703 CURVE SMOOTH",
"607 703 OFFCURVE",
"590 691 OFFCURVE",
"582 672 CURVE SMOOTH",
"347 86 LINE",
"112 672 LINE SMOOTH",
"104 691 OFFCURVE",
"87 703 OFFCURVE",
"69 703 CURVE SMOOTH",
"41 703 OFFCURVE",
"24 684 OFFCURVE",
"24 657 CURVE SMOOTH",
"24 652 OFFCURVE",
"25 645 OFFCURVE",
"27 640 CURVE SMOOTH",
"274 41 LINE SMOOTH",
"287 12 OFFCURVE",
"308 -5 OFFCURVE",
"336 -5 CURVE SMOOTH"
);
}
);
width = 694;
}
);
leftKerningGroup = V;
note = V;
rightKerningGroup = V;
unicode = 0056;
},
{
glyphname = W;
layers = (
{
anchors = (
{
name = bottom;
position = "{506, 0}";
},
{
name = top;
position = "{506, 698}";
}
);
layerId = "A99C00BB-606F-4263-964D-93C8B7F0BADD";
paths = (
{
closed = 1;
nodes = (
"313 -5 OFFCURVE",
"337 14 OFFCURVE",
"345 40 CURVE SMOOTH",
"506 550 LINE",
"667 40 LINE SMOOTH",
"675 14 OFFCURVE",
"699 -5 OFFCURVE",
"726 -5 CURVE SMOOTH",
"751 -5 OFFCURVE",
"774 9 OFFCURVE",
"785 40 CURVE SMOOTH",
"981 642 LINE",
"983 649 OFFCURVE",
"984 654 OFFCURVE",
"984 659 CURVE",
"986 684 OFFCURVE",
"966 703 OFFCURVE",
"940 703 CURVE SMOOTH",
"918 703 OFFCURVE",
"901 688 OFFCURVE",
"895 667 CURVE SMOOTH",
"727 115 LINE",
"558 665 LINE SMOOTH",
"551 687 OFFCURVE",
"530 703 OFFCURVE",
"506 703 CURVE SMOOTH",
"482 703 OFFCURVE",
"461 687 OFFCURVE",
"454 665 CURVE SMOOTH",
"285 115 LINE",
"117 667 LINE SMOOTH",
"111 688 OFFCURVE",
"94 703 OFFCURVE",
"72 703 CURVE SMOOTH",
"46 703 OFFCURVE",
"26 684 OFFCURVE",
"28 659 CURVE",
"28 654 OFFCURVE",
"29 649 OFFCURVE",
"31 642 CURVE",
"227 40 LINE SMOOTH",
"238 9 OFFCURVE",
"261 -5 OFFCURVE",
"286 -5 CURVE SMOOTH"
);
}
);
width = 1011;
}
);
leftKerningGroup = W;
note = W;
rightKerningGroup = W;
unicode = 0057;
},
{
glyphname = X;
layers = (
{
anchors = (
{
name = bottom;
position = "{336, 0}";
},
{
name = top;
position = "{336, 698}";
}
);
layerId = "A99C00BB-606F-4263-964D-93C8B7F0BADD";
paths = (
{
closed = 1;
nodes = (
"101 -5 OFFCURVE",
"112 2 OFFCURVE",
"121 13 CURVE SMOOTH",
"332 283 LINE",
"546 14 LINE",
"554 3 OFFCURVE",
"567 -5 OFFCURVE",
"582 -5 CURVE SMOOTH",
"610 -5 OFFCURVE",
"627 16 OFFCURVE",
"627 40 CURVE SMOOTH",
"627 50 OFFCURVE",
"624 59 OFFCURVE",
"618 66 CURVE SMOOTH",
"387 350 LINE",
"618 635 LINE",
"623 642 OFFCURVE",
"626 651 OFFCURVE",
"626 660 CURVE SMOOTH",
"626 684 OFFCURVE",
"606 703 OFFCURVE",
"582 703 CURVE SMOOTH",
"568 703 OFFCURVE",
"556 697 OFFCURVE",
"549 687 CURVE",
"338 417 LINE",
"127 685 LINE",
"119 696 OFFCURVE",
"105 703 OFFCURVE",
"90 703 CURVE SMOOTH",
"65 703 OFFCURVE",
"46 684 OFFCURVE",
"46 659 CURVE SMOOTH",
"46 648 OFFCURVE",
"49 639 OFFCURVE",
"55 631 CURVE",
"284 349 LINE",
"53 65 LINE",
"47 57 OFFCURVE",
"44 47 OFFCURVE",
"44 37 CURVE SMOOTH",
"44 14 OFFCURVE",
"63 -5 OFFCURVE",
"86 -5 CURVE SMOOTH"
);
}
);
width = 671;
}
);
leftKerningGroup = X;
note = X;
rightKerningGroup = X;
unicode = 0058;
},
{
glyphname = Y;
layers = (
{
anchors = (
{
name = bottom;
position = "{320, 0}";
},
{
name = top;
position = "{320, 698}";
},
{
name = topleft;
position = "{17, 698}";
}
);
layerId = "A99C00BB-606F-4263-964D-93C8B7F0BADD";
paths = (
{
closed = 1;
nodes = (
"345 -5 OFFCURVE",
"365 15 OFFCURVE",
"365 40 CURVE SMOOTH",
"365 295 LINE",
"605 630 LINE",
"610 638 OFFCURVE",
"613 647 OFFCURVE",
"613 657 CURVE",
"614 682 OFFCURVE",
"595 703 OFFCURVE",
"569 703 CURVE SMOOTH",
"552 703 OFFCURVE",
"539 695 OFFCURVE",
"529 680 CURVE SMOOTH",
"320 376 LINE",
"111 680 LINE SMOOTH",
"101 695 OFFCURVE",
"88 703 OFFCURVE",
"71 703 CURVE SMOOTH",
"45 703 OFFCURVE",
"27 682 OFFCURVE",
"27 657 CURVE",
"27 647 OFFCURVE",
"30 638 OFFCURVE",
"35 630 CURVE",
"274 295 LINE",
"274 40 LINE SMOOTH",
"274 15 OFFCURVE",
"295 -5 OFFCURVE",
"320 -5 CURVE SMOOTH"
);
}
);
width = 639;
}
);
leftKerningGroup = Y;
note = Y;
rightKerningGroup = Y;
unicode = 0059;
},
{
glyphname = Z;
layers = (
{
anchors = (
{
name = bottom;
position = "{319, 0}";
},
{
name = top;
position = "{319, 698}";
}
);
layerId = "A99C00BB-606F-4263-964D-93C8B7F0BADD";
paths = (
{
closed = 1;
nodes = (
"550 0 LINE SMOOTH",
"574 0 OFFCURVE",
"593 18 OFFCURVE",
"593 42 CURVE SMOOTH",
"593 66 OFFCURVE",
"574 85 OFFCURVE",
"550 85 CURVE SMOOTH",
"158 85 LINE",
"571 596 LINE",
"581 607 OFFCURVE",
"587 623 OFFCURVE",
"587 636 CURVE SMOOTH",
"587 669 OFFCURVE",
"564 698 OFFCURVE",
"526 698 CURVE SMOOTH",
"92 698 LINE SMOOTH",
"68 698 OFFCURVE",
"49 678 OFFCURVE",
"49 654 CURVE SMOOTH",
"49 630 OFFCURVE",
"68 611 OFFCURVE",
"92 611 CURVE SMOOTH",
"477 611 LINE",
"59 95 LINE SMOOTH",
"51 85 OFFCURVE",
"47 72 OFFCURVE",
"47 58 CURVE SMOOTH",
"47 26 OFFCURVE",
"73 0 OFFCURVE",
"105 0 CURVE SMOOTH"
);
}
);
width = 638;
}
);
leftKerningGroup = Z;
note = Z;
rightKerningGroup = Z;
unicode = 005A;
},
{
color = 10;
glyphname = Iacute_J.loclNLD;
layers = (
{
background = {
paths = (
{
closed = 1;
nodes = (
"519 -10 OFFCURVE",
"672 74 OFFCURVE",
"672 262 CURVE SMOOTH",
"672 657 LINE SMOOTH",
"672 682 OFFCURVE",
"651 703 OFFCURVE",
"626 703 CURVE SMOOTH",
"601 703 OFFCURVE",
"581 682 OFFCURVE",
"581 657 CURVE SMOOTH",
"581 259 LINE SMOOTH",
"581 134 OFFCURVE",
"483 73 OFFCURVE",
"385 73 CURVE SMOOTH",
"287 73 OFFCURVE",
"189 134 OFFCURVE",
"189 259 CURVE SMOOTH",
"189 657 LINE SMOOTH",
"189 682 OFFCURVE",
"168 703 OFFCURVE",
"143 703 CURVE SMOOTH",
"118 703 OFFCURVE",
"98 682 OFFCURVE",
"98 657 CURVE SMOOTH",
"98 262 LINE SMOOTH",
"98 74 OFFCURVE",
"251 -10 OFFCURVE",
"385 -10 CURVE SMOOTH"
);
}
);
};
components = (
{
name = I;
},
{
name = acutecomb.case;
transform = "{1, 0, 0, 1, -57, 0}";
},
{
name = J;
transform = "{1, 0, 0, 1, 285, 0}";
},
{
name = acutecomb.case;
transform = "{1, 0, 0, 1, 413, 0}";
}
);
layerId = "A99C00BB-606F-4263-964D-93C8B7F0BADD";
width = 751;
}
);
leftKerningGroup = H;
rightKerningGroup = J;
},
{
glyphname = a;
layers = (
{
anchors = (
{
name = bottom;
position = "{285, 0}";
},
{
name = ogonek;
position = "{475, 10}";
},
{
name = top;
position = "{279, 510}";
}
);
layerId = "A99C00BB-606F-4263-964D-93C8B7F0BADD";
paths = (
{
closed = 1;
nodes = (
"303 -10 OFFCURVE",
"361 29 OFFCURVE",
"397 66 CURVE",
"397 40 LINE SMOOTH",
"397 15 OFFCURVE",
"417 -5 OFFCURVE",
"442 -5 CURVE SMOOTH",
"467 -5 OFFCURVE",
"488 15 OFFCURVE",
"488 40 CURVE SMOOTH",
"488 323 LINE SMOOTH",
"488 421 OFFCURVE",
"425 520 OFFCURVE",
"279 520 CURVE SMOOTH",
"208 520 OFFCURVE",
"153 504 OFFCURVE",
"106 484 CURVE SMOOTH",
"89 477 OFFCURVE",
"80 463 OFFCURVE",
"80 446 CURVE SMOOTH",
"80 424 OFFCURVE",
"97 408 OFFCURVE",
"117 408 CURVE SMOOTH",
"121 408 OFFCURVE",
"126 409 OFFCURVE",
"130 410 CURVE",
"167 422 OFFCURVE",
"207 434 OFFCURVE",
"263 434 CURVE SMOOTH",
"353 434 OFFCURVE",
"397 399 OFFCURVE",
"397 310 CURVE SMOOTH",
"397 302 LINE",
"276 302 LINE SMOOTH",
"120 302 OFFCURVE",
"46 234 OFFCURVE",
"46 140 CURVE SMOOTH",
"46 46 OFFCURVE",
"122 -10 OFFCURVE",
"209 -10 CURVE SMOOTH"
);
},
{
closed = 1;
nodes = (
"162 70 OFFCURVE",
"137 107 OFFCURVE",
"137 150 CURVE SMOOTH",
"137 207 OFFCURVE",
"194 229 OFFCURVE",
"288 229 CURVE SMOOTH",
"397 229 LINE",
"397 145 LINE",
"363 106 OFFCURVE",
"305 70 OFFCURVE",
"243 70 CURVE SMOOTH"
);
}
);
width = 562;
}
);
leftKerningGroup = a;
note = a;
rightKerningGroup = n;
rightMetricsKey = n;
unicode = 0061;
},
{
color = 10;
glyphname = aacute;
layers = (
{
background = {
paths = (
{
closed = 1;
nodes = (
"295 -10 OFFCURVE",
"353 29 OFFCURVE",
"389 66 CURVE",
"389 40 LINE SMOOTH",
"389 15 OFFCURVE",
"409 -5 OFFCURVE",
"434 -5 CURVE SMOOTH",
"459 -5 OFFCURVE",
"480 15 OFFCURVE",
"480 40 CURVE SMOOTH",
"480 323 LINE SMOOTH",
"480 421 OFFCURVE",
"417 520 OFFCURVE",
"271 520 CURVE SMOOTH",
"200 520 OFFCURVE",
"145 504 OFFCURVE",
"98 484 CURVE SMOOTH",
"81 477 OFFCURVE",
"72 463 OFFCURVE",
"72 446 CURVE SMOOTH",
"72 424 OFFCURVE",
"89 408 OFFCURVE",
"109 408 CURVE SMOOTH",
"113 408 OFFCURVE",
"118 409 OFFCURVE",
"122 410 CURVE",
"159 422 OFFCURVE",
"199 434 OFFCURVE",
"255 434 CURVE SMOOTH",
"345 434 OFFCURVE",
"389 399 OFFCURVE",
"389 310 CURVE SMOOTH",
"389 302 LINE",
"268 302 LINE SMOOTH",
"112 302 OFFCURVE",
"38 234 OFFCURVE",
"38 140 CURVE SMOOTH",
"38 46 OFFCURVE",
"114 -10 OFFCURVE",
"201 -10 CURVE SMOOTH"
);
},
{
closed = 1;
nodes = (
"154 70 OFFCURVE",
"129 107 OFFCURVE",
"129 150 CURVE SMOOTH",
"129 207 OFFCURVE",
"186 229 OFFCURVE",
"280 229 CURVE SMOOTH",
"389 229 LINE",
"389 145 LINE",
"355 106 OFFCURVE",
"297 70 OFFCURVE",
"235 70 CURVE SMOOTH"
);
},
{
closed = 1;
nodes = (
"261 567 OFFCURVE",
"267 571 OFFCURVE",
"273 578 CURVE SMOOTH",
"342 660 LINE SMOOTH",
"349 668 OFFCURVE",
"352 676 OFFCURVE",
"352 685 CURVE SMOOTH",
"352 707 OFFCURVE",
"337 722 OFFCURVE",
"315 722 CURVE SMOOTH",
"298 722 OFFCURVE",
"288 714 OFFCURVE",
"282 703 CURVE SMOOTH",
"231 613 LINE",
"229 610 OFFCURVE",
"224 602 OFFCURVE",
"224 594 CURVE SMOOTH",
"224 578 OFFCURVE",
"235 567 OFFCURVE",
"251 567 CURVE SMOOTH"
);
}
);
};
components = (
{
name = a;
},
{
name = acutecomb;
transform = "{1, 0, 0, 1, 79, 0}";
}
);
layerId = "A99C00BB-606F-4263-964D-93C8B7F0BADD";
width = 562;
}
);
leftKerningGroup = a;
note = aacute;
rightKerningGroup = n;
unicode = 00E1;
},
{
color = 3;
glyphname = aogonek;
layers = (
{
background = {
paths = (
{
closed = 1;
nodes = (
"295 -10 OFFCURVE",
"353 29 OFFCURVE",
"389 66 CURVE",
"389 40 LINE SMOOTH",
"389 15 OFFCURVE",
"409 -5 OFFCURVE",
"434 -5 CURVE SMOOTH",
"459 -5 OFFCURVE",
"480 15 OFFCURVE",
"480 40 CURVE SMOOTH",
"480 323 LINE SMOOTH",
"480 421 OFFCURVE",
"417 520 OFFCURVE",
"271 520 CURVE SMOOTH",
"200 520 OFFCURVE",
"145 504 OFFCURVE",
"98 484 CURVE SMOOTH",
"81 477 OFFCURVE",
"72 463 OFFCURVE",
"72 446 CURVE SMOOTH",
"72 424 OFFCURVE",
"89 408 OFFCURVE",
"109 408 CURVE SMOOTH",
"113 408 OFFCURVE",
"118 409 OFFCURVE",
"122 410 CURVE",
"159 422 OFFCURVE",
"199 434 OFFCURVE",
"255 434 CURVE SMOOTH",
"345 434 OFFCURVE",
"389 399 OFFCURVE",
"389 310 CURVE SMOOTH",
"389 302 LINE",
"268 302 LINE SMOOTH",
"112 302 OFFCURVE",
"38 234 OFFCURVE",
"38 140 CURVE SMOOTH",
"38 46 OFFCURVE",
"114 -10 OFFCURVE",
"201 -10 CURVE SMOOTH"
);
},
{
closed = 1;
nodes = (
"154 70 OFFCURVE",
"129 107 OFFCURVE",
"129 150 CURVE SMOOTH",
"129 207 OFFCURVE",
"186 229 OFFCURVE",
"280 229 CURVE SMOOTH",
"389 229 LINE",
"389 145 LINE",
"355 106 OFFCURVE",
"297 70 OFFCURVE",
"235 70 CURVE SMOOTH"
);
},
{
closed = 1;
nodes = (
"412 -203 OFFCURVE",
"440 -194 OFFCURVE",
"461 -179 CURVE SMOOTH",
"468 -174 OFFCURVE",
"472 -168 OFFCURVE",
"472 -161 CURVE SMOOTH",
"472 -148 OFFCURVE",
"463 -139 OFFCURVE",
"450 -139 CURVE SMOOTH",
"447 -139 OFFCURVE",
"444 -140 OFFCURVE",
"441 -141 CURVE SMOOTH",
"431 -144 OFFCURVE",
"420 -147 OFFCURVE",
"406 -147 CURVE SMOOTH",
"370 -147 OFFCURVE",
"356 -129 OFFCURVE",
"355 -100 CURVE SMOOTH",
"354 -50 OFFCURVE",
"420 -12 OFFCURVE",
"467 10 CURVE",
"386 10 LINE",
"333 -17 OFFCURVE",
"282 -55 OFFCURVE",
"282 -119 CURVE SMOOTH",
"282 -172 OFFCURVE",
"327 -203 OFFCURVE",
"375 -203 CURVE SMOOTH"
);
}
);
};
layerId = "A99C00BB-606F-4263-964D-93C8B7F0BADD";
paths = (
{
closed = 1;
nodes = (
"412 -203 OFFCURVE",
"440 -194 OFFCURVE",
"461 -179 CURVE SMOOTH",
"468 -174 OFFCURVE",
"472 -168 OFFCURVE",
"472 -161 CURVE SMOOTH",
"472 -148 OFFCURVE",
"463 -139 OFFCURVE",
"450 -139 CURVE SMOOTH",
"447 -139 OFFCURVE",
"444 -140 OFFCURVE",
"441 -141 CURVE SMOOTH",
"431 -144 OFFCURVE",
"420 -147 OFFCURVE",
"406 -147 CURVE SMOOTH",
"370 -147 OFFCURVE",
"355 -129 OFFCURVE",
"355 -100 CURVE SMOOTH",
"355 -66 OFFCURVE",
"387 -27 OFFCURVE",
"446 -4 CURVE SMOOTH",
"467 4 OFFCURVE",
"480 20 OFFCURVE",
"480 40 CURVE SMOOTH",
"480 323 LINE SMOOTH",
"480 421 OFFCURVE",
"417 520 OFFCURVE",
"271 520 CURVE SMOOTH",
"200 520 OFFCURVE",
"145 504 OFFCURVE",
"98 484 CURVE SMOOTH",
"81 477 OFFCURVE",
"72 463 OFFCURVE",
"72 446 CURVE SMOOTH",
"72 424 OFFCURVE",
"89 408 OFFCURVE",
"109 408 CURVE SMOOTH",
"113 408 OFFCURVE",
"118 409 OFFCURVE",
"122 410 CURVE",
"159 422 OFFCURVE",
"199 434 OFFCURVE",
"255 434 CURVE SMOOTH",
"345 434 OFFCURVE",
"389 399 OFFCURVE",
"389 310 CURVE SMOOTH",
"389 302 LINE",
"268 302 LINE SMOOTH",
"112 302 OFFCURVE",
"38 234 OFFCURVE",
"38 140 CURVE SMOOTH",
"38 46 OFFCURVE",
"114 -10 OFFCURVE",
"201 -10 CURVE SMOOTH",
"295 -10 OFFCURVE",
"353 29 OFFCURVE",
"389 66 CURVE",
"389 15 LINE",
"332 -15 OFFCURVE",
"282 -58 OFFCURVE",
"282 -119 CURVE SMOOTH",
"282 -172 OFFCURVE",
"327 -203 OFFCURVE",
"375 -203 CURVE SMOOTH"
);
},
{
closed = 1;
nodes = (
"154 70 OFFCURVE",
"129 107 OFFCURVE",
"129 150 CURVE SMOOTH",
"129 207 OFFCURVE",
"186 229 OFFCURVE",
"280 229 CURVE SMOOTH",
"389 229 LINE",
"389 145 LINE",
"355 106 OFFCURVE",
"297 70 OFFCURVE",
"235 70 CURVE SMOOTH"
);
}
);
width = 554;
}
);
leftKerningGroup = a;
rightKerningGroup = n;
unicode = 0105;
},
{
color = 10;
glyphname = aring;
layers = (
{
background = {
paths = (
{
closed = 1;
nodes = (
"295 -10 OFFCURVE",
"353 29 OFFCURVE",
"389 66 CURVE",
"389 40 LINE SMOOTH",
"389 15 OFFCURVE",
"409 -5 OFFCURVE",
"434 -5 CURVE SMOOTH",
"459 -5 OFFCURVE",
"480 15 OFFCURVE",
"480 40 CURVE SMOOTH",
"480 323 LINE SMOOTH",
"480 421 OFFCURVE",
"417 520 OFFCURVE",
"271 520 CURVE SMOOTH",
"200 520 OFFCURVE",
"145 504 OFFCURVE",
"98 484 CURVE SMOOTH",
"81 477 OFFCURVE",
"72 463 OFFCURVE",
"72 446 CURVE SMOOTH",
"72 424 OFFCURVE",
"89 408 OFFCURVE",
"109 408 CURVE SMOOTH",
"113 408 OFFCURVE",
"118 409 OFFCURVE",
"122 410 CURVE",
"159 422 OFFCURVE",
"199 434 OFFCURVE",
"255 434 CURVE SMOOTH",
"345 434 OFFCURVE",
"389 399 OFFCURVE",
"389 310 CURVE SMOOTH",
"389 302 LINE",
"268 302 LINE SMOOTH",
"112 302 OFFCURVE",
"38 234 OFFCURVE",
"38 140 CURVE SMOOTH",
"38 46 OFFCURVE",
"114 -10 OFFCURVE",
"201 -10 CURVE SMOOTH"
);
},
{
closed = 1;
nodes = (
"154 70 OFFCURVE",
"129 107 OFFCURVE",
"129 150 CURVE SMOOTH",
"129 207 OFFCURVE",
"186 229 OFFCURVE",
"280 229 CURVE SMOOTH",
"389 229 LINE",
"389 145 LINE",
"355 106 OFFCURVE",
"297 70 OFFCURVE",
"235 70 CURVE SMOOTH"
);
},
{
closed = 1;
nodes = (
"321 551 OFFCURVE",
"363 593 OFFCURVE",
"363 645 CURVE SMOOTH",
"363 697 OFFCURVE",
"321 739 OFFCURVE",
"269 739 CURVE SMOOTH",
"217 739 OFFCURVE",
"175 697 OFFCURVE",
"175 645 CURVE SMOOTH",
"175 593 OFFCURVE",
"217 551 OFFCURVE",
"269 551 CURVE SMOOTH"
);
},
{
closed = 1;
nodes = (
"242 596 OFFCURVE",
"220 618 OFFCURVE",
"220 645 CURVE SMOOTH",
"220 672 OFFCURVE",
"242 694 OFFCURVE",
"269 694 CURVE SMOOTH",
"296 694 OFFCURVE",
"318 672 OFFCURVE",
"318 645 CURVE SMOOTH",
"318 618 OFFCURVE",
"296 596 OFFCURVE",
"269 596 CURVE SMOOTH"
);
}
);
};
components = (
{
name = a;
},
{
name = ringcomb;
transform = "{1, 0, 0, 1, 79, 0}";
}
);
layerId = "A99C00BB-606F-4263-964D-93C8B7F0BADD";
width = 562;
}
);
leftKerningGroup = a;
note = aring;
rightKerningGroup = n;
unicode = 00E5;
},
{
color = 3;
glyphname = aringacute;
layers = (
{
background = {
paths = (
{
closed = 1;
nodes = (
"323 551 OFFCURVE",
"365 593 OFFCURVE",
"365 645 CURVE SMOOTH",
"365 697 OFFCURVE",
"323 739 OFFCURVE",
"271 739 CURVE SMOOTH",
"219 739 OFFCURVE",
"177 697 OFFCURVE",
"177 645 CURVE SMOOTH",
"177 593 OFFCURVE",
"219 551 OFFCURVE",
"271 551 CURVE SMOOTH"
);
},
{
closed = 1;
nodes = (
"244 596 OFFCURVE",
"222 618 OFFCURVE",
"222 645 CURVE SMOOTH",
"222 672 OFFCURVE",
"244 694 OFFCURVE",
"271 694 CURVE SMOOTH",
"298 694 OFFCURVE",
"320 672 OFFCURVE",
"320 645 CURVE SMOOTH",
"320 618 OFFCURVE",
"298 596 OFFCURVE",
"271 596 CURVE SMOOTH"
);
},
{
closed = 1;
nodes = (
"281 755 OFFCURVE",
"287 759 OFFCURVE",
"293 766 CURVE SMOOTH",
"362 848 LINE SMOOTH",
"369 856 OFFCURVE",
"372 864 OFFCURVE",
"372 873 CURVE SMOOTH",
"372 895 OFFCURVE",
"357 910 OFFCURVE",
"335 910 CURVE SMOOTH",
"318 910 OFFCURVE",
"308 902 OFFCURVE",
"302 891 CURVE SMOOTH",
"251 801 LINE",
"249 798 OFFCURVE",
"244 790 OFFCURVE",
"244 782 CURVE SMOOTH",
"244 766 OFFCURVE",
"255 755 OFFCURVE",
"271 755 CURVE SMOOTH"
);
}
);
};
components = (
{
name = a;
}
);
layerId = "A99C00BB-606F-4263-964D-93C8B7F0BADD";
paths = (
{
closed = 1;
nodes = (
"323 551 OFFCURVE",
"365 593 OFFCURVE",
"365 645 CURVE SMOOTH",
"365 697 OFFCURVE",
"323 739 OFFCURVE",
"271 739 CURVE SMOOTH",
"219 739 OFFCURVE",
"177 697 OFFCURVE",
"177 645 CURVE SMOOTH",
"177 593 OFFCURVE",
"219 551 OFFCURVE",
"271 551 CURVE SMOOTH"
);
},
{
closed = 1;
nodes = (
"244 596 OFFCURVE",
"222 618 OFFCURVE",
"222 645 CURVE SMOOTH",
"222 672 OFFCURVE",
"244 694 OFFCURVE",
"271 694 CURVE SMOOTH",
"298 694 OFFCURVE",
"320 672 OFFCURVE",
"320 645 CURVE SMOOTH",
"320 618 OFFCURVE",
"298 596 OFFCURVE",
"271 596 CURVE SMOOTH"
);
},
{
closed = 1;
nodes = (
"366 722 OFFCURVE",
"373 724 OFFCURVE",
"381 732 CURVE SMOOTH",
"432 787 LINE SMOOTH",
"441 796 OFFCURVE",
"445 806 OFFCURVE",
"445 815 CURVE SMOOTH",
"445 835 OFFCURVE",
"428 847 OFFCURVE",
"411 847 CURVE SMOOTH",
"401 847 OFFCURVE",
"389 840 OFFCURVE",
"379 823 CURVE SMOOTH",
"343 762 LINE SMOOTH",
"340 756 OFFCURVE",
"338 751 OFFCURVE",
"338 742 CURVE SMOOTH",
"338 732 OFFCURVE",
"347 722 OFFCURVE",
"359 722 CURVE SMOOTH"
);
}
);
width = 562;
}
);
leftKerningGroup = a;
leftMetricsKey = a;
widthMetricsKey = a;
rightKerningGroup = n;
unicode = 01FB;
},
{
color = 10;
glyphname = atilde;
layers = (
{
background = {
paths = (
{
closed = 1;
nodes = (
"295 -10 OFFCURVE",
"353 29 OFFCURVE",
"389 66 CURVE",
"389 40 LINE SMOOTH",
"389 15 OFFCURVE",
"409 -5 OFFCURVE",
"434 -5 CURVE SMOOTH",
"459 -5 OFFCURVE",
"480 15 OFFCURVE",
"480 40 CURVE SMOOTH",
"480 323 LINE SMOOTH",
"480 421 OFFCURVE",
"417 520 OFFCURVE",
"271 520 CURVE SMOOTH",
"200 520 OFFCURVE",
"145 504 OFFCURVE",
"98 484 CURVE SMOOTH",
"81 477 OFFCURVE",
"72 463 OFFCURVE",
"72 446 CURVE SMOOTH",
"72 424 OFFCURVE",
"89 408 OFFCURVE",
"109 408 CURVE SMOOTH",
"113 408 OFFCURVE",
"118 409 OFFCURVE",
"122 410 CURVE",
"159 422 OFFCURVE",
"199 434 OFFCURVE",
"255 434 CURVE SMOOTH",
"345 434 OFFCURVE",
"389 399 OFFCURVE",
"389 310 CURVE SMOOTH",
"389 302 LINE",
"268 302 LINE SMOOTH",
"112 302 OFFCURVE",
"38 234 OFFCURVE",
"38 140 CURVE SMOOTH",
"38 46 OFFCURVE",
"114 -10 OFFCURVE",
"201 -10 CURVE SMOOTH"
);
},
{
closed = 1;
nodes = (
"154 70 OFFCURVE",
"129 107 OFFCURVE",
"129 150 CURVE SMOOTH",
"129 207 OFFCURVE",
"186 229 OFFCURVE",
"280 229 CURVE SMOOTH",
"389 229 LINE",
"389 145 LINE",
"355 106 OFFCURVE",
"297 70 OFFCURVE",
"235 70 CURVE SMOOTH"
);
},
{
closed = 1;
nodes = (
"145 571 OFFCURVE",
"152 580 OFFCURVE",
"155 589 CURVE",
"163 608 OFFCURVE",
"174 621 OFFCURVE",
"194 621 CURVE SMOOTH",
"246 621 OFFCURVE",
"289 573 OFFCURVE",
"348 573 CURVE SMOOTH",
"398 573 OFFCURVE",
"432 625 OFFCURVE",
"432 668 CURVE",
"431 680 OFFCURVE",
"423 690 OFFCURVE",
"409 690 CURVE SMOOTH",
"394 690 OFFCURVE",
"388 680 OFFCURVE",
"384 669 CURVE SMOOTH",
"378 652 OFFCURVE",
"368 642 OFFCURVE",
"347 642 CURVE SMOOTH",
"293 642 OFFCURVE",
"251 689 OFFCURVE",
"193 689 CURVE SMOOTH",
"141 689 OFFCURVE",
"109 634 OFFCURVE",
"109 594 CURVE SMOOTH",
"109 581 OFFCURVE",
"120 571 OFFCURVE",
"132 571 CURVE SMOOTH"
);
}
);
};
components = (
{
name = a;
},
{
name = tildecomb;
transform = "{1, 0, 0, 1, 79, 0}";
}
);
layerId = "A99C00BB-606F-4263-964D-93C8B7F0BADD";
width = 562;
}
);
leftKerningGroup = a;
note = atilde;
rightKerningGroup = n;
unicode = 00E3;
},
{
glyphname = ae;
layers = (
{
anchors = (
{
name = bottom;
position = "{461, 0}";
},
{
name = top;
position = "{455, 510}";
}
);
background = {
paths = (
{
closed = 1;
nodes = (
"209 520 OFFCURVE",
"154 504 OFFCURVE",
"107 484 CURVE SMOOTH",
"90 477 OFFCURVE",
"81 463 OFFCURVE",
"81 446 CURVE SMOOTH",
"81 424 OFFCURVE",
"98 408 OFFCURVE",
"118 408 CURVE SMOOTH",
"122 408 OFFCURVE",
"127 409 OFFCURVE",
"131 410 CURVE",
"168 422 OFFCURVE",
"208 434 OFFCURVE",
"264 434 CURVE SMOOTH",
"354 434 OFFCURVE",
"398 399 OFFCURVE",
"398 310 CURVE SMOOTH",
"398 302 LINE",
"277 302 LINE SMOOTH",
"121 302 OFFCURVE",
"47 234 OFFCURVE",
"47 140 CURVE SMOOTH",
"47 46 OFFCURVE",
"123 -10 OFFCURVE",
"210 -10 CURVE SMOOTH",
"304 -10 OFFCURVE",
"362 29 OFFCURVE",
"398 66 CURVE",
"398 40 LINE SMOOTH",
"398 15 OFFCURVE",
"418 -5 OFFCURVE",
"443 -5 CURVE SMOOTH",
"468 -5 OFFCURVE",
"489 15 OFFCURVE",
"489 40 CURVE SMOOTH",
"489 323 LINE SMOOTH",
"489 421 OFFCURVE",
"426 520 OFFCURVE",
"280 520 CURVE SMOOTH"
);
},
{
closed = 1;
nodes = (
"163 70 OFFCURVE",
"138 107 OFFCURVE",
"138 150 CURVE SMOOTH",
"138 207 OFFCURVE",
"195 229 OFFCURVE",
"289 229 CURVE SMOOTH",
"398 229 LINE",
"398 145 LINE",
"364 106 OFFCURVE",
"306 70 OFFCURVE",
"244 70 CURVE SMOOTH"
);
}
);
};
layerId = "A99C00BB-606F-4263-964D-93C8B7F0BADD";
paths = (
{
closed = 1;
nodes = (
"310 -10 OFFCURVE",
"401 5 OFFCURVE",
"448 77 CURVE",
"491 21 OFFCURVE",
"560 -10 OFFCURVE",
"651 -10 CURVE SMOOTH",
"738 -10 OFFCURVE",
"782 9 OFFCURVE",
"826 34 CURVE SMOOTH",
"840 42 OFFCURVE",
"852 55 OFFCURVE",
"852 71 CURVE SMOOTH",
"852 94 OFFCURVE",
"833 110 OFFCURVE",
"812 110 CURVE SMOOTH",
"805 110 OFFCURVE",
"800 109 OFFCURVE",
"794 106 CURVE SMOOTH",
"757 87 OFFCURVE",
"719 75 OFFCURVE",
"659 75 CURVE SMOOTH",
"543 75 OFFCURVE",
"492 136 OFFCURVE",
"482 226 CURVE",
"826 226 LINE SMOOTH",
"854 226 OFFCURVE",
"870 247 OFFCURVE",
"870 269 CURVE SMOOTH",
"870 413 OFFCURVE",
"780 520 OFFCURVE",
"631 520 CURVE SMOOTH",
"547 520 OFFCURVE",
"488 487 OFFCURVE",
"450 436 CURVE",
"420 485 OFFCURVE",
"366 520 OFFCURVE",
"279 520 CURVE SMOOTH",
"208 520 OFFCURVE",
"153 504 OFFCURVE",
"106 484 CURVE SMOOTH",
"89 477 OFFCURVE",
"80 463 OFFCURVE",
"80 446 CURVE SMOOTH",
"80 424 OFFCURVE",
"97 408 OFFCURVE",
"117 408 CURVE SMOOTH",
"121 408 OFFCURVE",
"126 409 OFFCURVE",
"130 410 CURVE",
"167 422 OFFCURVE",
"207 434 OFFCURVE",
"263 434 CURVE SMOOTH",
"353 434 OFFCURVE",
"397 399 OFFCURVE",
"397 310 CURVE SMOOTH",
"397 299 LINE",
"276 299 LINE SMOOTH",
"120 299 OFFCURVE",
"46 234 OFFCURVE",
"46 140 CURVE SMOOTH",
"46 46 OFFCURVE",
"136 -10 OFFCURVE",
"242 -10 CURVE SMOOTH"
);
},
{
closed = 1;
nodes = (
"179 70 OFFCURVE",
"137 107 OFFCURVE",
"137 150 CURVE SMOOTH",
"137 207 OFFCURVE",
"194 226 OFFCURVE",
"288 226 CURVE SMOOTH",
"397 226 LINE",
"397 169 LINE SMOOTH",
"397 88 OFFCURVE",
"322 70 OFFCURVE",
"260 70 CURVE SMOOTH"
);
},
{
closed = 1;
nodes = (
"488 403 OFFCURVE",
"567 443 OFFCURVE",
"631 443 CURVE SMOOTH",
"695 443 OFFCURVE",
"774 403 OFFCURVE",
"780 299 CURVE",
"482 299 LINE"
);
}
);
width = 911;
}
);
leftKerningGroup = a;
leftMetricsKey = a;
note = ae;
rightKerningGroup = e;
rightMetricsKey = e;
unicode = 00E6;
},
{
glyphname = b;
layers = (
{
anchors = (
{
name = bottom;
position = "{331, 0}";
},
{
name = top;
position = "{341, 510}";
}
);
layerId = "A99C00BB-606F-4263-964D-93C8B7F0BADD";
paths = (
{
closed = 1;
nodes = (
"462 -10 OFFCURVE",
"583 85 OFFCURVE",
"583 255 CURVE SMOOTH",
"583 425 OFFCURVE",
"462 520 OFFCURVE",
"341 520 CURVE SMOOTH",
"271 520 OFFCURVE",
"216 492 OFFCURVE",
"170 444 CURVE",
"170 689 LINE SMOOTH",
"170 715 OFFCURVE",
"150 735 OFFCURVE",
"124 735 CURVE SMOOTH",
"99 735 OFFCURVE",
"79 715 OFFCURVE",
"79 689 CURVE SMOOTH",
"79 40 LINE SMOOTH",
"79 15 OFFCURVE",
"99 -5 OFFCURVE",
"124 -5 CURVE SMOOTH",
"150 -5 OFFCURVE",
"170 15 OFFCURVE",
"170 40 CURVE SMOOTH",
"170 66 LINE",
"216 18 OFFCURVE",
"271 -10 OFFCURVE",
"341 -10 CURVE SMOOTH"
);
},
{
closed = 1;
nodes = (
"263 75 OFFCURVE",
"209 107 OFFCURVE",
"170 150 CURVE",
"170 360 LINE",
"209 403 OFFCURVE",
"263 435 OFFCURVE",
"328 435 CURVE SMOOTH",
"423 435 OFFCURVE",
"492 373 OFFCURVE",
"492 255 CURVE SMOOTH",
"492 137 OFFCURVE",
"423 75 OFFCURVE",
"328 75 CURVE SMOOTH"
);
}
);
width = 631;
}
);
leftKerningGroup = h;
leftMetricsKey = l;
note = b;
rightKerningGroup = o;
rightMetricsKey = o;
unicode = 0062;
},
{
glyphname = c;
layers = (
{
anchors = (
{
name = bottom;
position = "{298, 0}";
},
{
name = top;
position = "{298, 510}";
}
);
layerId = "A99C00BB-606F-4263-964D-93C8B7F0BADD";
paths = (
{
closed = 1;
nodes = (
"394 -10 OFFCURVE",
"444 16 OFFCURVE",
"478 38 CURVE SMOOTH",
"490 46 OFFCURVE",
"498 58 OFFCURVE",
"498 73 CURVE SMOOTH",
"498 92 OFFCURVE",
"481 113 OFFCURVE",
"460 113 CURVE SMOOTH",
"452 113 OFFCURVE",
"447 112 OFFCURVE",
"438 107 CURVE SMOOTH",
"403 89 OFFCURVE",
"375 75 OFFCURVE",
"323 75 CURVE SMOOTH",
"207 75 OFFCURVE",
"139 148 OFFCURVE",
"139 255 CURVE SMOOTH",
"139 362 OFFCURVE",
"207 435 OFFCURVE",
"323 435 CURVE SMOOTH",
"375 435 OFFCURVE",
"403 421 OFFCURVE",
"438 403 CURVE SMOOTH",
"447 398 OFFCURVE",
"452 397 OFFCURVE",
"460 397 CURVE SMOOTH",
"481 397 OFFCURVE",
"498 418 OFFCURVE",
"498 437 CURVE SMOOTH",
"498 452 OFFCURVE",
"490 464 OFFCURVE",
"478 472 CURVE SMOOTH",
"444 494 OFFCURVE",
"394 520 OFFCURVE",
"315 520 CURVE SMOOTH",
"173 520 OFFCURVE",
"48 422 OFFCURVE",
"48 255 CURVE SMOOTH",
"48 88 OFFCURVE",
"173 -10 OFFCURVE",
"315 -10 CURVE SMOOTH"
);
}
);
width = 533;
}
);
leftKerningGroup = o;
leftMetricsKey = o;
note = c;
rightKerningGroup = c;
unicode = 0063;
},
{
color = 10;
glyphname = ccedilla;
layers = (
{
background = {
paths = (
{
closed = 1;
nodes = (
"356 -221 OFFCURVE",
"396 -191 OFFCURVE",
"396 -129 CURVE SMOOTH",
"396 -87 OFFCURVE",
"364 -59 OFFCURVE",
"319 -59 CURVE SMOOTH",
"307 -59 OFFCURVE",
"297 -60 OFFCURVE",
"285 -63 CURVE",
"315 -10 LINE",
"393 -9 OFFCURVE",
"442 16 OFFCURVE",
"476 38 CURVE SMOOTH",
"488 46 OFFCURVE",
"496 58 OFFCURVE",
"496 73 CURVE SMOOTH",
"496 92 OFFCURVE",
"479 113 OFFCURVE",
"458 113 CURVE SMOOTH",
"450 113 OFFCURVE",
"445 112 OFFCURVE",
"436 107 CURVE SMOOTH",
"401 89 OFFCURVE",
"373 75 OFFCURVE",
"321 75 CURVE SMOOTH",
"205 75 OFFCURVE",
"137 148 OFFCURVE",
"137 255 CURVE SMOOTH",
"137 362 OFFCURVE",
"205 435 OFFCURVE",
"321 435 CURVE SMOOTH",
"373 435 OFFCURVE",
"401 421 OFFCURVE",
"436 403 CURVE SMOOTH",
"445 398 OFFCURVE",
"450 397 OFFCURVE",
"458 397 CURVE SMOOTH",
"479 397 OFFCURVE",
"496 418 OFFCURVE",
"496 437 CURVE SMOOTH",
"496 452 OFFCURVE",
"488 464 OFFCURVE",
"476 472 CURVE SMOOTH",
"442 494 OFFCURVE",
"392 520 OFFCURVE",
"313 520 CURVE SMOOTH",
"171 520 OFFCURVE",
"46 422 OFFCURVE",
"46 255 CURVE SMOOTH",
"46 103 OFFCURVE",
"148 9 OFFCURVE",
"273 -7 CURVE",
"225 -85 LINE",
"223 -88 OFFCURVE",
"221 -92 OFFCURVE",
"221 -99 CURVE SMOOTH",
"221 -108 OFFCURVE",
"230 -115 OFFCURVE",
"239 -115 CURVE SMOOTH",
"243 -115 OFFCURVE",
"247 -113 OFFCURVE",
"249 -112 CURVE SMOOTH",
"267 -103 OFFCURVE",
"279 -101 OFFCURVE",
"293 -101 CURVE SMOOTH",
"313 -101 OFFCURVE",
"329 -112 OFFCURVE",
"329 -132 CURVE SMOOTH",
"329 -167 OFFCURVE",
"304 -178 OFFCURVE",
"272 -178 CURVE SMOOTH",
"255 -178 OFFCURVE",
"235 -173 OFFCURVE",
"213 -161 CURVE",
"211 -160 OFFCURVE",
"207 -158 OFFCURVE",
"203 -158 CURVE SMOOTH",
"190 -158 OFFCURVE",
"184 -168 OFFCURVE",
"184 -178 CURVE SMOOTH",
"184 -185 OFFCURVE",
"190 -192 OFFCURVE",
"195 -195 CURVE SMOOTH",
"229 -216 OFFCURVE",
"263 -221 OFFCURVE",
"285 -221 CURVE SMOOTH"
);
}
);
};
components = (
{
name = c;
},
{
name = cedillacomb;
transform = "{1, 0, 0, 1, 98, 0}";
}
);
layerId = "A99C00BB-606F-4263-964D-93C8B7F0BADD";
width = 533;
}
);
leftKerningGroup = o;
note = ccedilla;
rightKerningGroup = c;
unicode = 00E7;
},
{
glyphname = d;
layers = (
{
anchors = (
{
name = bottom;
position = "{316, 0}";
},
{
name = center;
position = "{316, 255}";
},
{
name = top;
position = "{316, 510}";
},
{
name = topright;
position = "{582, 732}";
}
);
layerId = "A99C00BB-606F-4263-964D-93C8B7F0BADD";
paths = (
{
closed = 1;
nodes = (
"360 -10 OFFCURVE",
"415 18 OFFCURVE",
"461 66 CURVE",
"461 40 LINE SMOOTH",
"461 15 OFFCURVE",
"481 -5 OFFCURVE",
"507 -5 CURVE SMOOTH",
"532 -5 OFFCURVE",
"552 15 OFFCURVE",
"552 40 CURVE SMOOTH",
"552 689 LINE SMOOTH",
"552 715 OFFCURVE",
"532 735 OFFCURVE",
"507 735 CURVE SMOOTH",
"481 735 OFFCURVE",
"461 715 OFFCURVE",
"461 689 CURVE SMOOTH",
"461 444 LINE",
"415 492 OFFCURVE",
"360 520 OFFCURVE",
"290 520 CURVE SMOOTH",
"169 520 OFFCURVE",
"48 425 OFFCURVE",
"48 255 CURVE SMOOTH",
"48 85 OFFCURVE",
"169 -10 OFFCURVE",
"290 -10 CURVE SMOOTH"
);
},
{
closed = 1;
nodes = (
"208 75 OFFCURVE",
"139 137 OFFCURVE",
"139 255 CURVE SMOOTH",
"139 373 OFFCURVE",
"208 435 OFFCURVE",
"303 435 CURVE SMOOTH",
"368 435 OFFCURVE",
"422 403 OFFCURVE",
"461 360 CURVE",
"461 150 LINE",
"422 107 OFFCURVE",
"368 75 OFFCURVE",
"303 75 CURVE SMOOTH"
);
}
);
width = 631;
}
);
leftKerningGroup = o;
leftMetricsKey = o;
note = d;
rightKerningGroup = l;
rightMetricsKey = l;
unicode = 0064;
},
{
glyphname = eth;
layers = (
{
layerId = "A99C00BB-606F-4263-964D-93C8B7F0BADD";
paths = (
{
closed = 1;
nodes = (
"475 -10 OFFCURVE",
"545 120 OFFCURVE",
"545 274 CURVE SMOOTH",
"545 430 OFFCURVE",
"454 553 OFFCURVE",
"361 637 CURVE",
"417 670 LINE SMOOTH",
"425 675 OFFCURVE",
"429 683 OFFCURVE",
"429 692 CURVE SMOOTH",
"429 706 OFFCURVE",
"418 717 OFFCURVE",
"404 717 CURVE SMOOTH",
"398 717 OFFCURVE",
"394 715 OFFCURVE",
"389 712 CURVE SMOOTH",
"321 671 LINE",
"280 704 OFFCURVE",
"241 729 OFFCURVE",
"213 746 CURVE SMOOTH",
"206 750 OFFCURVE",
"199 752 OFFCURVE",
"191 752 CURVE SMOOTH",
"168 752 OFFCURVE",
"149 734 OFFCURVE",
"149 710 CURVE SMOOTH",
"149 696 OFFCURVE",
"157 681 OFFCURVE",
"169 675 CURVE SMOOTH",
"195 661 OFFCURVE",
"220 644 OFFCURVE",
"245 627 CURVE",
"177 587 LINE SMOOTH",
"168 582 OFFCURVE",
"162 574 OFFCURVE",
"162 564 CURVE SMOOTH",
"162 550 OFFCURVE",
"173 539 OFFCURVE",
"187 539 CURVE SMOOTH",
"193 539 OFFCURVE",
"199 542 OFFCURVE",
"204 545 CURVE SMOOTH",
"288 594 LINE",
"328 560 OFFCURVE",
"366 520 OFFCURVE",
"395 477 CURVE",
"364 493 OFFCURVE",
"327 505 OFFCURVE",
"282 505 CURVE SMOOTH",
"132 505 OFFCURVE",
"48 381 OFFCURVE",
"48 248 CURVE SMOOTH",
"48 94 OFFCURVE",
"146 -10 OFFCURVE",
"296 -10 CURVE SMOOTH"
);
},
{
closed = 1;
nodes = (
"222 70 OFFCURVE",
"136 120 OFFCURVE",
"136 252 CURVE SMOOTH",
"136 382 OFFCURVE",
"222 431 OFFCURVE",
"296 431 CURVE SMOOTH",
"370 431 OFFCURVE",
"457 382 OFFCURVE",
"457 252 CURVE SMOOTH",
"457 120 OFFCURVE",
"370 70 OFFCURVE",
"296 70 CURVE SMOOTH"
);
}
);
width = 593;
}
);
leftKerningGroup = o;
leftMetricsKey = o;
note = eth;
rightKerningGroup = o;
rightMetricsKey = o;
unicode = 00F0;
},
{
color = 3;
glyphname = dcroat;
layers = (
{
background = {
paths = (
{
closed = 1;
nodes = (
"360 -10 OFFCURVE",
"415 18 OFFCURVE",
"461 66 CURVE",
"461 40 LINE SMOOTH",
"461 15 OFFCURVE",
"481 -5 OFFCURVE",
"507 -5 CURVE SMOOTH",
"532 -5 OFFCURVE",
"552 15 OFFCURVE",
"552 40 CURVE SMOOTH",
"552 689 LINE SMOOTH",
"552 715 OFFCURVE",
"532 735 OFFCURVE",
"507 735 CURVE SMOOTH",
"481 735 OFFCURVE",
"461 715 OFFCURVE",
"461 689 CURVE SMOOTH",
"461 444 LINE",
"415 492 OFFCURVE",
"360 520 OFFCURVE",
"290 520 CURVE SMOOTH",
"169 520 OFFCURVE",
"48 425 OFFCURVE",
"48 255 CURVE SMOOTH",
"48 85 OFFCURVE",
"169 -10 OFFCURVE",
"290 -10 CURVE SMOOTH"
);
},
{
closed = 1;
nodes = (
"208 75 OFFCURVE",
"139 137 OFFCURVE",
"139 255 CURVE SMOOTH",
"139 373 OFFCURVE",
"208 435 OFFCURVE",
"303 435 CURVE SMOOTH",
"368 435 OFFCURVE",
"422 403 OFFCURVE",
"461 360 CURVE",
"461 150 LINE",
"422 107 OFFCURVE",
"368 75 OFFCURVE",
"303 75 CURVE SMOOTH"
);
},
{
closed = 1;
nodes = (
"461 573 LINE",
"345 573 LINE SMOOTH",
"326 573 OFFCURVE",
"311 587 OFFCURVE",
"311 606 CURVE SMOOTH",
"311 625 OFFCURVE",
"326 640 OFFCURVE",
"345 640 CURVE SMOOTH",
"461 640 LINE"
);
},
{
closed = 1;
nodes = (
"552 640 LINE",
"599 640 LINE SMOOTH",
"618 640 OFFCURVE",
"632 625 OFFCURVE",
"632 606 CURVE SMOOTH",
"632 587 OFFCURVE",
"618 573 OFFCURVE",
"599 573 CURVE SMOOTH",
"552 573 LINE"
);
}
);
};
layerId = "A99C00BB-606F-4263-964D-93C8B7F0BADD";
paths = (
{
closed = 1;
nodes = (
"360 -10 OFFCURVE",
"415 18 OFFCURVE",
"461 66 CURVE",
"461 40 LINE SMOOTH",
"461 15 OFFCURVE",
"481 -5 OFFCURVE",
"507 -5 CURVE SMOOTH",
"532 -5 OFFCURVE",
"552 15 OFFCURVE",
"552 40 CURVE SMOOTH",
"552 573 LINE",
"599 573 LINE SMOOTH",
"618 573 OFFCURVE",
"632 587 OFFCURVE",
"632 606 CURVE SMOOTH",
"632 625 OFFCURVE",
"618 640 OFFCURVE",
"599 640 CURVE SMOOTH",
"552 640 LINE",
"552 689 LINE SMOOTH",
"552 715 OFFCURVE",
"532 735 OFFCURVE",
"507 735 CURVE SMOOTH",
"481 735 OFFCURVE",
"461 715 OFFCURVE",
"461 689 CURVE SMOOTH",
"461 640 LINE",
"345 640 LINE SMOOTH",
"326 640 OFFCURVE",
"311 625 OFFCURVE",
"311 606 CURVE SMOOTH",
"311 587 OFFCURVE",
"326 573 OFFCURVE",
"345 573 CURVE SMOOTH",
"461 573 LINE",
"461 444 LINE",
"415 492 OFFCURVE",
"360 520 OFFCURVE",
"290 520 CURVE SMOOTH",
"169 520 OFFCURVE",
"48 425 OFFCURVE",
"48 255 CURVE SMOOTH",
"48 85 OFFCURVE",
"169 -10 OFFCURVE",
"290 -10 CURVE SMOOTH"
);
},
{
closed = 1;
nodes = (
"208 75 OFFCURVE",
"139 137 OFFCURVE",
"139 255 CURVE SMOOTH",
"139 373 OFFCURVE",
"208 435 OFFCURVE",
"303 435 CURVE SMOOTH",
"368 435 OFFCURVE",
"422 403 OFFCURVE",
"461 360 CURVE",
"461 150 LINE",
"422 107 OFFCURVE",
"368 75 OFFCURVE",
"303 75 CURVE SMOOTH"
);
}
);
width = 636;
}
);
leftKerningGroup = o;
leftMetricsKey = d;
widthMetricsKey = "=d+5";
rightKerningGroup = hbar;
unicode = 0111;
},
{
glyphname = e;
layers = (
{
anchors = (
{
name = bottom;
position = "{285, 0}";
},
{
name = ogonek;
position = "{430, 10}";
},
{
name = top;
position = "{285, 510}";
}
);
layerId = "A99C00BB-606F-4263-964D-93C8B7F0BADD";
paths = (
{
closed = 1;
nodes = (
"394 -10 OFFCURVE",
"438 9 OFFCURVE",
"482 34 CURVE SMOOTH",
"496 42 OFFCURVE",
"508 55 OFFCURVE",
"508 71 CURVE SMOOTH",
"508 94 OFFCURVE",
"489 110 OFFCURVE",
"468 110 CURVE SMOOTH",
"461 110 OFFCURVE",
"456 109 OFFCURVE",
"450 106 CURVE SMOOTH",
"413 87 OFFCURVE",
"375 75 OFFCURVE",
"315 75 CURVE SMOOTH",
"207 75 OFFCURVE",
"150 133 OFFCURVE",
"140 223 CURVE",
"479 223 LINE SMOOTH",
"507 223 OFFCURVE",
"525 243 OFFCURVE",
"525 268 CURVE SMOOTH",
"525 401 OFFCURVE",
"441 520 OFFCURVE",
"287 520 CURVE SMOOTH",
"121 520 OFFCURVE",
"48 390 OFFCURVE",
"48 255 CURVE SMOOTH",
"48 87 OFFCURVE",
"144 -10 OFFCURVE",
"307 -10 CURVE SMOOTH"
);
},
{
closed = 1;
nodes = (
"146 401 OFFCURVE",
"223 443 OFFCURVE",
"287 443 CURVE SMOOTH",
"351 443 OFFCURVE",
"429 401 OFFCURVE",
"435 297 CURVE",
"140 297 LINE"
);
}
);
width = 566;
}
);
leftKerningGroup = o;
leftMetricsKey = o;
note = e;
rightKerningGroup = e;
unicode = 0065;
},
{
color = 10;
glyphname = eacute;
layers = (
{
background = {
paths = (
{
closed = 1;
nodes = (
"395 -10 OFFCURVE",
"439 9 OFFCURVE",
"483 34 CURVE SMOOTH",
"497 42 OFFCURVE",
"509 55 OFFCURVE",
"509 71 CURVE SMOOTH",
"509 94 OFFCURVE",
"490 110 OFFCURVE",
"469 110 CURVE SMOOTH",
"462 110 OFFCURVE",
"457 109 OFFCURVE",
"451 106 CURVE SMOOTH",
"414 87 OFFCURVE",
"376 75 OFFCURVE",
"316 75 CURVE SMOOTH",
"208 75 OFFCURVE",
"151 133 OFFCURVE",
"141 223 CURVE",
"480 223 LINE SMOOTH",
"508 223 OFFCURVE",
"526 243 OFFCURVE",
"526 268 CURVE SMOOTH",
"526 401 OFFCURVE",
"442 520 OFFCURVE",
"288 520 CURVE SMOOTH",
"122 520 OFFCURVE",
"49 390 OFFCURVE",
"49 255 CURVE SMOOTH",
"49 87 OFFCURVE",
"145 -10 OFFCURVE",
"308 -10 CURVE SMOOTH"
);
},
{
closed = 1;
nodes = (
"147 401 OFFCURVE",
"224 443 OFFCURVE",
"288 443 CURVE SMOOTH",
"352 443 OFFCURVE",
"430 401 OFFCURVE",
"436 297 CURVE",
"141 297 LINE"
);
},
{
closed = 1;
nodes = (
"275 567 OFFCURVE",
"281 571 OFFCURVE",
"287 578 CURVE SMOOTH",
"356 660 LINE SMOOTH",
"363 668 OFFCURVE",
"366 676 OFFCURVE",
"366 685 CURVE SMOOTH",
"366 707 OFFCURVE",
"351 722 OFFCURVE",
"329 722 CURVE SMOOTH",
"312 722 OFFCURVE",
"302 714 OFFCURVE",
"296 703 CURVE SMOOTH",
"245 613 LINE",
"243 610 OFFCURVE",
"238 602 OFFCURVE",
"238 594 CURVE SMOOTH",
"238 578 OFFCURVE",
"249 567 OFFCURVE",
"265 567 CURVE SMOOTH"
);
}
);
};
components = (
{
name = e;
},
{
name = acutecomb;
transform = "{1, 0, 0, 1, 85, 0}";
}
);
layerId = "A99C00BB-606F-4263-964D-93C8B7F0BADD";
width = 566;
}
);
leftKerningGroup = o;
note = eacute;
rightKerningGroup = e;
unicode = 00E9;
},
{
color = 10;
glyphname = edieresis;
layers = (
{
background = {
paths = (
{
closed = 1;
nodes = (
"395 -10 OFFCURVE",
"439 9 OFFCURVE",
"483 34 CURVE SMOOTH",
"497 42 OFFCURVE",
"509 55 OFFCURVE",
"509 71 CURVE SMOOTH",
"509 94 OFFCURVE",
"490 110 OFFCURVE",
"469 110 CURVE SMOOTH",
"462 110 OFFCURVE",
"457 109 OFFCURVE",
"451 106 CURVE SMOOTH",
"414 87 OFFCURVE",
"376 75 OFFCURVE",
"316 75 CURVE SMOOTH",
"208 75 OFFCURVE",
"151 133 OFFCURVE",
"141 223 CURVE",
"480 223 LINE SMOOTH",
"508 223 OFFCURVE",
"526 243 OFFCURVE",
"526 268 CURVE SMOOTH",
"526 401 OFFCURVE",
"442 520 OFFCURVE",
"288 520 CURVE SMOOTH",
"122 520 OFFCURVE",
"49 390 OFFCURVE",
"49 255 CURVE SMOOTH",
"49 87 OFFCURVE",
"145 -10 OFFCURVE",
"308 -10 CURVE SMOOTH"
);
},
{
closed = 1;
nodes = (
"147 401 OFFCURVE",
"224 443 OFFCURVE",
"288 443 CURVE SMOOTH",
"352 443 OFFCURVE",
"430 401 OFFCURVE",
"436 297 CURVE",
"141 297 LINE"
);
},
{
closed = 1;
nodes = (
"231 575 OFFCURVE",
"254 598 OFFCURVE",
"254 626 CURVE SMOOTH",
"254 654 OFFCURVE",
"231 677 OFFCURVE",
"203 677 CURVE SMOOTH",
"175 677 OFFCURVE",
"152 654 OFFCURVE",
"152 626 CURVE SMOOTH",
"152 598 OFFCURVE",
"175 575 OFFCURVE",
"203 575 CURVE SMOOTH"
);
},
{
closed = 1;
nodes = (
"400 575 OFFCURVE",
"423 598 OFFCURVE",
"423 626 CURVE SMOOTH",
"423 654 OFFCURVE",
"400 677 OFFCURVE",
"372 677 CURVE SMOOTH",
"344 677 OFFCURVE",
"321 654 OFFCURVE",
"321 626 CURVE SMOOTH",
"321 598 OFFCURVE",
"344 575 OFFCURVE",
"372 575 CURVE SMOOTH"
);
}
);
};
components = (
{
name = e;
},
{
name = dieresiscomb;
transform = "{1, 0, 0, 1, 85, 0}";
}
);
layerId = "A99C00BB-606F-4263-964D-93C8B7F0BADD";
width = 566;
}
);
leftKerningGroup = o;
note = edieresis;
rightKerningGroup = e;
unicode = 00EB;
},
{
color = 3;
glyphname = eogonek;
layers = (
{
anchors = (
{
name = top;
position = "{285, 510}";
}
);
background = {
paths = (
{
closed = 1;
nodes = (
"394 -10 OFFCURVE",
"438 9 OFFCURVE",
"482 34 CURVE SMOOTH",
"496 42 OFFCURVE",
"508 55 OFFCURVE",
"508 71 CURVE SMOOTH",
"508 94 OFFCURVE",
"489 110 OFFCURVE",
"468 110 CURVE SMOOTH",
"461 110 OFFCURVE",
"456 109 OFFCURVE",
"450 106 CURVE SMOOTH",
"413 87 OFFCURVE",
"375 75 OFFCURVE",
"315 75 CURVE SMOOTH",
"207 75 OFFCURVE",
"150 133 OFFCURVE",
"140 223 CURVE",
"479 223 LINE SMOOTH",
"507 223 OFFCURVE",
"525 243 OFFCURVE",
"525 268 CURVE SMOOTH",
"525 401 OFFCURVE",
"441 520 OFFCURVE",
"287 520 CURVE SMOOTH",
"121 520 OFFCURVE",
"48 390 OFFCURVE",
"48 255 CURVE SMOOTH",
"48 87 OFFCURVE",
"144 -10 OFFCURVE",
"307 -10 CURVE SMOOTH"
);
},
{
closed = 1;
nodes = (
"146 401 OFFCURVE",
"223 443 OFFCURVE",
"287 443 CURVE SMOOTH",
"351 443 OFFCURVE",
"429 401 OFFCURVE",
"435 297 CURVE",
"140 297 LINE"
);
},
{
closed = 1;
nodes = (
"375 -203 OFFCURVE",
"403 -194 OFFCURVE",
"424 -179 CURVE SMOOTH",
"431 -174 OFFCURVE",
"435 -168 OFFCURVE",
"435 -161 CURVE SMOOTH",
"435 -148 OFFCURVE",
"426 -139 OFFCURVE",
"413 -139 CURVE SMOOTH",
"410 -139 OFFCURVE",
"407 -140 OFFCURVE",
"404 -141 CURVE SMOOTH",
"394 -144 OFFCURVE",
"383 -147 OFFCURVE",
"369 -147 CURVE SMOOTH",
"333 -147 OFFCURVE",
"318 -129 OFFCURVE",
"318 -100 CURVE SMOOTH",
"318 -50 OFFCURVE",
"383 -12 OFFCURVE",
"430 10 CURVE",
"349 10 LINE",
"296 -17 OFFCURVE",
"245 -55 OFFCURVE",
"245 -119 CURVE SMOOTH",
"245 -172 OFFCURVE",
"290 -203 OFFCURVE",
"338 -203 CURVE SMOOTH"
);
}
);
};
layerId = "A99C00BB-606F-4263-964D-93C8B7F0BADD";
paths = (
{
closed = 1;
nodes = (
"412 -203 OFFCURVE",
"440 -194 OFFCURVE",
"461 -179 CURVE SMOOTH",
"468 -174 OFFCURVE",
"472 -168 OFFCURVE",
"472 -161 CURVE SMOOTH",
"472 -148 OFFCURVE",
"463 -139 OFFCURVE",
"450 -139 CURVE SMOOTH",
"447 -139 OFFCURVE",
"444 -140 OFFCURVE",
"441 -141 CURVE SMOOTH",
"431 -144 OFFCURVE",
"420 -147 OFFCURVE",
"406 -147 CURVE SMOOTH",
"370 -147 OFFCURVE",
"355 -129 OFFCURVE",
"355 -100 CURVE SMOOTH",
"355 -53 OFFCURVE",
"410 -13 OFFCURVE",
"478 31 CURVE SMOOTH",
"492 40 OFFCURVE",
"508 55 OFFCURVE",
"508 71 CURVE SMOOTH",
"508 94 OFFCURVE",
"489 110 OFFCURVE",
"468 110 CURVE SMOOTH",
"461 110 OFFCURVE",
"456 109 OFFCURVE",
"450 106 CURVE SMOOTH",
"413 87 OFFCURVE",
"375 75 OFFCURVE",
"315 75 CURVE SMOOTH",
"207 75 OFFCURVE",
"150 133 OFFCURVE",
"140 223 CURVE",
"479 223 LINE SMOOTH",
"507 223 OFFCURVE",
"525 243 OFFCURVE",
"525 268 CURVE SMOOTH",
"525 401 OFFCURVE",
"441 520 OFFCURVE",
"287 520 CURVE SMOOTH",
"121 520 OFFCURVE",
"48 390 OFFCURVE",
"48 255 CURVE SMOOTH",
"48 87 OFFCURVE",
"144 -10 OFFCURVE",
"307 -10 CURVE SMOOTH",
"351 -10 LINE",
"313 -35 OFFCURVE",
"282 -69 OFFCURVE",
"282 -119 CURVE SMOOTH",
"282 -172 OFFCURVE",
"327 -203 OFFCURVE",
"375 -203 CURVE SMOOTH"
);
},
{
closed = 1;
nodes = (
"146 401 OFFCURVE",
"223 443 OFFCURVE",
"287 443 CURVE SMOOTH",
"351 443 OFFCURVE",
"429 401 OFFCURVE",
"435 297 CURVE",
"140 297 LINE"
);
}
);
width = 566;
}
);
leftKerningGroup = o;
leftMetricsKey = e;
widthMetricsKey = e;
rightKerningGroup = e;
unicode = 0119;
},
{
color = 3;
glyphname = schwa;
layers = (
{
background = {
paths = (
{
closed = 1;
nodes = (
"172 520 OFFCURVE",
"128 501 OFFCURVE",
"84 476 CURVE SMOOTH",
"70 468 OFFCURVE",
"58 455 OFFCURVE",
"58 439 CURVE SMOOTH",
"58 416 OFFCURVE",
"77 400 OFFCURVE",
"98 400 CURVE SMOOTH",
"105 400 OFFCURVE",
"110 401 OFFCURVE",
"116 404 CURVE SMOOTH",
"153 423 OFFCURVE",
"191 435 OFFCURVE",
"251 435 CURVE SMOOTH",
"359 435 OFFCURVE",
"416 377 OFFCURVE",
"426 287 CURVE",
"87 287 LINE SMOOTH",
"59 287 OFFCURVE",
"41 267 OFFCURVE",
"41 242 CURVE SMOOTH",
"41 109 OFFCURVE",
"125 -10 OFFCURVE",
"279 -10 CURVE SMOOTH",
"445 -10 OFFCURVE",
"518 120 OFFCURVE",
"518 255 CURVE SMOOTH",
"518 423 OFFCURVE",
"422 520 OFFCURVE",
"259 520 CURVE SMOOTH"
);
},
{
closed = 1;
nodes = (
"420 109 OFFCURVE",
"343 67 OFFCURVE",
"279 67 CURVE SMOOTH",
"215 67 OFFCURVE",
"137 109 OFFCURVE",
"131 213 CURVE",
"426 213 LINE"
);
}
);
};
layerId = "A99C00BB-606F-4263-964D-93C8B7F0BADD";
paths = (
{
closed = 1;
nodes = (
"443 -10 OFFCURVE",
"518 120 OFFCURVE",
"518 255 CURVE SMOOTH",
"518 423 OFFCURVE",
"424 520 OFFCURVE",
"261 520 CURVE SMOOTH",
"198 520 OFFCURVE",
"135 502 OFFCURVE",
"90 476 CURVE SMOOTH",
"76 468 OFFCURVE",
"64 455 OFFCURVE",
"64 439 CURVE SMOOTH",
"64 416 OFFCURVE",
"83 400 OFFCURVE",
"104 400 CURVE SMOOTH",
"111 400 OFFCURVE",
"116 401 OFFCURVE",
"122 404 CURVE SMOOTH",
"159 423 OFFCURVE",
"197 435 OFFCURVE",
"258 435 CURVE SMOOTH",
"359 435 OFFCURVE",
"418 378 OFFCURVE",
"426 287 CURVE",
"87 287 LINE SMOOTH",
"59 287 OFFCURVE",
"41 267 OFFCURVE",
"41 242 CURVE SMOOTH",
"41 104 OFFCURVE",
"123 -10 OFFCURVE",
"277 -10 CURVE SMOOTH"
);
},
{
closed = 1;
nodes = (
"210 67 OFFCURVE",
"140 109 OFFCURVE",
"137 213 CURVE",
"426 213 LINE",
"420 109 OFFCURVE",
"343 67 OFFCURVE",
"279 67 CURVE SMOOTH"
);
}
);
width = 566;
}
);
leftKerningGroup = o;
leftMetricsKey = "=|e";
rightKerningGroup = o;
rightMetricsKey = o;
unicode = 0259;
},
{
glyphname = f;
layers = (
{
anchors = (
{
name = bottom;
position = "{163, 0}";
},
{
name = top;
position = "{190, 510}";
}
);
layerId = "A99C00BB-606F-4263-964D-93C8B7F0BADD";
paths = (
{
closed = 1;
nodes = (
"188 -5 OFFCURVE",
"208 15 OFFCURVE",
"208 40 CURVE SMOOTH",
"208 432 LINE",
"333 432 LINE SMOOTH",
"355 432 OFFCURVE",
"372 449 OFFCURVE",
"372 471 CURVE SMOOTH",
"372 493 OFFCURVE",
"355 510 OFFCURVE",
"333 510 CURVE SMOOTH",
"208 510 LINE",
"208 565 LINE SMOOTH",
"208 636 OFFCURVE",
"240 653 OFFCURVE",
"290 653 CURVE SMOOTH",
"309 653 OFFCURVE",
"324 647 OFFCURVE",
"340 647 CURVE SMOOTH",
"361 647 OFFCURVE",
"377 666 OFFCURVE",
"377 685 CURVE SMOOTH",
"377 701 OFFCURVE",
"366 714 OFFCURVE",
"354 720 CURVE SMOOTH",
"330 732 OFFCURVE",
"300 740 OFFCURVE",
"267 740 CURVE SMOOTH",
"196 740 OFFCURVE",
"117 694 OFFCURVE",
"117 568 CURVE SMOOTH",
"117 510 LINE",
"58 510 LINE SMOOTH",
"36 510 OFFCURVE",
"19 493 OFFCURVE",
"19 471 CURVE SMOOTH",
"19 449 OFFCURVE",
"36 432 OFFCURVE",
"58 432 CURVE SMOOTH",
"117 432 LINE",
"117 40 LINE SMOOTH",
"117 15 OFFCURVE",
"137 -5 OFFCURVE",
"162 -5 CURVE SMOOTH"
);
}
);
width = 382;
}
);
leftKerningGroup = f;
note = f;
rightKerningGroup = f;
unicode = 0066;
},
{
glyphname = g;
layers = (
{
anchors = (
{
name = bottom;
position = "{316, 0}";
},
{
name = top;
position = "{316, 510}";
}
);
layerId = "A99C00BB-606F-4263-964D-93C8B7F0BADD";
paths = (
{
closed = 1;
nodes = (
"467 -240 OFFCURVE",
"552 -146 OFFCURVE",
"552 22 CURVE SMOOTH",
"552 469 LINE SMOOTH",
"552 494 OFFCURVE",
"531 515 OFFCURVE",
"506 515 CURVE SMOOTH",
"481 515 OFFCURVE",
"461 494 OFFCURVE",
"461 469 CURVE SMOOTH",
"461 444 LINE",
"420 488 OFFCURVE",
"365 520 OFFCURVE",
"290 520 CURVE SMOOTH",
"179 520 OFFCURVE",
"48 437 OFFCURVE",
"48 260 CURVE SMOOTH",
"48 83 OFFCURVE",
"179 0 OFFCURVE",
"290 0 CURVE SMOOTH",
"365 0 OFFCURVE",
"420 32 OFFCURVE",
"461 76 CURVE",
"461 9 LINE SMOOTH",
"461 -99 OFFCURVE",
"410 -154 OFFCURVE",
"308 -154 CURVE SMOOTH",
"240 -154 OFFCURVE",
"185 -137 OFFCURVE",
"143 -116 CURVE",
"138 -114 OFFCURVE",
"132 -112 OFFCURVE",
"125 -112 CURVE SMOOTH",
"102 -112 OFFCURVE",
"85 -133 OFFCURVE",
"85 -153 CURVE SMOOTH",
"85 -172 OFFCURVE",
"93 -182 OFFCURVE",
"103 -188 CURVE SMOOTH",
"150 -215 OFFCURVE",
"236 -240 OFFCURVE",
"317 -240 CURVE SMOOTH"
);
},
{
closed = 1;
nodes = (
"214 83 OFFCURVE",
"139 140 OFFCURVE",
"139 260 CURVE SMOOTH",
"139 380 OFFCURVE",
"214 437 OFFCURVE",
"309 437 CURVE SMOOTH",
"378 437 OFFCURVE",
"424 401 OFFCURVE",
"461 363 CURVE",
"461 157 LINE",
"424 119 OFFCURVE",
"378 83 OFFCURVE",
"309 83 CURVE SMOOTH"
);
}
);
width = 631;
}
);
leftKerningGroup = o;
leftMetricsKey = o;
note = g;
rightKerningGroup = u;
rightMetricsKey = "=|n";
unicode = 0067;
},
{
glyphname = h;
layers = (
{
anchors = (
{
name = bottom;
position = "{305, 0}";
},
{
name = center;
position = "{305, 255}";
},
{
name = top;
position = "{307, 732}";
}
);
layerId = "A99C00BB-606F-4263-964D-93C8B7F0BADD";
paths = (
{
closed = 1;
nodes = (
"149 -5 OFFCURVE",
"170 15 OFFCURVE",
"170 40 CURVE SMOOTH",
"170 340 LINE",
"210 390 OFFCURVE",
"262 436 OFFCURVE",
"334 436 CURVE SMOOTH",
"412 436 OFFCURVE",
"444 390 OFFCURVE",
"444 314 CURVE SMOOTH",
"444 40 LINE SMOOTH",
"444 15 OFFCURVE",
"464 -5 OFFCURVE",
"489 -5 CURVE SMOOTH",
"514 -5 OFFCURVE",
"535 15 OFFCURVE",
"535 40 CURVE SMOOTH",
"535 324 LINE SMOOTH",
"535 431 OFFCURVE",
"470 520 OFFCURVE",
"356 520 CURVE SMOOTH",
"267 520 OFFCURVE",
"212 474 OFFCURVE",
"170 428 CURVE",
"170 689 LINE SMOOTH",
"170 715 OFFCURVE",
"149 735 OFFCURVE",
"124 735 CURVE SMOOTH",
"99 735 OFFCURVE",
"79 715 OFFCURVE",
"79 689 CURVE SMOOTH",
"79 40 LINE SMOOTH",
"79 15 OFFCURVE",
"99 -5 OFFCURVE",
"124 -5 CURVE SMOOTH"
);
}
);
width = 609;
}
);
leftKerningGroup = h;
leftMetricsKey = l;
note = h;
rightKerningGroup = n;
rightMetricsKey = n;
unicode = 0068;
},
{
color = 3;
glyphname = hbar;
layers = (
{
background = {
paths = (
{
closed = 1;
nodes = (
"283 573 LINE SMOOTH",
"302 573 OFFCURVE",
"317 587 OFFCURVE",
"317 606 CURVE SMOOTH",
"317 625 OFFCURVE",
"302 640 OFFCURVE",
"283 640 CURVE SMOOTH",
"37 640 LINE SMOOTH",
"18 640 OFFCURVE",
"4 625 OFFCURVE",
"4 606 CURVE SMOOTH",
"4 587 OFFCURVE",
"18 573 OFFCURVE",
"37 573 CURVE SMOOTH"
);
},
{
closed = 1;
nodes = (
"154 -5 OFFCURVE",
"175 15 OFFCURVE",
"175 40 CURVE SMOOTH",
"175 340 LINE",
"215 390 OFFCURVE",
"267 436 OFFCURVE",
"339 436 CURVE SMOOTH",
"417 436 OFFCURVE",
"449 390 OFFCURVE",
"449 314 CURVE SMOOTH",
"449 40 LINE SMOOTH",
"449 15 OFFCURVE",
"469 -5 OFFCURVE",
"494 -5 CURVE SMOOTH",
"519 -5 OFFCURVE",
"540 15 OFFCURVE",
"540 40 CURVE SMOOTH",
"540 324 LINE SMOOTH",
"540 431 OFFCURVE",
"475 520 OFFCURVE",
"361 520 CURVE SMOOTH",
"272 520 OFFCURVE",
"217 474 OFFCURVE",
"175 428 CURVE",
"175 689 LINE SMOOTH",
"175 715 OFFCURVE",
"154 735 OFFCURVE",
"129 735 CURVE SMOOTH",
"104 735 OFFCURVE",
"84 715 OFFCURVE",
"84 689 CURVE SMOOTH",
"84 40 LINE SMOOTH",
"84 15 OFFCURVE",
"104 -5 OFFCURVE",
"129 -5 CURVE SMOOTH"
);
}
);
};
layerId = "A99C00BB-606F-4263-964D-93C8B7F0BADD";
paths = (
{
closed = 1;
nodes = (
"154 -5 OFFCURVE",
"175 15 OFFCURVE",
"175 40 CURVE SMOOTH",
"175 340 LINE",
"215 390 OFFCURVE",
"267 436 OFFCURVE",
"339 436 CURVE SMOOTH",
"417 436 OFFCURVE",
"449 390 OFFCURVE",
"449 314 CURVE SMOOTH",
"449 40 LINE SMOOTH",
"449 15 OFFCURVE",
"469 -5 OFFCURVE",
"494 -5 CURVE SMOOTH",
"519 -5 OFFCURVE",
"540 15 OFFCURVE",
"540 40 CURVE SMOOTH",
"540 324 LINE SMOOTH",
"540 431 OFFCURVE",
"475 520 OFFCURVE",
"361 520 CURVE SMOOTH",
"272 520 OFFCURVE",
"217 474 OFFCURVE",
"175 428 CURVE",
"175 573 LINE",
"291 573 LINE SMOOTH",
"310 573 OFFCURVE",
"325 587 OFFCURVE",
"325 606 CURVE SMOOTH",
"325 625 OFFCURVE",
"310 640 OFFCURVE",
"291 640 CURVE SMOOTH",
"175 640 LINE",
"175 689 LINE SMOOTH",
"175 715 OFFCURVE",
"154 735 OFFCURVE",
"129 735 CURVE SMOOTH",
"104 735 OFFCURVE",
"84 715 OFFCURVE",
"84 689 CURVE SMOOTH",
"84 640 LINE",
"37 640 LINE SMOOTH",
"18 640 OFFCURVE",
"4 625 OFFCURVE",
"4 606 CURVE SMOOTH",
"4 587 OFFCURVE",
"18 573 OFFCURVE",
"37 573 CURVE SMOOTH",
"84 573 LINE",
"84 40 LINE SMOOTH",
"84 15 OFFCURVE",
"104 -5 OFFCURVE",
"129 -5 CURVE SMOOTH"
);
}
);
width = 614;
}
);
leftKerningGroup = hbar;
widthMetricsKey = "=h+5";
rightKerningGroup = hbar;
rightMetricsKey = n;
unicode = 0127;
},
{
glyphname = i;
layers = (
{
anchors = (
{
name = bottom;
position = "{125, 0}";
}
);
layerId = "A99C00BB-606F-4263-964D-93C8B7F0BADD";
paths = (
{
closed = 1;
nodes = (
"150 -5 OFFCURVE",
"170 15 OFFCURVE",
"170 40 CURVE SMOOTH",
"170 469 LINE SMOOTH",
"170 495 OFFCURVE",
"150 515 OFFCURVE",
"124 515 CURVE SMOOTH",
"99 515 OFFCURVE",
"79 495 OFFCURVE",
"79 469 CURVE SMOOTH",
"79 40 LINE SMOOTH",
"79 15 OFFCURVE",
"99 -5 OFFCURVE",
"124 -5 CURVE SMOOTH"
);
},
{
closed = 1;
nodes = (
"128 614 LINE SMOOTH",
"156 614 OFFCURVE",
"179 637 OFFCURVE",
"179 665 CURVE SMOOTH",
"179 669 LINE SMOOTH",
"179 697 OFFCURVE",
"156 720 OFFCURVE",
"128 720 CURVE SMOOTH",
"122 720 LINE SMOOTH",
"94 720 OFFCURVE",
"71 697 OFFCURVE",
"71 669 CURVE SMOOTH",
"71 665 LINE SMOOTH",
"71 637 OFFCURVE",
"94 614 OFFCURVE",
"122 614 CURVE SMOOTH"
);
}
);
width = 249;
}
);
leftKerningGroup = i;
note = i;
rightKerningGroup = i;
unicode = 0069;
},
{
glyphname = idotless;
layers = (
{
anchors = (
{
name = bottom;
position = "{125, 0}";
},
{
name = ogonek;
position = "{158, 10}";
},
{
name = top;
position = "{125, 510}";
}
);
layerId = "A99C00BB-606F-4263-964D-93C8B7F0BADD";
paths = (
{
closed = 1;
nodes = (
"150 -5 OFFCURVE",
"170 15 OFFCURVE",
"170 40 CURVE SMOOTH",
"170 469 LINE SMOOTH",
"170 495 OFFCURVE",
"150 515 OFFCURVE",
"124 515 CURVE SMOOTH",
"99 515 OFFCURVE",
"79 495 OFFCURVE",
"79 469 CURVE SMOOTH",
"79 40 LINE SMOOTH",
"79 15 OFFCURVE",
"99 -5 OFFCURVE",
"124 -5 CURVE SMOOTH"
);
}
);
width = 249;
}
);
leftKerningGroup = n;
leftMetricsKey = n;
rightKerningGroup = u;
rightMetricsKey = "=|n";
unicode = 0131;
},
{
color = 10;
glyphname = iacute;
layers = (
{
background = {
paths = (
{
closed = 1;
nodes = (
"154 -5 OFFCURVE",
"174 15 OFFCURVE",
"174 40 CURVE SMOOTH",
"174 469 LINE SMOOTH",
"174 495 OFFCURVE",
"154 515 OFFCURVE",
"128 515 CURVE SMOOTH",
"103 515 OFFCURVE",
"83 495 OFFCURVE",
"83 469 CURVE SMOOTH",
"83 40 LINE SMOOTH",
"83 15 OFFCURVE",
"103 -5 OFFCURVE",
"128 -5 CURVE SMOOTH"
);
},
{
closed = 1;
nodes = (
"124 567 OFFCURVE",
"130 571 OFFCURVE",
"136 578 CURVE SMOOTH",
"205 660 LINE SMOOTH",
"212 668 OFFCURVE",
"215 676 OFFCURVE",
"215 685 CURVE SMOOTH",
"215 707 OFFCURVE",
"200 722 OFFCURVE",
"178 722 CURVE SMOOTH",
"161 722 OFFCURVE",
"151 714 OFFCURVE",
"145 703 CURVE SMOOTH",
"94 613 LINE",
"92 610 OFFCURVE",
"87 602 OFFCURVE",
"87 594 CURVE SMOOTH",
"87 578 OFFCURVE",
"98 567 OFFCURVE",
"114 567 CURVE SMOOTH"
);
}
);
};
components = (
{
name = idotless;
},
{
name = acutecomb;
transform = "{1, 0, 0, 1, -75, 0}";
}
);
layerId = "A99C00BB-606F-4263-964D-93C8B7F0BADD";
width = 249;
}
);
leftKerningGroup = i;
note = iacute;
rightKerningGroup = i;
unicode = 00ED;
},
{
color = 10;
glyphname = icircumflex;
layers = (
{
background = {
paths = (
{
closed = 1;
nodes = (
"154 -5 OFFCURVE",
"174 15 OFFCURVE",
"174 40 CURVE SMOOTH",
"174 469 LINE SMOOTH",
"174 495 OFFCURVE",
"154 515 OFFCURVE",
"128 515 CURVE SMOOTH",
"103 515 OFFCURVE",
"83 495 OFFCURVE",
"83 469 CURVE SMOOTH",
"83 40 LINE SMOOTH",
"83 15 OFFCURVE",
"103 -5 OFFCURVE",
"128 -5 CURVE SMOOTH"
);
},
{
closed = 1;
nodes = (
"29 566 OFFCURVE",
"37 569 OFFCURVE",
"41 573 CURVE",
"128 647 LINE",
"215 573 LINE",
"219 569 OFFCURVE",
"227 566 OFFCURVE",
"233 566 CURVE SMOOTH",
"250 566 OFFCURVE",
"264 581 OFFCURVE",
"263 596 CURVE",
"263 603 OFFCURVE",
"260 610 OFFCURVE",
"255 615 CURVE SMOOTH",
"187 685 LINE SMOOTH",
"177 696 OFFCURVE",
"166 705 OFFCURVE",
"147 705 CURVE SMOOTH",
"109 705 LINE SMOOTH",
"90 705 OFFCURVE",
"79 696 OFFCURVE",
"69 685 CURVE SMOOTH",
"1 615 LINE SMOOTH",
"-4 610 OFFCURVE",
"-7 603 OFFCURVE",
"-7 596 CURVE",
"-8 581 OFFCURVE",
"6 566 OFFCURVE",
"23 566 CURVE SMOOTH"
);
}
);
};
components = (
{
name = idotless;
},
{
name = circumflexcomb;
transform = "{1, 0, 0, 1, -75, 0}";
}
);
layerId = "A99C00BB-606F-4263-964D-93C8B7F0BADD";
width = 249;
}
);
leftKerningGroup = i;
note = icircumflex;
rightKerningGroup = i;
unicode = 00EE;
},
{
color = 10;
glyphname = idieresis;
layers = (
{
background = {
paths = (
{
closed = 1;
nodes = (
"154 -5 OFFCURVE",
"174 15 OFFCURVE",
"174 40 CURVE SMOOTH",
"174 469 LINE SMOOTH",
"174 495 OFFCURVE",
"154 515 OFFCURVE",
"128 515 CURVE SMOOTH",
"103 515 OFFCURVE",
"83 495 OFFCURVE",
"83 469 CURVE SMOOTH",
"83 40 LINE SMOOTH",
"83 15 OFFCURVE",
"103 -5 OFFCURVE",
"128 -5 CURVE SMOOTH"
);
},
{
closed = 1;
nodes = (
"72 575 OFFCURVE",
"95 598 OFFCURVE",
"95 626 CURVE SMOOTH",
"95 654 OFFCURVE",
"72 677 OFFCURVE",
"44 677 CURVE SMOOTH",
"16 677 OFFCURVE",
"-7 654 OFFCURVE",
"-7 626 CURVE SMOOTH",
"-7 598 OFFCURVE",
"16 575 OFFCURVE",
"44 575 CURVE SMOOTH"
);
},
{
closed = 1;
nodes = (
"241 575 OFFCURVE",
"264 598 OFFCURVE",
"264 626 CURVE SMOOTH",
"264 654 OFFCURVE",
"241 677 OFFCURVE",
"213 677 CURVE SMOOTH",
"185 677 OFFCURVE",
"162 654 OFFCURVE",
"162 626 CURVE SMOOTH",
"162 598 OFFCURVE",
"185 575 OFFCURVE",
"213 575 CURVE SMOOTH"
);
}
);
};
components = (
{
name = idotless;
},
{
name = dieresiscomb;
transform = "{1, 0, 0, 1, -75, 0}";
}
);
layerId = "A99C00BB-606F-4263-964D-93C8B7F0BADD";
width = 249;
}
);
leftKerningGroup = i;
note = idieresis;
rightKerningGroup = i;
unicode = 00EF;
},
{
color = 10;
glyphname = igrave;
layers = (
{
background = {
paths = (
{
closed = 1;
nodes = (
"154 -5 OFFCURVE",
"174 15 OFFCURVE",
"174 40 CURVE SMOOTH",
"174 469 LINE SMOOTH",
"174 495 OFFCURVE",
"154 515 OFFCURVE",
"128 515 CURVE SMOOTH",
"103 515 OFFCURVE",
"83 495 OFFCURVE",
"83 469 CURVE SMOOTH",
"83 40 LINE SMOOTH",
"83 15 OFFCURVE",
"103 -5 OFFCURVE",
"128 -5 CURVE SMOOTH"
);
},
{
closed = 1;
nodes = (
"159 567 OFFCURVE",
"170 578 OFFCURVE",
"170 594 CURVE SMOOTH",
"170 602 OFFCURVE",
"165 610 OFFCURVE",
"163 613 CURVE",
"112 703 LINE SMOOTH",
"106 714 OFFCURVE",
"96 722 OFFCURVE",
"79 722 CURVE SMOOTH",
"57 722 OFFCURVE",
"42 707 OFFCURVE",
"42 685 CURVE SMOOTH",
"42 676 OFFCURVE",
"45 668 OFFCURVE",
"52 660 CURVE SMOOTH",
"121 578 LINE SMOOTH",
"127 571 OFFCURVE",
"133 567 OFFCURVE",
"143 567 CURVE SMOOTH"
);
}
);
};
components = (
{
name = idotless;
},
{
name = gravecomb;
transform = "{1, 0, 0, 1, -75, 0}";
}
);
layerId = "A99C00BB-606F-4263-964D-93C8B7F0BADD";
width = 249;
}
);
leftKerningGroup = i;
note = igrave;
rightKerningGroup = i;
unicode = 00EC;
},
{
color = 3;
glyphname = iogonek;
layers = (
{
background = {
paths = (
{
closed = 1;
nodes = (
"150 -5 OFFCURVE",
"170 15 OFFCURVE",
"170 40 CURVE SMOOTH",
"170 469 LINE SMOOTH",
"170 495 OFFCURVE",
"150 515 OFFCURVE",
"124 515 CURVE SMOOTH",
"99 515 OFFCURVE",
"79 495 OFFCURVE",
"79 469 CURVE SMOOTH",
"79 40 LINE SMOOTH",
"79 15 OFFCURVE",
"99 -5 OFFCURVE",
"124 -5 CURVE SMOOTH"
);
},
{
closed = 1;
nodes = (
"153 575 OFFCURVE",
"176 598 OFFCURVE",
"176 626 CURVE SMOOTH",
"176 654 OFFCURVE",
"153 677 OFFCURVE",
"125 677 CURVE SMOOTH",
"97 677 OFFCURVE",
"74 654 OFFCURVE",
"74 626 CURVE SMOOTH",
"74 598 OFFCURVE",
"97 575 OFFCURVE",
"125 575 CURVE SMOOTH"
);
},
{
closed = 1;
nodes = (
"103 -203 OFFCURVE",
"131 -194 OFFCURVE",
"152 -179 CURVE SMOOTH",
"159 -174 OFFCURVE",
"163 -168 OFFCURVE",
"163 -161 CURVE SMOOTH",
"163 -148 OFFCURVE",
"154 -139 OFFCURVE",
"141 -139 CURVE SMOOTH",
"138 -139 OFFCURVE",
"135 -140 OFFCURVE",
"132 -141 CURVE SMOOTH",
"122 -144 OFFCURVE",
"111 -147 OFFCURVE",
"97 -147 CURVE SMOOTH",
"61 -147 OFFCURVE",
"46 -129 OFFCURVE",
"46 -100 CURVE SMOOTH",
"46 -50 OFFCURVE",
"111 -12 OFFCURVE",
"158 10 CURVE",
"77 10 LINE",
"24 -17 OFFCURVE",
"-27 -55 OFFCURVE",
"-27 -119 CURVE SMOOTH",
"-27 -172 OFFCURVE",
"18 -203 OFFCURVE",
"66 -203 CURVE SMOOTH"
);
}
);
};
layerId = "A99C00BB-606F-4263-964D-93C8B7F0BADD";
paths = (
{
closed = 1;
nodes = (
"158 -203 OFFCURVE",
"186 -194 OFFCURVE",
"207 -179 CURVE SMOOTH",
"214 -174 OFFCURVE",
"218 -168 OFFCURVE",
"218 -161 CURVE SMOOTH",
"218 -148 OFFCURVE",
"209 -139 OFFCURVE",
"196 -139 CURVE SMOOTH",
"193 -139 OFFCURVE",
"190 -140 OFFCURVE",
"187 -141 CURVE SMOOTH",
"177 -144 OFFCURVE",
"166 -147 OFFCURVE",
"152 -147 CURVE SMOOTH",
"118 -147 OFFCURVE",
"101 -127 OFFCURVE",
"101 -97 CURVE SMOOTH",
"101 -40 OFFCURVE",
"144 -10 OFFCURVE",
"158 10 CURVE SMOOTH",
"167 23 OFFCURVE",
"170 32 OFFCURVE",
"170 50 CURVE SMOOTH",
"170 469 LINE SMOOTH",
"170 494 OFFCURVE",
"149 515 OFFCURVE",
"124 515 CURVE SMOOTH",
"99 515 OFFCURVE",
"79 494 OFFCURVE",
"79 469 CURVE SMOOTH",
"79 40 LINE SMOOTH",
"79 25 OFFCURVE",
"86 12 OFFCURVE",
"98 4 CURVE",
"57 -23 OFFCURVE",
"28 -62 OFFCURVE",
"28 -109 CURVE SMOOTH",
"28 -167 OFFCURVE",
"73 -203 OFFCURVE",
"131 -203 CURVE SMOOTH"
);
},
{
closed = 1;
nodes = (
"153 575 OFFCURVE",
"176 598 OFFCURVE",
"176 626 CURVE SMOOTH",
"176 654 OFFCURVE",
"153 677 OFFCURVE",
"125 677 CURVE SMOOTH",
"97 677 OFFCURVE",
"74 654 OFFCURVE",
"74 626 CURVE SMOOTH",
"74 598 OFFCURVE",
"97 575 OFFCURVE",
"125 575 CURVE SMOOTH"
);
}
);
width = 249;
}
);
leftKerningGroup = idotless;
rightKerningGroup = idotless;
unicode = 012F;
},
{
glyphname = j;
layers = (
{
layerId = "A99C00BB-606F-4263-964D-93C8B7F0BADD";
paths = (
{
closed = 1;
nodes = (
"140 -240 OFFCURVE",
"175 -180 OFFCURVE",
"175 -103 CURVE SMOOTH",
"175 468 LINE SMOOTH",
"175 494 OFFCURVE",
"155 514 OFFCURVE",
"129 514 CURVE SMOOTH",
"104 514 OFFCURVE",
"84 494 OFFCURVE",
"84 468 CURVE SMOOTH",
"84 -101 LINE SMOOTH",
"84 -155 OFFCURVE",
"58 -160 OFFCURVE",
"23 -160 CURVE SMOOTH",
"11 -160 OFFCURVE",
"2 -157 OFFCURVE",
"-7 -157 CURVE SMOOTH",
"-29 -157 OFFCURVE",
"-45 -175 OFFCURVE",
"-45 -195 CURVE SMOOTH",
"-45 -212 OFFCURVE",
"-35 -226 OFFCURVE",
"-19 -231 CURVE SMOOTH",
"-1 -237 OFFCURVE",
"20 -240 OFFCURVE",
"44 -240 CURVE SMOOTH"
);
},
{
closed = 1;
nodes = (
"133 614 LINE SMOOTH",
"161 614 OFFCURVE",
"184 637 OFFCURVE",
"184 665 CURVE SMOOTH",
"184 669 LINE SMOOTH",
"184 697 OFFCURVE",
"161 720 OFFCURVE",
"133 720 CURVE SMOOTH",
"127 720 LINE SMOOTH",
"99 720 OFFCURVE",
"76 697 OFFCURVE",
"76 669 CURVE SMOOTH",
"76 665 LINE SMOOTH",
"76 637 OFFCURVE",
"99 614 OFFCURVE",
"127 614 CURVE SMOOTH"
);
}
);
width = 254;
}
);
leftKerningGroup = i;
note = j;
rightKerningGroup = i;
unicode = 006A;
},
{
glyphname = jdotless;
layers = (
{
anchors = (
{
name = bottom;
position = "{130, 0}";
},
{
name = top;
position = "{130, 510}";
}
);
layerId = "A99C00BB-606F-4263-964D-93C8B7F0BADD";
paths = (
{
closed = 1;
nodes = (
"140 -240 OFFCURVE",
"175 -180 OFFCURVE",
"175 -103 CURVE SMOOTH",
"175 468 LINE SMOOTH",
"175 494 OFFCURVE",
"155 514 OFFCURVE",
"129 514 CURVE SMOOTH",
"104 514 OFFCURVE",
"84 494 OFFCURVE",
"84 468 CURVE SMOOTH",
"84 -101 LINE SMOOTH",
"84 -155 OFFCURVE",
"58 -160 OFFCURVE",
"23 -160 CURVE SMOOTH",
"11 -160 OFFCURVE",
"2 -157 OFFCURVE",
"-7 -157 CURVE SMOOTH",
"-29 -157 OFFCURVE",
"-45 -175 OFFCURVE",
"-45 -195 CURVE SMOOTH",
"-45 -212 OFFCURVE",
"-35 -226 OFFCURVE",
"-19 -231 CURVE SMOOTH",
"-1 -237 OFFCURVE",
"20 -240 OFFCURVE",
"44 -240 CURVE SMOOTH"
);
}
);
width = 254;
}
);
leftKerningGroup = i;
note = dotlessj;
rightKerningGroup = i;
rightMetricsKey = "=|n";
unicode = 0237;
},
{
glyphname = k;
layers = (
{
anchors = (
{
name = bottom;
position = "{273, 0}";
},
{
name = top;
position = "{273, 510}";
}
);
layerId = "A99C00BB-606F-4263-964D-93C8B7F0BADD";
paths = (
{
closed = 1;
nodes = (
"149 -5 OFFCURVE",
"170 15 OFFCURVE",
"170 40 CURVE SMOOTH",
"170 169 LINE",
"257 248 LINE",
"429 14 LINE",
"438 3 OFFCURVE",
"452 -5 OFFCURVE",
"466 -5 CURVE SMOOTH",
"493 -5 OFFCURVE",
"512 12 OFFCURVE",
"512 39 CURVE SMOOTH",
"512 49 OFFCURVE",
"508 58 OFFCURVE",
"502 66 CURVE SMOOTH",
"321 306 LINE",
"465 435 LINE",
"479 449 OFFCURVE",
"482 461 OFFCURVE",
"482 469 CURVE SMOOTH",
"482 489 OFFCURVE",
"472 513 OFFCURVE",
"438 513 CURVE SMOOTH",
"426 513 OFFCURVE",
"416 507 OFFCURVE",
"408 500 CURVE SMOOTH",
"170 280 LINE",
"170 689 LINE SMOOTH",
"170 714 OFFCURVE",
"149 735 OFFCURVE",
"124 735 CURVE SMOOTH",
"99 735 OFFCURVE",
"79 714 OFFCURVE",
"79 689 CURVE SMOOTH",
"79 40 LINE SMOOTH",
"79 15 OFFCURVE",
"99 -5 OFFCURVE",
"124 -5 CURVE SMOOTH"
);
}
);
width = 545;
}
);
leftKerningGroup = h;
leftMetricsKey = l;
note = k;
rightKerningGroup = k;
unicode = 006B;
},
{
color = 3;
glyphname = kgreenlandic;
layers = (
{
anchors = (
{
name = bottom;
position = "{273, 0}";
},
{
name = top;
position = "{273, 510}";
}
);
layerId = "A99C00BB-606F-4263-964D-93C8B7F0BADD";
paths = (
{
closed = 1;
nodes = (
"149 -5 OFFCURVE",
"170 15 OFFCURVE",
"170 40 CURVE SMOOTH",
"170 169 LINE",
"257 248 LINE",
"429 14 LINE",
"438 3 OFFCURVE",
"452 -5 OFFCURVE",
"466 -5 CURVE SMOOTH",
"493 -5 OFFCURVE",
"512 12 OFFCURVE",
"512 39 CURVE SMOOTH",
"512 49 OFFCURVE",
"508 58 OFFCURVE",
"502 66 CURVE SMOOTH",
"321 306 LINE",
"465 435 LINE",
"479 449 OFFCURVE",
"482 461 OFFCURVE",
"482 469 CURVE SMOOTH",
"482 489 OFFCURVE",
"472 513 OFFCURVE",
"438 513 CURVE SMOOTH",
"426 513 OFFCURVE",
"416 507 OFFCURVE",
"408 500 CURVE SMOOTH",
"170 280 LINE",
"170 469 LINE SMOOTH",
"170 494 OFFCURVE",
"149 515 OFFCURVE",
"124 515 CURVE SMOOTH",
"99 515 OFFCURVE",
"79 494 OFFCURVE",
"79 469 CURVE SMOOTH",
"79 40 LINE SMOOTH",
"79 15 OFFCURVE",
"99 -5 OFFCURVE",
"124 -5 CURVE SMOOTH"
);
}
);
width = 545;
}
);
leftKerningGroup = n;
leftMetricsKey = n;
rightKerningGroup = k;
rightMetricsKey = k;
unicode = 0138;
},
{
glyphname = l;
layers = (
{
anchors = (
{
name = bottom;
position = "{125, 0}";
},
{
name = center;
position = "{125, 255}";
},
{
name = top;
position = "{125, 732}";
},
{
name = topright;
position = "{200, 732}";
}
);
layerId = "A99C00BB-606F-4263-964D-93C8B7F0BADD";
paths = (
{
closed = 1;
nodes = (
"150 -5 OFFCURVE",
"170 15 OFFCURVE",
"170 40 CURVE SMOOTH",
"170 689 LINE SMOOTH",
"170 715 OFFCURVE",
"150 735 OFFCURVE",
"124 735 CURVE SMOOTH",
"99 735 OFFCURVE",
"79 715 OFFCURVE",
"79 689 CURVE SMOOTH",
"79 40 LINE SMOOTH",
"79 15 OFFCURVE",
"99 -5 OFFCURVE",
"124 -5 CURVE SMOOTH"
);
}
);
width = 249;
}
);
leftKerningGroup = h;
note = l;
rightKerningGroup = l;
unicode = 006C;
},
{
color = 3;
glyphname = ldot;
layers = (
{
layerId = "A99C00BB-606F-4263-964D-93C8B7F0BADD";
paths = (
{
closed = 1;
nodes = (
"150 -5 OFFCURVE",
"170 15 OFFCURVE",
"170 40 CURVE SMOOTH",
"170 689 LINE SMOOTH",
"170 715 OFFCURVE",
"150 735 OFFCURVE",
"124 735 CURVE SMOOTH",
"99 735 OFFCURVE",
"79 715 OFFCURVE",
"79 689 CURVE SMOOTH",
"79 40 LINE SMOOTH",
"79 15 OFFCURVE",
"99 -5 OFFCURVE",
"124 -5 CURVE SMOOTH"
);
},
{
closed = 1;
nodes = (
"288 316 OFFCURVE",
"311 339 OFFCURVE",
"311 367 CURVE SMOOTH",
"311 395 OFFCURVE",
"288 418 OFFCURVE",
"260 418 CURVE SMOOTH",
"232 418 OFFCURVE",
"209 395 OFFCURVE",
"209 367 CURVE SMOOTH",
"209 339 OFFCURVE",
"232 316 OFFCURVE",
"260 316 CURVE SMOOTH"
);
}
);
width = 269;
}
);
leftKerningGroup = h;
leftMetricsKey = l;
widthMetricsKey = "=l+20";
rightKerningGroup = l;
unicode = 0140;
},
{
color = 3;
glyphname = lslash;
layers = (
{
background = {
paths = (
{
closed = 1;
nodes = (
"283 573 LINE SMOOTH",
"302 573 OFFCURVE",
"317 587 OFFCURVE",
"317 606 CURVE SMOOTH",
"317 625 OFFCURVE",
"302 640 OFFCURVE",
"283 640 CURVE SMOOTH",
"37 640 LINE SMOOTH",
"18 640 OFFCURVE",
"4 625 OFFCURVE",
"4 606 CURVE SMOOTH",
"4 587 OFFCURVE",
"18 573 OFFCURVE",
"37 573 CURVE SMOOTH"
);
},
{
closed = 1;
nodes = (
"244 461 LINE SMOOTH",
"277 494 OFFCURVE",
"227 540 OFFCURVE",
"196 509 CURVE SMOOTH",
"14 326 LINE SMOOTH",
"-17 295 OFFCURVE",
"30 247 OFFCURVE",
"61 278 CURVE SMOOTH"
);
}
);
};
guideLines = (
{
angle = 90;
position = "{4, 228}";
},
{
angle = 90;
position = "{255, 365}";
}
);
layerId = "A99C00BB-606F-4263-964D-93C8B7F0BADD";
paths = (
{
closed = 1;
nodes = (
"155 -5 OFFCURVE",
"175 15 OFFCURVE",
"175 40 CURVE SMOOTH",
"175 392 LINE",
"244 461 LINE SMOOTH",
"252 469 OFFCURVE",
"255 477 OFFCURVE",
"255 485 CURVE SMOOTH",
"255 503 OFFCURVE",
"238 519 OFFCURVE",
"219 519 CURVE SMOOTH",
"211 519 OFFCURVE",
"203 516 OFFCURVE",
"196 509 CURVE SMOOTH",
"175 488 LINE",
"175 689 LINE SMOOTH",
"175 715 OFFCURVE",
"155 735 OFFCURVE",
"129 735 CURVE SMOOTH",
"104 735 OFFCURVE",
"84 715 OFFCURVE",
"84 689 CURVE SMOOTH",
"84 396 LINE",
"14 326 LINE SMOOTH",
"7 319 OFFCURVE",
"4 311 OFFCURVE",
"4 303 CURVE SMOOTH",
"4 285 OFFCURVE",
"20 268 OFFCURVE",
"38 268 CURVE SMOOTH",
"46 268 OFFCURVE",
"54 271 OFFCURVE",
"61 278 CURVE SMOOTH",
"84 301 LINE",
"84 40 LINE SMOOTH",
"84 15 OFFCURVE",
"104 -5 OFFCURVE",
"129 -5 CURVE SMOOTH"
);
}
);
width = 259;
}
);
leftKerningGroup = hbar;
rightKerningGroup = l;
unicode = 0142;
},
{
glyphname = m;
layers = (
{
anchors = (
{
name = bottom;
position = "{459, 0}";
},
{
name = top;
position = "{459, 510}";
}
);
layerId = "A99C00BB-606F-4263-964D-93C8B7F0BADD";
paths = (
{
closed = 1;
nodes = (
"149 -5 OFFCURVE",
"170 15 OFFCURVE",
"170 40 CURVE SMOOTH",
"170 340 LINE",
"197 385 OFFCURVE",
"238 436 OFFCURVE",
"314 436 CURVE SMOOTH",
"390 436 OFFCURVE",
"416 394 OFFCURVE",
"416 310 CURVE SMOOTH",
"416 40 LINE SMOOTH",
"416 15 OFFCURVE",
"436 -5 OFFCURVE",
"461 -5 CURVE SMOOTH",
"486 -5 OFFCURVE",
"507 15 OFFCURVE",
"507 40 CURVE SMOOTH",
"507 340 LINE",
"534 385 OFFCURVE",
"575 436 OFFCURVE",
"651 436 CURVE SMOOTH",
"727 436 OFFCURVE",
"753 394 OFFCURVE",
"753 310 CURVE SMOOTH",
"753 40 LINE SMOOTH",
"753 15 OFFCURVE",
"773 -5 OFFCURVE",
"798 -5 CURVE SMOOTH",
"823 -5 OFFCURVE",
"844 15 OFFCURVE",
"844 40 CURVE SMOOTH",
"844 328 LINE SMOOTH",
"844 417 OFFCURVE",
"795 520 OFFCURVE",
"677 520 CURVE SMOOTH",
"567 520 OFFCURVE",
"516 455 OFFCURVE",
"493 417 CURVE",
"472 469 OFFCURVE",
"420 520 OFFCURVE",
"340 520 CURVE SMOOTH",
"245 520 OFFCURVE",
"198 467 OFFCURVE",
"170 428 CURVE",
"170 469 LINE SMOOTH",
"170 494 OFFCURVE",
"149 515 OFFCURVE",
"124 515 CURVE SMOOTH",
"99 515 OFFCURVE",
"79 494 OFFCURVE",
"79 469 CURVE SMOOTH",
"79 40 LINE SMOOTH",
"79 15 OFFCURVE",
"99 -5 OFFCURVE",
"124 -5 CURVE SMOOTH"
);
}
);
width = 918;
}
);
leftKerningGroup = n;
leftMetricsKey = n;
note = m;
rightKerningGroup = n;
rightMetricsKey = n;
unicode = 006D;
},
{
glyphname = n;
layers = (
{
anchors = (
{
name = bottom;
position = "{305, 0}";
},
{
name = top;
position = "{305, 510}";
}
);
layerId = "A99C00BB-606F-4263-964D-93C8B7F0BADD";
paths = (
{
closed = 1;
nodes = (
"149 -5 OFFCURVE",
"170 15 OFFCURVE",
"170 40 CURVE SMOOTH",
"170 340 LINE",
"210 390 OFFCURVE",
"262 436 OFFCURVE",
"334 436 CURVE SMOOTH",
"412 436 OFFCURVE",
"444 390 OFFCURVE",
"444 314 CURVE SMOOTH",
"444 40 LINE SMOOTH",
"444 15 OFFCURVE",
"464 -5 OFFCURVE",
"489 -5 CURVE SMOOTH",
"514 -5 OFFCURVE",
"535 15 OFFCURVE",
"535 40 CURVE SMOOTH",
"535 324 LINE SMOOTH",
"535 431 OFFCURVE",
"470 520 OFFCURVE",
"356 520 CURVE SMOOTH",
"267 520 OFFCURVE",
"212 474 OFFCURVE",
"170 428 CURVE",
"170 469 LINE SMOOTH",
"170 495 OFFCURVE",
"149 515 OFFCURVE",
"124 515 CURVE SMOOTH",
"99 515 OFFCURVE",
"79 495 OFFCURVE",
"79 469 CURVE SMOOTH",
"79 40 LINE SMOOTH",
"79 15 OFFCURVE",
"99 -5 OFFCURVE",
"124 -5 CURVE SMOOTH"
);
}
);
width = 609;
}
);
leftKerningGroup = n;
note = n;
rightKerningGroup = n;
unicode = 006E;
},
{
color = 3;
glyphname = napostrophe;
layers = (
{
components = (
{
name = n;
}
);
layerId = "A99C00BB-606F-4263-964D-93C8B7F0BADD";
paths = (
{
closed = 1;
nodes = (
"4 554 OFFCURVE",
"11 556 OFFCURVE",
"15 560 CURVE SMOOTH",
"52 587 OFFCURVE",
"73 612 OFFCURVE",
"73 655 CURVE SMOOTH",
"73 686 LINE SMOOTH",
"73 713 OFFCURVE",
"55 735 OFFCURVE",
"27 735 CURVE SMOOTH",
"0 735 OFFCURVE",
"-20 713 OFFCURVE",
"-20 687 CURVE SMOOTH",
"-20 661 OFFCURVE",
"-1 643 OFFCURVE",
"26 643 CURVE",
"26 619 OFFCURVE",
"8 606 OFFCURVE",
"-7 595 CURVE SMOOTH",
"-14 590 OFFCURVE",
"-20 585 OFFCURVE",
"-20 576 CURVE SMOOTH",
"-20 562 OFFCURVE",
"-10 554 OFFCURVE",
"-1 554 CURVE SMOOTH"
);
}
);
width = 609;
}
);
leftKerningGroup = napostrophe;
widthMetricsKey = n;
rightKerningGroup = napostrophe;
rightMetricsKey = n;
unicode = 0149;
},
{
color = 3;
glyphname = eng;
layers = (
{
background = {
paths = (
{
closed = 1;
nodes = (
"500 -240 OFFCURVE",
"535 -180 OFFCURVE",
"535 -103 CURVE SMOOTH",
"535 168 LINE SMOOTH",
"535 194 OFFCURVE",
"515 214 OFFCURVE",
"489 214 CURVE SMOOTH",
"464 214 OFFCURVE",
"444 194 OFFCURVE",
"444 168 CURVE SMOOTH",
"444 -101 LINE SMOOTH",
"444 -155 OFFCURVE",
"418 -160 OFFCURVE",
"383 -160 CURVE SMOOTH",
"371 -160 OFFCURVE",
"362 -157 OFFCURVE",
"353 -157 CURVE SMOOTH",
"331 -157 OFFCURVE",
"315 -175 OFFCURVE",
"315 -195 CURVE SMOOTH",
"315 -212 OFFCURVE",
"325 -226 OFFCURVE",
"341 -231 CURVE SMOOTH",
"359 -237 OFFCURVE",
"380 -240 OFFCURVE",
"404 -240 CURVE SMOOTH"
);
},
{
closed = 1;
nodes = (
"149 -5 OFFCURVE",
"170 15 OFFCURVE",
"170 40 CURVE SMOOTH",
"170 340 LINE",
"210 390 OFFCURVE",
"262 436 OFFCURVE",
"334 436 CURVE SMOOTH",
"412 436 OFFCURVE",
"444 390 OFFCURVE",
"444 314 CURVE SMOOTH",
"444 40 LINE SMOOTH",
"444 15 OFFCURVE",
"464 -5 OFFCURVE",
"489 -5 CURVE SMOOTH",
"514 -5 OFFCURVE",
"535 15 OFFCURVE",
"535 40 CURVE SMOOTH",
"535 324 LINE SMOOTH",
"535 431 OFFCURVE",
"470 520 OFFCURVE",
"356 520 CURVE SMOOTH",
"267 520 OFFCURVE",
"212 474 OFFCURVE",
"170 428 CURVE",
"170 469 LINE SMOOTH",
"170 495 OFFCURVE",
"149 515 OFFCURVE",
"124 515 CURVE SMOOTH",
"99 515 OFFCURVE",
"79 495 OFFCURVE",
"79 469 CURVE SMOOTH",
"79 40 LINE SMOOTH",
"79 15 OFFCURVE",
"99 -5 OFFCURVE",
"124 -5 CURVE SMOOTH"
);
}
);
};
layerId = "A99C00BB-606F-4263-964D-93C8B7F0BADD";
paths = (
{
closed = 1;
nodes = (
"500 -240 OFFCURVE",
"535 -170 OFFCURVE",
"535 -83 CURVE SMOOTH",
"535 324 LINE SMOOTH",
"535 431 OFFCURVE",
"470 520 OFFCURVE",
"356 520 CURVE SMOOTH",
"267 520 OFFCURVE",
"212 474 OFFCURVE",
"170 428 CURVE",
"170 469 LINE SMOOTH",
"170 495 OFFCURVE",
"149 515 OFFCURVE",
"124 515 CURVE SMOOTH",
"99 515 OFFCURVE",
"79 495 OFFCURVE",
"79 469 CURVE SMOOTH",
"79 40 LINE SMOOTH",
"79 15 OFFCURVE",
"99 -5 OFFCURVE",
"124 -5 CURVE SMOOTH",
"149 -5 OFFCURVE",
"170 15 OFFCURVE",
"170 40 CURVE SMOOTH",
"170 340 LINE",
"210 390 OFFCURVE",
"262 436 OFFCURVE",
"334 436 CURVE SMOOTH",
"412 436 OFFCURVE",
"444 390 OFFCURVE",
"444 314 CURVE SMOOTH",
"444 -81 LINE SMOOTH",
"444 -145 OFFCURVE",
"418 -160 OFFCURVE",
"383 -160 CURVE SMOOTH",
"371 -160 OFFCURVE",
"362 -157 OFFCURVE",
"353 -157 CURVE SMOOTH",
"331 -157 OFFCURVE",
"315 -175 OFFCURVE",
"315 -195 CURVE SMOOTH",
"315 -212 OFFCURVE",
"325 -226 OFFCURVE",
"341 -231 CURVE SMOOTH",
"359 -237 OFFCURVE",
"380 -240 OFFCURVE",
"404 -240 CURVE SMOOTH"
);
}
);
width = 609;
}
);
leftKerningGroup = n;
leftMetricsKey = n;
widthMetricsKey = n;
rightKerningGroup = j;
unicode = 014B;
},
{
glyphname = o;
layers = (
{
anchors = (
{
name = bottom;
position = "{304, 0}";
},
{
name = center;
position = "{304, 255}";
},
{
name = ogonek;
position = "{410, 10}";
},
{
name = top;
position = "{304, 510}";
},
{
name = topright;
position = "{378, 510}";
}
);
layerId = "A99C00BB-606F-4263-964D-93C8B7F0BADD";
paths = (
{
closed = 1;
nodes = (
"458 -10 OFFCURVE",
"560 97 OFFCURVE",
"560 255 CURVE SMOOTH",
"560 413 OFFCURVE",
"458 520 OFFCURVE",
"304 520 CURVE SMOOTH",
"149 520 OFFCURVE",
"48 413 OFFCURVE",
"48 255 CURVE SMOOTH",
"48 97 OFFCURVE",
"149 -10 OFFCURVE",
"304 -10 CURVE SMOOTH"
);
},
{
closed = 1;
nodes = (
"227 73 OFFCURVE",
"139 123 OFFCURVE",
"139 256 CURVE SMOOTH",
"139 388 OFFCURVE",
"227 437 OFFCURVE",
"304 437 CURVE SMOOTH",
"380 437 OFFCURVE",
"469 388 OFFCURVE",
"469 256 CURVE SMOOTH",
"469 123 OFFCURVE",
"380 73 OFFCURVE",
"304 73 CURVE SMOOTH"
);
}
);
width = 608;
}
);
leftKerningGroup = o;
note = o;
rightKerningGroup = o;
unicode = 006F;
},
{
color = 3;
glyphname = ohorn;
layers = (
{
anchors = (
{
name = bottom;
position = "{304, 0}";
},
{
name = top;
position = "{304, 510}";
}
);
background = {
paths = (
{
closed = 1;
nodes = (
"458 -10 OFFCURVE",
"560 97 OFFCURVE",
"560 255 CURVE SMOOTH",
"560 358 OFFCURVE",
"516 440 OFFCURVE",
"443 484 CURVE",
"304 520 LINE",
"149 520 OFFCURVE",
"48 413 OFFCURVE",
"48 255 CURVE SMOOTH",
"48 97 OFFCURVE",
"149 -10 OFFCURVE",
"304 -10 CURVE SMOOTH"
);
},
{
closed = 1;
nodes = (
"227 73 OFFCURVE",
"139 123 OFFCURVE",
"139 256 CURVE SMOOTH",
"139 388 OFFCURVE",
"227 437 OFFCURVE",
"304 437 CURVE SMOOTH",
"380 437 OFFCURVE",
"469 388 OFFCURVE",
"469 256 CURVE SMOOTH",
"469 123 OFFCURVE",
"380 73 OFFCURVE",
"304 73 CURVE SMOOTH"
);
},
{
closed = 1;
nodes = (
"518 438 OFFCURVE",
"560 499 OFFCURVE",
"560 565 CURVE SMOOTH",
"560 628 OFFCURVE",
"540 665 OFFCURVE",
"510 665 CURVE SMOOTH",
"492 665 OFFCURVE",
"477 651 OFFCURVE",
"477 632 CURVE SMOOTH",
"477 617 OFFCURVE",
"484 603 OFFCURVE",
"484 581 CURVE SMOOTH",
"484 536 OFFCURVE",
"459 510 OFFCURVE",
"412 510 CURVE SMOOTH",
"381 510 OFFCURVE",
"348 520 OFFCURVE",
"304 520 CURVE",
"359 446 LINE",
"386 440 OFFCURVE",
"402 438 OFFCURVE",
"418 438 CURVE SMOOTH"
);
}
);
};
layerId = "A99C00BB-606F-4263-964D-93C8B7F0BADD";
paths = (
{
closed = 1;
nodes = (
"458 -10 OFFCURVE",
"560 97 OFFCURVE",
"560 255 CURVE SMOOTH",
"560 336 OFFCURVE",
"533 403 OFFCURVE",
"486 450 CURVE",
"538 471 OFFCURVE",
"560 517 OFFCURVE",
"560 565 CURVE SMOOTH",
"560 628 OFFCURVE",
"540 665 OFFCURVE",
"510 665 CURVE SMOOTH",
"492 665 OFFCURVE",
"477 651 OFFCURVE",
"477 632 CURVE SMOOTH",
"477 617 OFFCURVE",
"484 603 OFFCURVE",
"484 581 CURVE SMOOTH",
"484 536 OFFCURVE",
"459 510 OFFCURVE",
"412 510 CURVE SMOOTH",
"381 510 OFFCURVE",
"348 520 OFFCURVE",
"304 520 CURVE SMOOTH",
"149 520 OFFCURVE",
"48 413 OFFCURVE",
"48 255 CURVE SMOOTH",
"48 97 OFFCURVE",
"149 -10 OFFCURVE",
"304 -10 CURVE SMOOTH"
);
},
{
closed = 1;
nodes = (
"227 73 OFFCURVE",
"139 123 OFFCURVE",
"139 256 CURVE SMOOTH",
"139 388 OFFCURVE",
"227 437 OFFCURVE",
"304 437 CURVE SMOOTH",
"380 437 OFFCURVE",
"469 388 OFFCURVE",
"469 256 CURVE SMOOTH",
"469 123 OFFCURVE",
"380 73 OFFCURVE",
"304 73 CURVE SMOOTH"
);
}
);
width = 608;
}
);
leftKerningGroup = o;
leftMetricsKey = o;
widthMetricsKey = o;
rightKerningGroup = o;
unicode = 01A1;
},
{
color = 3;
glyphname = oogonek;
layers = (
{
anchors = (
{
name = top;
position = "{304, 510}";
}
);
background = {
paths = (
{
closed = 1;
nodes = (
"458 -10 OFFCURVE",
"560 97 OFFCURVE",
"560 255 CURVE SMOOTH",
"560 413 OFFCURVE",
"458 520 OFFCURVE",
"304 520 CURVE SMOOTH",
"149 520 OFFCURVE",
"48 413 OFFCURVE",
"48 255 CURVE SMOOTH",
"48 97 OFFCURVE",
"149 -10 OFFCURVE",
"304 -10 CURVE SMOOTH"
);
},
{
closed = 1;
nodes = (
"227 73 OFFCURVE",
"139 123 OFFCURVE",
"139 256 CURVE SMOOTH",
"139 388 OFFCURVE",
"227 437 OFFCURVE",
"304 437 CURVE SMOOTH",
"380 437 OFFCURVE",
"469 388 OFFCURVE",
"469 256 CURVE SMOOTH",
"469 123 OFFCURVE",
"380 73 OFFCURVE",
"304 73 CURVE SMOOTH"
);
},
{
closed = 1;
nodes = (
"355 -203 OFFCURVE",
"383 -194 OFFCURVE",
"404 -179 CURVE SMOOTH",
"411 -174 OFFCURVE",
"415 -168 OFFCURVE",
"415 -161 CURVE SMOOTH",
"415 -148 OFFCURVE",
"406 -139 OFFCURVE",
"393 -139 CURVE SMOOTH",
"390 -139 OFFCURVE",
"387 -140 OFFCURVE",
"384 -141 CURVE SMOOTH",
"374 -144 OFFCURVE",
"363 -147 OFFCURVE",
"349 -147 CURVE SMOOTH",
"313 -147 OFFCURVE",
"298 -129 OFFCURVE",
"298 -100 CURVE SMOOTH",
"298 -50 OFFCURVE",
"363 -12 OFFCURVE",
"410 10 CURVE",
"329 10 LINE",
"276 -17 OFFCURVE",
"225 -55 OFFCURVE",
"225 -119 CURVE SMOOTH",
"225 -172 OFFCURVE",
"270 -203 OFFCURVE",
"318 -203 CURVE SMOOTH"
);
}
);
};
layerId = "A99C00BB-606F-4263-964D-93C8B7F0BADD";
paths = (
{
closed = 1;
nodes = (
"355 -203 OFFCURVE",
"383 -194 OFFCURVE",
"404 -179 CURVE SMOOTH",
"411 -174 OFFCURVE",
"415 -168 OFFCURVE",
"415 -161 CURVE SMOOTH",
"415 -148 OFFCURVE",
"406 -139 OFFCURVE",
"393 -139 CURVE SMOOTH",
"390 -139 OFFCURVE",
"387 -140 OFFCURVE",
"384 -141 CURVE SMOOTH",
"374 -144 OFFCURVE",
"363 -147 OFFCURVE",
"349 -147 CURVE SMOOTH",
"313 -147 OFFCURVE",
"298 -129 OFFCURVE",
"298 -100 CURVE SMOOTH",
"298 -55 OFFCURVE",
"357 -11 OFFCURVE",
"411 11 CURVE SMOOTH",
"500 47 OFFCURVE",
"560 135 OFFCURVE",
"560 255 CURVE SMOOTH",
"560 413 OFFCURVE",
"458 520 OFFCURVE",
"304 520 CURVE SMOOTH",
"149 520 OFFCURVE",
"48 413 OFFCURVE",
"48 255 CURVE SMOOTH",
"48 100 OFFCURVE",
"145 -6 OFFCURVE",
"294 -10 CURVE",
"256 -35 OFFCURVE",
"225 -69 OFFCURVE",
"225 -119 CURVE SMOOTH",
"225 -172 OFFCURVE",
"270 -203 OFFCURVE",
"318 -203 CURVE SMOOTH"
);
},
{
closed = 1;
nodes = (
"227 73 OFFCURVE",
"139 123 OFFCURVE",
"139 256 CURVE SMOOTH",
"139 388 OFFCURVE",
"227 437 OFFCURVE",
"304 437 CURVE SMOOTH",
"380 437 OFFCURVE",
"469 388 OFFCURVE",
"469 256 CURVE SMOOTH",
"469 123 OFFCURVE",
"380 73 OFFCURVE",
"304 73 CURVE SMOOTH"
);
}
);
width = 608;
}
);
leftKerningGroup = o;
leftMetricsKey = o;
widthMetricsKey = o;
rightKerningGroup = o;
unicode = 01EB;
},
{
glyphname = oslash;
layers = (
{
anchors = (
{
name = top;
position = "{304, 510}";
}
);
layerId = "A99C00BB-606F-4263-964D-93C8B7F0BADD";
paths = (
{
closed = 1;
nodes = (
"128 -31 OFFCURVE",
"136 -28 OFFCURVE",
"141 -21 CURVE SMOOTH",
"171 22 LINE",
"209 1 OFFCURVE",
"253 -10 OFFCURVE",
"304 -10 CURVE SMOOTH",
"458 -10 OFFCURVE",
"560 97 OFFCURVE",
"560 255 CURVE SMOOTH",
"560 341 OFFCURVE",
"530 412 OFFCURVE",
"477 458 CURVE",
"505 498 LINE SMOOTH",
"509 504 OFFCURVE",
"511 509 OFFCURVE",
"511 515 CURVE SMOOTH",
"511 528 OFFCURVE",
"501 539 OFFCURVE",
"486 539 CURVE SMOOTH",
"478 539 OFFCURVE",
"470 536 OFFCURVE",
"465 529 CURVE SMOOTH",
"436 488 LINE",
"398 508 OFFCURVE",
"354 520 OFFCURVE",
"304 520 CURVE SMOOTH",
"149 520 OFFCURVE",
"48 413 OFFCURVE",
"48 255 CURVE SMOOTH",
"48 169 OFFCURVE",
"78 98 OFFCURVE",
"130 51 CURVE",
"101 10 LINE SMOOTH",
"97 4 OFFCURVE",
"95 -1 OFFCURVE",
"95 -7 CURVE SMOOTH",
"95 -20 OFFCURVE",
"105 -31 OFFCURVE",
"120 -31 CURVE SMOOTH"
);
},
{
closed = 1;
nodes = (
"156 154 OFFCURVE",
"139 197 OFFCURVE",
"139 256 CURVE SMOOTH",
"139 388 OFFCURVE",
"227 437 OFFCURVE",
"304 437 CURVE SMOOTH",
"331 437 OFFCURVE",
"360 430 OFFCURVE",
"386 416 CURVE",
"182 125 LINE"
);
},
{
closed = 1;
nodes = (
"276 73 OFFCURVE",
"248 79 OFFCURVE",
"222 94 CURVE",
"426 385 LINE",
"451 356 OFFCURVE",
"469 314 OFFCURVE",
"469 256 CURVE SMOOTH",
"469 123 OFFCURVE",
"380 73 OFFCURVE",
"304 73 CURVE SMOOTH"
);
}
);
width = 608;
}
);
leftKerningGroup = o;
leftMetricsKey = o;
note = oslash;
rightKerningGroup = o;
rightMetricsKey = o;
unicode = 00F8;
},
{
color = 3;
glyphname = oe;
layers = (
{
anchors = (
{
name = bottom;
position = "{515, 0}";
},
{
name = top;
position = "{515, 510}";
}
);
background = {
paths = (
{
closed = 1;
nodes = (
"458 -10 OFFCURVE",
"560 97 OFFCURVE",
"560 255 CURVE SMOOTH",
"560 413 OFFCURVE",
"458 520 OFFCURVE",
"304 520 CURVE SMOOTH",
"149 520 OFFCURVE",
"48 413 OFFCURVE",
"48 255 CURVE SMOOTH",
"48 97 OFFCURVE",
"149 -10 OFFCURVE",
"304 -10 CURVE SMOOTH"
);
},
{
closed = 1;
nodes = (
"227 73 OFFCURVE",
"139 123 OFFCURVE",
"139 256 CURVE SMOOTH",
"139 388 OFFCURVE",
"227 437 OFFCURVE",
"304 437 CURVE SMOOTH",
"380 437 OFFCURVE",
"469 388 OFFCURVE",
"469 256 CURVE SMOOTH",
"469 123 OFFCURVE",
"380 73 OFFCURVE",
"304 73 CURVE SMOOTH"
);
},
{
closed = 1;
nodes = (
"815 -10 OFFCURVE",
"859 9 OFFCURVE",
"903 34 CURVE SMOOTH",
"917 42 OFFCURVE",
"929 55 OFFCURVE",
"929 71 CURVE SMOOTH",
"929 94 OFFCURVE",
"910 110 OFFCURVE",
"889 110 CURVE SMOOTH",
"882 110 OFFCURVE",
"877 109 OFFCURVE",
"871 106 CURVE SMOOTH",
"834 87 OFFCURVE",
"796 75 OFFCURVE",
"736 75 CURVE SMOOTH",
"628 75 OFFCURVE",
"571 133 OFFCURVE",
"561 223 CURVE",
"900 223 LINE SMOOTH",
"928 223 OFFCURVE",
"946 243 OFFCURVE",
"946 268 CURVE SMOOTH",
"946 401 OFFCURVE",
"862 520 OFFCURVE",
"708 520 CURVE SMOOTH",
"542 520 OFFCURVE",
"469 390 OFFCURVE",
"469 255 CURVE SMOOTH",
"469 87 OFFCURVE",
"565 -10 OFFCURVE",
"728 -10 CURVE SMOOTH"
);
},
{
closed = 1;
nodes = (
"567 401 OFFCURVE",
"644 443 OFFCURVE",
"708 443 CURVE SMOOTH",
"772 443 OFFCURVE",
"850 401 OFFCURVE",
"856 297 CURVE",
"561 297 LINE"
);
}
);
};
layerId = "A99C00BB-606F-4263-964D-93C8B7F0BADD";
paths = (
{
closed = 1;
nodes = (
"448 -10 OFFCURVE",
"550 97 OFFCURVE",
"550 255 CURVE SMOOTH",
"550 413 OFFCURVE",
"448 520 OFFCURVE",
"304 520 CURVE SMOOTH",
"149 520 OFFCURVE",
"48 413 OFFCURVE",
"48 255 CURVE SMOOTH",
"48 97 OFFCURVE",
"149 -10 OFFCURVE",
"304 -10 CURVE SMOOTH"
);
},
{
closed = 1;
nodes = (
"227 73 OFFCURVE",
"139 123 OFFCURVE",
"139 256 CURVE SMOOTH",
"139 388 OFFCURVE",
"227 437 OFFCURVE",
"304 437 CURVE SMOOTH",
"380 437 OFFCURVE",
"469 388 OFFCURVE",
"469 256 CURVE SMOOTH",
"469 123 OFFCURVE",
"380 73 OFFCURVE",
"304 73 CURVE SMOOTH"
);
},
{
closed = 1;
nodes = (
"815 -10 OFFCURVE",
"859 9 OFFCURVE",
"903 34 CURVE SMOOTH",
"917 42 OFFCURVE",
"929 55 OFFCURVE",
"929 71 CURVE SMOOTH",
"929 94 OFFCURVE",
"910 110 OFFCURVE",
"889 110 CURVE SMOOTH",
"882 110 OFFCURVE",
"877 109 OFFCURVE",
"871 106 CURVE SMOOTH",
"834 87 OFFCURVE",
"796 75 OFFCURVE",
"736 75 CURVE SMOOTH",
"628 75 OFFCURVE",
"571 133 OFFCURVE",
"561 223 CURVE",
"900 223 LINE SMOOTH",
"928 223 OFFCURVE",
"946 243 OFFCURVE",
"946 268 CURVE SMOOTH",
"946 401 OFFCURVE",
"862 520 OFFCURVE",
"708 520 CURVE SMOOTH",
"549 520 OFFCURVE",
"479 390 OFFCURVE",
"479 255 CURVE SMOOTH",
"479 87 OFFCURVE",
"572 -10 OFFCURVE",
"728 -10 CURVE SMOOTH"
);
},
{
closed = 1;
nodes = (
"567 401 OFFCURVE",
"644 443 OFFCURVE",
"708 443 CURVE SMOOTH",
"772 443 OFFCURVE",
"850 401 OFFCURVE",
"856 297 CURVE",
"561 297 LINE"
);
}
);
width = 987;
}
);
leftKerningGroup = o;
leftMetricsKey = o;
rightKerningGroup = e;
rightMetricsKey = e;
unicode = 0153;
},
{
glyphname = p;
layers = (
{
anchors = (
{
name = bottom;
position = "{316, 0}";
},
{
name = top;
position = "{316, 510}";
}
);
layerId = "A99C00BB-606F-4263-964D-93C8B7F0BADD";
paths = (
{
closed = 1;
nodes = (
"150 -235 OFFCURVE",
"170 -215 OFFCURVE",
"170 -189 CURVE SMOOTH",
"170 66 LINE",
"216 18 OFFCURVE",
"271 -10 OFFCURVE",
"341 -10 CURVE SMOOTH",
"462 -10 OFFCURVE",
"583 85 OFFCURVE",
"583 255 CURVE SMOOTH",
"583 425 OFFCURVE",
"462 520 OFFCURVE",
"341 520 CURVE SMOOTH",
"271 520 OFFCURVE",
"216 492 OFFCURVE",
"170 444 CURVE",
"170 470 LINE SMOOTH",
"170 495 OFFCURVE",
"150 515 OFFCURVE",
"124 515 CURVE SMOOTH",
"99 515 OFFCURVE",
"79 495 OFFCURVE",
"79 470 CURVE SMOOTH",
"79 -189 LINE SMOOTH",
"79 -215 OFFCURVE",
"99 -235 OFFCURVE",
"124 -235 CURVE SMOOTH"
);
},
{
closed = 1;
nodes = (
"263 75 OFFCURVE",
"209 107 OFFCURVE",
"170 150 CURVE",
"170 360 LINE",
"209 403 OFFCURVE",
"263 435 OFFCURVE",
"328 435 CURVE SMOOTH",
"423 435 OFFCURVE",
"492 373 OFFCURVE",
"492 255 CURVE SMOOTH",
"492 137 OFFCURVE",
"423 75 OFFCURVE",
"328 75 CURVE SMOOTH"
);
}
);
width = 631;
}
);
leftKerningGroup = n;
leftMetricsKey = n;
note = p;
rightKerningGroup = o;
rightMetricsKey = o;
unicode = 0070;
},
{
glyphname = thorn;
layers = (
{
anchors = (
{
name = bottom;
position = "{316, 0}";
},
{
name = top;
position = "{316, 510}";
}
);
layerId = "A99C00BB-606F-4263-964D-93C8B7F0BADD";
paths = (
{
closed = 1;
nodes = (
"150 -235 OFFCURVE",
"170 -215 OFFCURVE",
"170 -189 CURVE SMOOTH",
"170 66 LINE",
"216 18 OFFCURVE",
"271 -10 OFFCURVE",
"341 -10 CURVE SMOOTH",
"462 -10 OFFCURVE",
"583 85 OFFCURVE",
"583 255 CURVE SMOOTH",
"583 425 OFFCURVE",
"462 520 OFFCURVE",
"341 520 CURVE SMOOTH",
"271 520 OFFCURVE",
"216 492 OFFCURVE",
"170 444 CURVE",
"170 689 LINE SMOOTH",
"170 715 OFFCURVE",
"150 735 OFFCURVE",
"124 735 CURVE SMOOTH",
"99 735 OFFCURVE",
"79 715 OFFCURVE",
"79 689 CURVE SMOOTH",
"79 -189 LINE SMOOTH",
"79 -215 OFFCURVE",
"99 -235 OFFCURVE",
"124 -235 CURVE SMOOTH"
);
},
{
closed = 1;
nodes = (
"263 75 OFFCURVE",
"209 107 OFFCURVE",
"170 150 CURVE",
"170 360 LINE",
"209 403 OFFCURVE",
"263 435 OFFCURVE",
"328 435 CURVE SMOOTH",
"423 435 OFFCURVE",
"492 373 OFFCURVE",
"492 255 CURVE SMOOTH",
"492 137 OFFCURVE",
"423 75 OFFCURVE",
"328 75 CURVE SMOOTH"
);
}
);
width = 631;
}
);
leftKerningGroup = h;
note = thorn;
rightKerningGroup = o;
rightMetricsKey = o;
unicode = 00FE;
},
{
glyphname = q;
layers = (
{
anchors = (
{
name = bottom;
position = "{316, 0}";
},
{
name = top;
position = "{316, 510}";
}
);
layerId = "A99C00BB-606F-4263-964D-93C8B7F0BADD";
paths = (
{
closed = 1;
nodes = (
"532 -235 OFFCURVE",
"552 -215 OFFCURVE",
"552 -189 CURVE SMOOTH",
"552 470 LINE SMOOTH",
"552 495 OFFCURVE",
"532 515 OFFCURVE",
"507 515 CURVE SMOOTH",
"481 515 OFFCURVE",
"461 495 OFFCURVE",
"461 470 CURVE SMOOTH",
"461 444 LINE",
"415 492 OFFCURVE",
"360 520 OFFCURVE",
"290 520 CURVE SMOOTH",
"169 520 OFFCURVE",
"48 425 OFFCURVE",
"48 255 CURVE SMOOTH",
"48 85 OFFCURVE",
"169 -10 OFFCURVE",
"290 -10 CURVE SMOOTH",
"360 -10 OFFCURVE",
"415 18 OFFCURVE",
"461 66 CURVE",
"461 -189 LINE SMOOTH",
"461 -215 OFFCURVE",
"481 -235 OFFCURVE",
"507 -235 CURVE SMOOTH"
);
},
{
closed = 1;
nodes = (
"208 75 OFFCURVE",
"139 137 OFFCURVE",
"139 255 CURVE SMOOTH",
"139 373 OFFCURVE",
"208 435 OFFCURVE",
"303 435 CURVE SMOOTH",
"368 435 OFFCURVE",
"422 403 OFFCURVE",
"461 360 CURVE",
"461 150 LINE",
"422 107 OFFCURVE",
"368 75 OFFCURVE",
"303 75 CURVE SMOOTH"
);
}
);
width = 631;
}
);
leftKerningGroup = o;
leftMetricsKey = o;
note = q;
rightKerningGroup = u;
unicode = 0071;
},
{
glyphname = r;
layers = (
{
anchors = (
{
name = bottom;
position = "{124, 0}";
},
{
name = top;
position = "{208, 510}";
}
);
layerId = "A99C00BB-606F-4263-964D-93C8B7F0BADD";
paths = (
{
closed = 1;
nodes = (
"149 -5 OFFCURVE",
"170 15 OFFCURVE",
"170 40 CURVE SMOOTH",
"170 344 LINE",
"205 396 OFFCURVE",
"259 432 OFFCURVE",
"325 432 CURVE SMOOTH",
"330 432 LINE SMOOTH",
"356 432 OFFCURVE",
"376 449 OFFCURVE",
"376 475 CURVE SMOOTH",
"376 500 OFFCURVE",
"357 520 OFFCURVE",
"332 520 CURVE SMOOTH",
"327 520 LINE SMOOTH",
"258 520 OFFCURVE",
"206 474 OFFCURVE",
"170 426 CURVE",
"170 469 LINE SMOOTH",
"170 494 OFFCURVE",
"149 515 OFFCURVE",
"124 515 CURVE SMOOTH",
"99 515 OFFCURVE",
"79 494 OFFCURVE",
"79 469 CURVE SMOOTH",
"79 40 LINE SMOOTH",
"79 15 OFFCURVE",
"99 -5 OFFCURVE",
"124 -5 CURVE SMOOTH"
);
}
);
width = 383;
}
);
leftKerningGroup = n;
leftMetricsKey = n;
note = r;
rightKerningGroup = r;
unicode = 0072;
},
{
glyphname = s;
layers = (
{
anchors = (
{
name = bottom;
position = "{237, 0}";
},
{
name = top;
position = "{237, 510}";
}
);
layerId = "A99C00BB-606F-4263-964D-93C8B7F0BADD";
paths = (
{
closed = 1;
nodes = (
"372 -10 OFFCURVE",
"437 57 OFFCURVE",
"437 138 CURVE SMOOTH",
"437 334 OFFCURVE",
"136 263 OFFCURVE",
"136 367 CURVE SMOOTH",
"136 407 OFFCURVE",
"177 437 OFFCURVE",
"251 437 CURVE SMOOTH",
"295 437 OFFCURVE",
"333 429 OFFCURVE",
"365 419 CURVE",
"369 418 OFFCURVE",
"373 417 OFFCURVE",
"378 417 CURVE SMOOTH",
"401 417 OFFCURVE",
"418 436 OFFCURVE",
"418 457 CURVE SMOOTH",
"418 472 OFFCURVE",
"408 489 OFFCURVE",
"389 495 CURVE",
"348 510 OFFCURVE",
"299 520 OFFCURVE",
"244 520 CURVE SMOOTH",
"114 520 OFFCURVE",
"49 452 OFFCURVE",
"49 362 CURVE SMOOTH",
"49 180 OFFCURVE",
"349 231 OFFCURVE",
"349 145 CURVE SMOOTH",
"349 100 OFFCURVE",
"315 74 OFFCURVE",
"238 74 CURVE SMOOTH",
"179 74 OFFCURVE",
"138 88 OFFCURVE",
"102 104 CURVE SMOOTH",
"95 107 OFFCURVE",
"90 108 OFFCURVE",
"84 108 CURVE SMOOTH",
"61 108 OFFCURVE",
"45 88 OFFCURVE",
"45 68 CURVE SMOOTH",
"45 54 OFFCURVE",
"52 42 OFFCURVE",
"62 35 CURVE",
"113 7 OFFCURVE",
"171 -10 OFFCURVE",
"244 -10 CURVE SMOOTH"
);
}
);
width = 480;
}
);
leftKerningGroup = s;
note = s;
rightKerningGroup = s;
unicode = 0073;
},
{
glyphname = germandbls;
layers = (
{
layerId = "A99C00BB-606F-4263-964D-93C8B7F0BADD";
paths = (
{
closed = 1;
nodes = (
"468 -10 OFFCURVE",
"563 49 OFFCURVE",
"563 174 CURVE SMOOTH",
"563 292 OFFCURVE",
"476 337 OFFCURVE",
"414 352 CURVE",
"467 369 OFFCURVE",
"524 410 OFFCURVE",
"524 512 CURVE SMOOTH",
"524 648 OFFCURVE",
"407 708 OFFCURVE",
"305 708 CURVE SMOOTH",
"173 708 OFFCURVE",
"79 629 OFFCURVE",
"79 486 CURVE SMOOTH",
"79 41 LINE SMOOTH",
"79 16 OFFCURVE",
"99 -4 OFFCURVE",
"124 -4 CURVE SMOOTH",
"149 -4 OFFCURVE",
"170 16 OFFCURVE",
"170 41 CURVE SMOOTH",
"170 475 LINE SMOOTH",
"170 594 OFFCURVE",
"239 623 OFFCURVE",
"304 623 CURVE SMOOTH",
"384 623 OFFCURVE",
"433 577 OFFCURVE",
"433 502 CURVE SMOOTH",
"433 438 OFFCURVE",
"382 392 OFFCURVE",
"300 383 CURVE SMOOTH",
"278 380 OFFCURVE",
"262 366 OFFCURVE",
"262 346 CURVE SMOOTH",
"262 324 OFFCURVE",
"276 309 OFFCURVE",
"300 309 CURVE SMOOTH",
"398 309 OFFCURVE",
"472 263 OFFCURVE",
"472 185 CURVE SMOOTH",
"472 91 OFFCURVE",
"396 71 OFFCURVE",
"358 71 CURVE SMOOTH",
"330 71 OFFCURVE",
"305 74 OFFCURVE",
"284 81 CURVE",
"279 83 OFFCURVE",
"274 84 OFFCURVE",
"269 84 CURVE SMOOTH",
"246 84 OFFCURVE",
"230 67 OFFCURVE",
"230 45 CURVE SMOOTH",
"230 25 OFFCURVE",
"244 13 OFFCURVE",
"262 7 CURVE SMOOTH",
"291 -3 OFFCURVE",
"329 -10 OFFCURVE",
"373 -10 CURVE SMOOTH"
);
}
);
width = 608;
}
);
leftKerningGroup = l;
note = germandbls;
rightKerningGroup = germandbls;
unicode = 00DF;
},
{
glyphname = longs;
layers = (
{
layerId = "A99C00BB-606F-4263-964D-93C8B7F0BADD";
paths = (
{
closed = 1;
nodes = (
"188 -5 OFFCURVE",
"208 15 OFFCURVE",
"208 40 CURVE SMOOTH",
"208 565 LINE SMOOTH",
"208 636 OFFCURVE",
"240 653 OFFCURVE",
"290 653 CURVE SMOOTH",
"309 653 OFFCURVE",
"324 647 OFFCURVE",
"340 647 CURVE SMOOTH",
"361 647 OFFCURVE",
"377 666 OFFCURVE",
"377 685 CURVE SMOOTH",
"377 701 OFFCURVE",
"366 714 OFFCURVE",
"354 720 CURVE SMOOTH",
"330 732 OFFCURVE",
"300 740 OFFCURVE",
"267 740 CURVE SMOOTH",
"196 740 OFFCURVE",
"117 694 OFFCURVE",
"117 568 CURVE SMOOTH",
"117 510 LINE",
"58 510 LINE SMOOTH",
"36 510 OFFCURVE",
"19 493 OFFCURVE",
"19 471 CURVE SMOOTH",
"19 449 OFFCURVE",
"36 432 OFFCURVE",
"58 432 CURVE SMOOTH",
"117 432 LINE",
"117 40 LINE SMOOTH",
"117 15 OFFCURVE",
"137 -5 OFFCURVE",
"162 -5 CURVE SMOOTH"
);
}
);
width = 287;
}
);
leftKerningGroup = f;
leftMetricsKey = f;
note = longs;
rightKerningGroup = longs;
unicode = 017F;
},
{
glyphname = t;
layers = (
{
anchors = (
{
name = bottom;
position = "{218, 0}";
},
{
name = center;
position = "{155, 255}";
},
{
name = top;
position = "{181, 605}";
},
{
name = topright;
position = "{240, 732}";
}
);
layerId = "A99C00BB-606F-4263-964D-93C8B7F0BADD";
paths = (
{
closed = 1;
nodes = (
"287 -10 OFFCURVE",
"314 -3 OFFCURVE",
"338 8 CURVE SMOOTH",
"352 15 OFFCURVE",
"361 26 OFFCURVE",
"361 43 CURVE SMOOTH",
"361 64 OFFCURVE",
"343 79 OFFCURVE",
"325 79 CURVE SMOOTH",
"308 79 OFFCURVE",
"297 70 OFFCURVE",
"265 70 CURVE SMOOTH",
"240 70 OFFCURVE",
"200 71 OFFCURVE",
"200 130 CURVE SMOOTH",
"200 432 LINE",
"313 432 LINE SMOOTH",
"335 432 OFFCURVE",
"352 449 OFFCURVE",
"352 471 CURVE SMOOTH",
"352 493 OFFCURVE",
"335 510 OFFCURVE",
"313 510 CURVE SMOOTH",
"200 510 LINE",
"200 590 LINE SMOOTH",
"200 601 OFFCURVE",
"192 610 OFFCURVE",
"181 610 CURVE SMOOTH",
"173 610 OFFCURVE",
"167 604 OFFCURVE",
"164 601 CURVE SMOOTH",
"28 468 LINE",
"22 463 OFFCURVE",
"19 457 OFFCURVE",
"19 451 CURVE SMOOTH",
"19 440 OFFCURVE",
"27 432 OFFCURVE",
"38 432 CURVE SMOOTH",
"109 432 LINE",
"109 122 LINE SMOOTH",
"109 -2 OFFCURVE",
"208 -10 OFFCURVE",
"255 -10 CURVE SMOOTH"
);
}
);
width = 382;
}
);
leftKerningGroup = t;
leftMetricsKey = f;
note = t;
rightKerningGroup = t;
unicode = 0074;
},
{
color = 3;
glyphname = tbar;
layers = (
{
background = {
paths = (
{
closed = 1;
nodes = (
"313 247 LINE SMOOTH",
"332 247 OFFCURVE",
"347 261 OFFCURVE",
"347 280 CURVE SMOOTH",
"347 299 OFFCURVE",
"332 314 OFFCURVE",
"313 314 CURVE SMOOTH",
"67 314 LINE SMOOTH",
"48 314 OFFCURVE",
"34 299 OFFCURVE",
"34 280 CURVE SMOOTH",
"34 261 OFFCURVE",
"48 247 OFFCURVE",
"67 247 CURVE SMOOTH"
);
},
{
closed = 1;
nodes = (
"292 -10 OFFCURVE",
"319 -3 OFFCURVE",
"343 8 CURVE SMOOTH",
"357 15 OFFCURVE",
"366 26 OFFCURVE",
"366 43 CURVE SMOOTH",
"366 64 OFFCURVE",
"348 79 OFFCURVE",
"330 79 CURVE SMOOTH",
"313 79 OFFCURVE",
"302 70 OFFCURVE",
"270 70 CURVE SMOOTH",
"245 70 OFFCURVE",
"205 71 OFFCURVE",
"205 130 CURVE SMOOTH",
"205 432 LINE",
"318 432 LINE SMOOTH",
"340 432 OFFCURVE",
"357 449 OFFCURVE",
"357 471 CURVE SMOOTH",
"357 493 OFFCURVE",
"340 510 OFFCURVE",
"318 510 CURVE SMOOTH",
"205 510 LINE",
"205 590 LINE SMOOTH",
"205 601 OFFCURVE",
"197 610 OFFCURVE",
"186 610 CURVE SMOOTH",
"178 610 OFFCURVE",
"172 604 OFFCURVE",
"169 601 CURVE SMOOTH",
"33 468 LINE",
"27 463 OFFCURVE",
"24 457 OFFCURVE",
"24 451 CURVE SMOOTH",
"24 440 OFFCURVE",
"32 432 OFFCURVE",
"43 432 CURVE SMOOTH",
"114 432 LINE",
"114 122 LINE SMOOTH",
"114 -2 OFFCURVE",
"213 -10 OFFCURVE",
"260 -10 CURVE SMOOTH"
);
}
);
};
layerId = "A99C00BB-606F-4263-964D-93C8B7F0BADD";
paths = (
{
closed = 1;
nodes = (
"292 -10 OFFCURVE",
"319 -3 OFFCURVE",
"343 8 CURVE SMOOTH",
"357 15 OFFCURVE",
"366 26 OFFCURVE",
"366 43 CURVE SMOOTH",
"366 64 OFFCURVE",
"348 79 OFFCURVE",
"330 79 CURVE SMOOTH",
"313 79 OFFCURVE",
"302 70 OFFCURVE",
"270 70 CURVE SMOOTH",
"245 70 OFFCURVE",
"205 71 OFFCURVE",
"205 130 CURVE SMOOTH",
"205 247 LINE",
"313 247 LINE SMOOTH",
"332 247 OFFCURVE",
"347 261 OFFCURVE",
"347 280 CURVE SMOOTH",
"347 299 OFFCURVE",
"332 314 OFFCURVE",
"313 314 CURVE SMOOTH",
"205 314 LINE",
"205 432 LINE",
"318 432 LINE SMOOTH",
"340 432 OFFCURVE",
"357 449 OFFCURVE",
"357 471 CURVE SMOOTH",
"357 493 OFFCURVE",
"340 510 OFFCURVE",
"318 510 CURVE SMOOTH",
"205 510 LINE",
"205 590 LINE SMOOTH",
"205 601 OFFCURVE",
"197 610 OFFCURVE",
"186 610 CURVE SMOOTH",
"178 610 OFFCURVE",
"172 604 OFFCURVE",
"169 601 CURVE SMOOTH",
"33 468 LINE",
"27 463 OFFCURVE",
"24 457 OFFCURVE",
"24 451 CURVE SMOOTH",
"24 440 OFFCURVE",
"32 432 OFFCURVE",
"43 432 CURVE SMOOTH",
"114 432 LINE",
"114 314 LINE",
"67 314 LINE SMOOTH",
"48 314 OFFCURVE",
"34 299 OFFCURVE",
"34 280 CURVE SMOOTH",
"34 261 OFFCURVE",
"48 247 OFFCURVE",
"67 247 CURVE SMOOTH",
"114 247 LINE",
"114 122 LINE SMOOTH",
"114 -2 OFFCURVE",
"213 -10 OFFCURVE",
"260 -10 CURVE SMOOTH"
);
}
);
width = 392;
}
);
leftKerningGroup = t;
leftMetricsKey = "=t+5";
rightKerningGroup = t;
rightMetricsKey = "=t+5";
unicode = 0167;
},
{
color = 10;
glyphname = tcommaaccent;
layers = (
{
background = {
paths = (
{
closed = 1;
nodes = (
"289 -10 OFFCURVE",
"316 -3 OFFCURVE",
"340 8 CURVE SMOOTH",
"354 15 OFFCURVE",
"363 26 OFFCURVE",
"363 43 CURVE SMOOTH",
"363 64 OFFCURVE",
"345 79 OFFCURVE",
"327 79 CURVE SMOOTH",
"310 79 OFFCURVE",
"299 70 OFFCURVE",
"267 70 CURVE SMOOTH",
"242 70 OFFCURVE",
"202 71 OFFCURVE",
"202 130 CURVE SMOOTH",
"202 432 LINE",
"315 432 LINE SMOOTH",
"337 432 OFFCURVE",
"354 449 OFFCURVE",
"354 471 CURVE SMOOTH",
"354 493 OFFCURVE",
"337 510 OFFCURVE",
"315 510 CURVE SMOOTH",
"202 510 LINE",
"202 590 LINE SMOOTH",
"202 601 OFFCURVE",
"194 610 OFFCURVE",
"183 610 CURVE SMOOTH",
"175 610 OFFCURVE",
"169 604 OFFCURVE",
"166 601 CURVE SMOOTH",
"30 468 LINE",
"24 463 OFFCURVE",
"21 457 OFFCURVE",
"21 451 CURVE SMOOTH",
"21 440 OFFCURVE",
"29 432 OFFCURVE",
"40 432 CURVE SMOOTH",
"111 432 LINE",
"111 122 LINE SMOOTH",
"111 -2 OFFCURVE",
"210 -10 OFFCURVE",
"257 -10 CURVE SMOOTH"
);
},
{
closed = 1;
nodes = (
"163 -286 OFFCURVE",
"170 -283 OFFCURVE",
"172 -281 CURVE",
"207 -260 OFFCURVE",
"246 -222 OFFCURVE",
"246 -150 CURVE SMOOTH",
"246 -103 LINE",
"246 -98 LINE SMOOTH",
"246 -70 OFFCURVE",
"223 -47 OFFCURVE",
"196 -47 CURVE SMOOTH",
"187 -47 LINE SMOOTH",
"159 -47 OFFCURVE",
"136 -70 OFFCURVE",
"136 -98 CURVE SMOOTH",
"136 -103 LINE SMOOTH",
"136 -131 OFFCURVE",
"159 -153 OFFCURVE",
"187 -153 CURVE SMOOTH",
"190 -153 LINE",
"190 -202 OFFCURVE",
"171 -221 OFFCURVE",
"145 -236 CURVE",
"136 -242 OFFCURVE",
"131 -249 OFFCURVE",
"131 -259 CURVE SMOOTH",
"131 -273 OFFCURVE",
"142 -286 OFFCURVE",
"157 -286 CURVE SMOOTH"
);
}
);
};
components = (
{
name = t;
},
{
name = commaaccentcomb;
transform = "{1, 0, 0, 1, 18, 0}";
}
);
layerId = "A99C00BB-606F-4263-964D-93C8B7F0BADD";
width = 382;
}
);
leftKerningGroup = t;
note = uni021B;
rightKerningGroup = t;
unicode = 021B;
},
{
glyphname = u;
layers = (
{
anchors = (
{
name = bottom;
position = "{305, 0}";
},
{
name = ogonek;
position = "{518, 10}";
},
{
name = top;
position = "{305, 510}";
},
{
name = topright;
position = "{485, 510}";
}
);
layerId = "A99C00BB-606F-4263-964D-93C8B7F0BADD";
paths = (
{
closed = 1;
nodes = (
"342 -10 OFFCURVE",
"397 36 OFFCURVE",
"439 82 CURVE",
"439 41 LINE SMOOTH",
"439 15 OFFCURVE",
"460 -5 OFFCURVE",
"485 -5 CURVE SMOOTH",
"510 -5 OFFCURVE",
"530 15 OFFCURVE",
"530 41 CURVE SMOOTH",
"530 470 LINE SMOOTH",
"530 495 OFFCURVE",
"510 515 OFFCURVE",
"485 515 CURVE SMOOTH",
"460 515 OFFCURVE",
"439 495 OFFCURVE",
"439 470 CURVE SMOOTH",
"439 170 LINE",
"399 120 OFFCURVE",
"347 74 OFFCURVE",
"275 74 CURVE SMOOTH",
"197 74 OFFCURVE",
"165 120 OFFCURVE",
"165 196 CURVE SMOOTH",
"165 470 LINE SMOOTH",
"165 495 OFFCURVE",
"145 515 OFFCURVE",
"120 515 CURVE SMOOTH",
"95 515 OFFCURVE",
"74 495 OFFCURVE",
"74 470 CURVE SMOOTH",
"74 186 LINE SMOOTH",
"74 79 OFFCURVE",
"139 -10 OFFCURVE",
"253 -10 CURVE SMOOTH"
);
}
);
width = 609;
}
);
leftKerningGroup = u;
leftMetricsKey = "=|n";
note = u;
rightKerningGroup = u;
rightMetricsKey = "=|n";
unicode = 0075;
},
{
color = 3;
glyphname = uhorn;
layers = (
{
anchors = (
{
name = bottom;
position = "{305, 0}";
},
{
name = top;
position = "{305, 510}";
}
);
background = {
paths = (
{
closed = 1;
nodes = (
"342 -10 OFFCURVE",
"397 36 OFFCURVE",
"439 82 CURVE",
"439 41 LINE SMOOTH",
"439 15 OFFCURVE",
"460 -5 OFFCURVE",
"485 -5 CURVE SMOOTH",
"510 -5 OFFCURVE",
"530 15 OFFCURVE",
"530 41 CURVE SMOOTH",
"530 470 LINE",
"485 515 LINE",
"460 515 OFFCURVE",
"439 495 OFFCURVE",
"439 470 CURVE SMOOTH",
"439 170 LINE",
"399 120 OFFCURVE",
"347 74 OFFCURVE",
"275 74 CURVE SMOOTH",
"197 74 OFFCURVE",
"165 120 OFFCURVE",
"165 196 CURVE SMOOTH",
"165 470 LINE SMOOTH",
"165 495 OFFCURVE",
"145 515 OFFCURVE",
"120 515 CURVE SMOOTH",
"95 515 OFFCURVE",
"74 495 OFFCURVE",
"74 470 CURVE SMOOTH",
"74 186 LINE SMOOTH",
"74 79 OFFCURVE",
"139 -10 OFFCURVE",
"253 -10 CURVE SMOOTH"
);
},
{
closed = 1;
nodes = (
"641 438 OFFCURVE",
"684 499 OFFCURVE",
"684 565 CURVE SMOOTH",
"684 628 OFFCURVE",
"664 665 OFFCURVE",
"634 665 CURVE SMOOTH",
"616 665 OFFCURVE",
"601 651 OFFCURVE",
"601 632 CURVE SMOOTH",
"601 617 OFFCURVE",
"608 603 OFFCURVE",
"608 581 CURVE SMOOTH",
"608 536 OFFCURVE",
"583 510 OFFCURVE",
"541 510 CURVE SMOOTH",
"517 510 OFFCURVE",
"504 515 OFFCURVE",
"485 515 CURVE",
"485 446 LINE",
"512 440 OFFCURVE",
"527 438 OFFCURVE",
"543 438 CURVE SMOOTH"
);
}
);
};
layerId = "A99C00BB-606F-4263-964D-93C8B7F0BADD";
paths = (
{
closed = 1;
nodes = (
"342 -10 OFFCURVE",
"397 36 OFFCURVE",
"439 82 CURVE",
"439 41 LINE SMOOTH",
"439 15 OFFCURVE",
"460 -5 OFFCURVE",
"485 -5 CURVE SMOOTH",
"510 -5 OFFCURVE",
"530 15 OFFCURVE",
"530 41 CURVE SMOOTH",
"530 470 LINE",
"485 515 LINE",
"460 515 OFFCURVE",
"439 495 OFFCURVE",
"439 470 CURVE SMOOTH",
"439 170 LINE",
"399 120 OFFCURVE",
"347 74 OFFCURVE",
"275 74 CURVE SMOOTH",
"197 74 OFFCURVE",
"165 120 OFFCURVE",
"165 196 CURVE SMOOTH",
"165 470 LINE SMOOTH",
"165 495 OFFCURVE",
"145 515 OFFCURVE",
"120 515 CURVE SMOOTH",
"95 515 OFFCURVE",
"74 495 OFFCURVE",
"74 470 CURVE SMOOTH",
"74 186 LINE SMOOTH",
"74 79 OFFCURVE",
"139 -10 OFFCURVE",
"253 -10 CURVE SMOOTH"
);
},
{
closed = 1;
nodes = (
"627 438 OFFCURVE",
"670 499 OFFCURVE",
"670 565 CURVE SMOOTH",
"670 628 OFFCURVE",
"650 665 OFFCURVE",
"620 665 CURVE SMOOTH",
"602 665 OFFCURVE",
"587 651 OFFCURVE",
"587 632 CURVE SMOOTH",
"587 617 OFFCURVE",
"594 603 OFFCURVE",
"594 580 CURVE SMOOTH",
"594 534 OFFCURVE",
"569 510 OFFCURVE",
"534 510 CURVE SMOOTH",
"517 510 OFFCURVE",
"504 515 OFFCURVE",
"485 515 CURVE",
"485 446 LINE",
"512 440 OFFCURVE",
"524 438 OFFCURVE",
"536 438 CURVE SMOOTH"
);
}
);
width = 619;
}
);
leftKerningGroup = u;
leftMetricsKey = u;
widthMetricsKey = "=u+10";
rightKerningGroup = uhorn;
unicode = 01B0;
},
{
color = 3;
glyphname = uogonek;
layers = (
{
background = {
paths = (
{
closed = 1;
nodes = (
"942 -10 OFFCURVE",
"997 36 OFFCURVE",
"1039 82 CURVE",
"1039 41 LINE SMOOTH",
"1039 15 OFFCURVE",
"1060 -5 OFFCURVE",
"1085 -5 CURVE SMOOTH",
"1110 -5 OFFCURVE",
"1130 15 OFFCURVE",
"1130 41 CURVE SMOOTH",
"1130 470 LINE SMOOTH",
"1130 495 OFFCURVE",
"1110 515 OFFCURVE",
"1085 515 CURVE SMOOTH",
"1060 515 OFFCURVE",
"1039 495 OFFCURVE",
"1039 470 CURVE SMOOTH",
"1039 170 LINE",
"999 120 OFFCURVE",
"947 74 OFFCURVE",
"875 74 CURVE SMOOTH",
"797 74 OFFCURVE",
"765 120 OFFCURVE",
"765 196 CURVE SMOOTH",
"765 470 LINE SMOOTH",
"765 495 OFFCURVE",
"745 515 OFFCURVE",
"720 515 CURVE SMOOTH",
"695 515 OFFCURVE",
"674 495 OFFCURVE",
"674 470 CURVE SMOOTH",
"674 186 LINE SMOOTH",
"674 79 OFFCURVE",
"739 -10 OFFCURVE",
"853 -10 CURVE SMOOTH"
);
},
{
closed = 1;
nodes = (
"1063 -203 OFFCURVE",
"1091 -194 OFFCURVE",
"1112 -179 CURVE SMOOTH",
"1119 -174 OFFCURVE",
"1123 -168 OFFCURVE",
"1123 -161 CURVE SMOOTH",
"1123 -148 OFFCURVE",
"1114 -139 OFFCURVE",
"1101 -139 CURVE SMOOTH",
"1098 -139 OFFCURVE",
"1095 -140 OFFCURVE",
"1092 -141 CURVE SMOOTH",
"1082 -144 OFFCURVE",
"1071 -147 OFFCURVE",
"1057 -147 CURVE SMOOTH",
"1021 -147 OFFCURVE",
"1006 -129 OFFCURVE",
"1006 -100 CURVE SMOOTH",
"1006 -50 OFFCURVE",
"1071 -12 OFFCURVE",
"1118 10 CURVE",
"1037 10 LINE",
"984 -17 OFFCURVE",
"933 -55 OFFCURVE",
"933 -119 CURVE SMOOTH",
"933 -172 OFFCURVE",
"978 -203 OFFCURVE",
"1026 -203 CURVE SMOOTH"
);
},
{
closed = 1;
nodes = (
"530 323 LINE SMOOTH",
"530 421 OFFCURVE",
"467 520 OFFCURVE",
"321 520 CURVE SMOOTH",
"250 520 OFFCURVE",
"195 503 OFFCURVE",
"148 484 CURVE SMOOTH",
"131 477 OFFCURVE",
"122 463 OFFCURVE",
"122 446 CURVE SMOOTH",
"122 424 OFFCURVE",
"139 408 OFFCURVE",
"159 408 CURVE SMOOTH",
"163 408 OFFCURVE",
"168 409 OFFCURVE",
"172 410 CURVE",
"209 422 OFFCURVE",
"249 434 OFFCURVE",
"305 434 CURVE SMOOTH",
"395 434 OFFCURVE",
"439 399 OFFCURVE",
"439 310 CURVE SMOOTH",
"439 302 LINE",
"318 302 LINE SMOOTH",
"162 302 OFFCURVE",
"88 234 OFFCURVE",
"88 140 CURVE SMOOTH",
"88 46 OFFCURVE",
"164 -10 OFFCURVE",
"251 -10 CURVE SMOOTH",
"345 -10 OFFCURVE",
"403 29 OFFCURVE",
"439 66 CURVE",
"439 15 LINE",
"382 -15 OFFCURVE",
"332 -58 OFFCURVE",
"332 -119 CURVE SMOOTH",
"332 -172 OFFCURVE",
"377 -203 OFFCURVE",
"425 -203 CURVE SMOOTH",
"462 -203 OFFCURVE",
"490 -194 OFFCURVE",
"511 -179 CURVE SMOOTH",
"518 -174 OFFCURVE",
"522 -168 OFFCURVE",
"522 -161 CURVE SMOOTH",
"522 -148 OFFCURVE",
"513 -139 OFFCURVE",
"500 -139 CURVE SMOOTH",
"497 -139 OFFCURVE",
"494 -140 OFFCURVE",
"491 -141 CURVE SMOOTH",
"481 -144 OFFCURVE",
"470 -147 OFFCURVE",
"456 -147 CURVE SMOOTH",
"420 -147 OFFCURVE",
"406 -129 OFFCURVE",
"405 -100 CURVE SMOOTH",
"404 -66 OFFCURVE",
"437 -27 OFFCURVE",
"496 -4 CURVE SMOOTH",
"517 4 OFFCURVE",
"530 20 OFFCURVE",
"530 40 CURVE SMOOTH"
);
},
{
closed = 1;
nodes = (
"204 70 OFFCURVE",
"179 107 OFFCURVE",
"179 150 CURVE SMOOTH",
"179 207 OFFCURVE",
"236 229 OFFCURVE",
"330 229 CURVE SMOOTH",
"439 229 LINE",
"439 145 LINE",
"405 106 OFFCURVE",
"347 70 OFFCURVE",
"285 70 CURVE SMOOTH"
);
}
);
};
layerId = "A99C00BB-606F-4263-964D-93C8B7F0BADD";
paths = (
{
closed = 1;
nodes = (
"462 -203 OFFCURVE",
"490 -194 OFFCURVE",
"511 -179 CURVE SMOOTH",
"518 -174 OFFCURVE",
"522 -168 OFFCURVE",
"522 -161 CURVE SMOOTH",
"522 -148 OFFCURVE",
"513 -139 OFFCURVE",
"500 -139 CURVE SMOOTH",
"497 -139 OFFCURVE",
"494 -140 OFFCURVE",
"491 -141 CURVE SMOOTH",
"481 -144 OFFCURVE",
"470 -147 OFFCURVE",
"456 -147 CURVE SMOOTH",
"420 -147 OFFCURVE",
"405 -129 OFFCURVE",
"405 -100 CURVE SMOOTH",
"405 -66 OFFCURVE",
"437 -27 OFFCURVE",
"496 -4 CURVE SMOOTH",
"517 4 OFFCURVE",
"530 20 OFFCURVE",
"530 40 CURVE SMOOTH",
"530 470 LINE SMOOTH",
"530 495 OFFCURVE",
"510 515 OFFCURVE",
"485 515 CURVE SMOOTH",
"460 515 OFFCURVE",
"439 495 OFFCURVE",
"439 470 CURVE SMOOTH",
"439 170 LINE",
"399 120 OFFCURVE",
"347 74 OFFCURVE",
"275 74 CURVE SMOOTH",
"197 74 OFFCURVE",
"165 120 OFFCURVE",
"165 196 CURVE SMOOTH",
"165 470 LINE SMOOTH",
"165 495 OFFCURVE",
"145 515 OFFCURVE",
"120 515 CURVE SMOOTH",
"95 515 OFFCURVE",
"74 495 OFFCURVE",
"74 470 CURVE SMOOTH",
"74 186 LINE SMOOTH",
"74 79 OFFCURVE",
"139 -10 OFFCURVE",
"253 -10 CURVE SMOOTH",
"342 -10 OFFCURVE",
"397 36 OFFCURVE",
"439 82 CURVE",
"439 15 LINE",
"382 -15 OFFCURVE",
"332 -57 OFFCURVE",
"332 -119 CURVE SMOOTH",
"332 -172 OFFCURVE",
"377 -203 OFFCURVE",
"425 -203 CURVE SMOOTH"
);
}
);
width = 609;
}
);
leftKerningGroup = u;
leftMetricsKey = u;
widthMetricsKey = u;
rightKerningGroup = u;
unicode = 0173;
},
{
glyphname = v;
layers = (
{
anchors = (
{
name = bottom;
position = "{265, 0}";
},
{
name = top;
position = "{265, 510}";
}
);
layerId = "A99C00BB-606F-4263-964D-93C8B7F0BADD";
paths = (
{
closed = 1;
nodes = (
"270 -5 LINE SMOOTH",
"295 -5 OFFCURVE",
"316 12 OFFCURVE",
"325 32 CURVE SMOOTH",
"499 448 LINE SMOOTH",
"502 455 OFFCURVE",
"504 461 OFFCURVE",
"504 469 CURVE SMOOTH",
"504 494 OFFCURVE",
"484 515 OFFCURVE",
"459 515 CURVE SMOOTH",
"441 515 OFFCURVE",
"424 504 OFFCURVE",
"418 489 CURVE SMOOTH",
"265 101 LINE",
"112 489 LINE SMOOTH",
"106 504 OFFCURVE",
"89 515 OFFCURVE",
"71 515 CURVE SMOOTH",
"46 515 OFFCURVE",
"26 494 OFFCURVE",
"26 469 CURVE SMOOTH",
"26 461 OFFCURVE",
"28 455 OFFCURVE",
"31 448 CURVE SMOOTH",
"205 32 LINE SMOOTH",
"214 12 OFFCURVE",
"235 -5 OFFCURVE",
"260 -5 CURVE SMOOTH"
);
}
);
width = 530;
}
);
leftKerningGroup = v;
note = v;
rightKerningGroup = v;
unicode = 0076;
},
{
glyphname = w;
layers = (
{
anchors = (
{
name = bottom;
position = "{396, 0}";
},
{
name = top;
position = "{396, 510}";
}
);
layerId = "A99C00BB-606F-4263-964D-93C8B7F0BADD";
paths = (
{
closed = 1;
nodes = (
"258 -5 OFFCURVE",
"281 14 OFFCURVE",
"290 38 CURVE",
"396 369 LINE",
"502 38 LINE",
"511 14 OFFCURVE",
"534 -5 OFFCURVE",
"561 -5 CURVE SMOOTH",
"588 -5 OFFCURVE",
"611 14 OFFCURVE",
"619 37 CURVE SMOOTH",
"761 453 LINE SMOOTH",
"763 459 OFFCURVE",
"764 464 OFFCURVE",
"764 470 CURVE SMOOTH",
"764 495 OFFCURVE",
"744 515 OFFCURVE",
"719 515 CURVE SMOOTH",
"701 515 OFFCURVE",
"683 505 OFFCURVE",
"678 488 CURVE SMOOTH",
"561 103 LINE",
"445 479 LINE SMOOTH",
"439 500 OFFCURVE",
"419 515 OFFCURVE",
"396 515 CURVE SMOOTH",
"373 515 OFFCURVE",
"353 500 OFFCURVE",
"347 479 CURVE SMOOTH",
"231 103 LINE",
"114 488 LINE SMOOTH",
"109 505 OFFCURVE",
"91 515 OFFCURVE",
"73 515 CURVE SMOOTH",
"48 515 OFFCURVE",
"28 495 OFFCURVE",
"28 470 CURVE SMOOTH",
"28 464 OFFCURVE",
"29 459 OFFCURVE",
"31 453 CURVE SMOOTH",
"173 37 LINE SMOOTH",
"181 14 OFFCURVE",
"204 -5 OFFCURVE",
"231 -5 CURVE SMOOTH"
);
}
);
width = 792;
}
);
leftKerningGroup = v;
note = w;
rightKerningGroup = v;
unicode = 0077;
},
{
glyphname = x;
layers = (
{
anchors = (
{
name = bottom;
position = "{270, 0}";
},
{
name = top;
position = "{270, 510}";
}
);
layerId = "A99C00BB-606F-4263-964D-93C8B7F0BADD";
paths = (
{
closed = 1;
nodes = (
"110 -5 OFFCURVE",
"124 3 OFFCURVE",
"133 15 CURVE SMOOTH",
"267 183 LINE",
"409 13 LINE",
"417 2 OFFCURVE",
"430 -5 OFFCURVE",
"444 -5 CURVE SMOOTH",
"475 -5 OFFCURVE",
"490 18 OFFCURVE",
"490 41 CURVE SMOOTH",
"490 49 OFFCURVE",
"487 61 OFFCURVE",
"479 70 CURVE SMOOTH",
"323 258 LINE",
"481 444 LINE",
"487 452 OFFCURVE",
"491 462 OFFCURVE",
"491 472 CURVE SMOOTH",
"491 496 OFFCURVE",
"472 515 OFFCURVE",
"445 515 CURVE SMOOTH",
"431 515 OFFCURVE",
"418 509 OFFCURVE",
"410 498 CURVE",
"271 325 LINE",
"131 498 LINE",
"124 508 OFFCURVE",
"111 515 OFFCURVE",
"95 515 CURVE SMOOTH",
"70 515 OFFCURVE",
"50 498 OFFCURVE",
"50 470 CURVE SMOOTH",
"50 459 OFFCURVE",
"54 450 OFFCURVE",
"61 441 CURVE SMOOTH",
"216 252 LINE",
"61 69 LINE",
"54 60 OFFCURVE",
"51 51 OFFCURVE",
"51 41 CURVE SMOOTH",
"51 13 OFFCURVE",
"68 -5 OFFCURVE",
"94 -5 CURVE SMOOTH"
);
}
);
width = 541;
}
);
leftKerningGroup = x;
note = x;
rightKerningGroup = x;
unicode = 0078;
},
{
glyphname = y;
layers = (
{
anchors = (
{
name = bottom;
position = "{399, 0}";
},
{
name = top;
position = "{269, 510}";
}
);
layerId = "A99C00BB-606F-4263-964D-93C8B7F0BADD";
paths = (
{
closed = 1;
nodes = (
"214 -235 OFFCURVE",
"227 -222 OFFCURVE",
"235 -204 CURVE SMOOTH",
"508 452 LINE SMOOTH",
"510 457 OFFCURVE",
"511 463 OFFCURVE",
"511 469 CURVE SMOOTH",
"511 494 OFFCURVE",
"491 515 OFFCURVE",
"466 515 CURVE SMOOTH",
"446 515 OFFCURVE",
"432 503 OFFCURVE",
"424 485 CURVE SMOOTH",
"267 105 LINE",
"113 487 LINE SMOOTH",
"106 503 OFFCURVE",
"90 515 OFFCURVE",
"71 515 CURVE SMOOTH",
"46 515 OFFCURVE",
"26 494 OFFCURVE",
"26 469 CURVE SMOOTH",
"26 462 OFFCURVE",
"28 455 OFFCURVE",
"30 450 CURVE SMOOTH",
"218 -8 LINE",
"153 -175 LINE SMOOTH",
"151 -180 OFFCURVE",
"150 -186 OFFCURVE",
"150 -191 CURVE SMOOTH",
"150 -215 OFFCURVE",
"169 -235 OFFCURVE",
"193 -235 CURVE SMOOTH"
);
}
);
width = 537;
}
);
leftKerningGroup = v;
leftMetricsKey = v;
note = y;
rightKerningGroup = v;
rightMetricsKey = v;
unicode = 0079;
},
{
glyphname = z;
layers = (
{
anchors = (
{
name = bottom;
position = "{251, 0}";
},
{
name = top;
position = "{251, 510}";
}
);
layerId = "A99C00BB-606F-4263-964D-93C8B7F0BADD";
paths = (
{
closed = 1;
nodes = (
"415 0 LINE SMOOTH",
"439 0 OFFCURVE",
"458 18 OFFCURVE",
"458 42 CURVE SMOOTH",
"458 66 OFFCURVE",
"439 85 OFFCURVE",
"415 85 CURVE SMOOTH",
"158 85 LINE",
"438 413 LINE SMOOTH",
"447 424 OFFCURVE",
"452 437 OFFCURVE",
"452 453 CURVE SMOOTH",
"452 487 OFFCURVE",
"428 510 OFFCURVE",
"394 510 CURVE SMOOTH",
"91 510 LINE SMOOTH",
"67 510 OFFCURVE",
"49 491 OFFCURVE",
"49 467 CURVE SMOOTH",
"49 443 OFFCURVE",
"67 425 OFFCURVE",
"91 425 CURVE SMOOTH",
"344 425 LINE",
"56 94 LINE SMOOTH",
"46 83 OFFCURVE",
"40 69 OFFCURVE",
"40 53 CURVE SMOOTH",
"40 18 OFFCURVE",
"68 0 OFFCURVE",
"103 0 CURVE SMOOTH"
);
}
);
width = 498;
}
);
leftKerningGroup = z;
note = z;
rightKerningGroup = z;
unicode = 007A;
},
{
glyphname = f_f;
layers = (
{
layerId = "A99C00BB-606F-4263-964D-93C8B7F0BADD";
paths = (
{
closed = 1;
nodes = (
"188 -5 OFFCURVE",
"208 15 OFFCURVE",
"208 40 CURVE SMOOTH",
"208 432 LINE",
"511 432 LINE",
"511 40 LINE SMOOTH",
"511 15 OFFCURVE",
"531 -5 OFFCURVE",
"556 -5 CURVE SMOOTH",
"582 -5 OFFCURVE",
"602 15 OFFCURVE",
"602 40 CURVE SMOOTH",
"602 432 LINE",
"727 432 LINE SMOOTH",
"749 432 OFFCURVE",
"766 449 OFFCURVE",
"766 471 CURVE SMOOTH",
"766 493 OFFCURVE",
"749 510 OFFCURVE",
"727 510 CURVE SMOOTH",
"602 510 LINE",
"602 565 LINE SMOOTH",
"602 636 OFFCURVE",
"634 653 OFFCURVE",
"684 653 CURVE SMOOTH",
"703 653 OFFCURVE",
"718 647 OFFCURVE",
"734 647 CURVE SMOOTH",
"755 647 OFFCURVE",
"771 666 OFFCURVE",
"771 685 CURVE SMOOTH",
"771 701 OFFCURVE",
"760 714 OFFCURVE",
"748 720 CURVE SMOOTH",
"724 732 OFFCURVE",
"694 740 OFFCURVE",
"661 740 CURVE SMOOTH",
"590 740 OFFCURVE",
"511 694 OFFCURVE",
"511 568 CURVE SMOOTH",
"511 510 LINE",
"208 510 LINE",
"208 565 LINE SMOOTH",
"208 636 OFFCURVE",
"240 653 OFFCURVE",
"290 653 CURVE SMOOTH",
"309 653 OFFCURVE",
"324 647 OFFCURVE",
"340 647 CURVE SMOOTH",
"361 647 OFFCURVE",
"377 666 OFFCURVE",
"377 685 CURVE SMOOTH",
"377 701 OFFCURVE",
"366 714 OFFCURVE",
"354 720 CURVE SMOOTH",
"330 732 OFFCURVE",
"300 740 OFFCURVE",
"267 740 CURVE SMOOTH",
"196 740 OFFCURVE",
"117 694 OFFCURVE",
"117 568 CURVE SMOOTH",
"117 510 LINE",
"58 510 LINE SMOOTH",
"36 510 OFFCURVE",
"19 493 OFFCURVE",
"19 471 CURVE SMOOTH",
"19 449 OFFCURVE",
"36 432 OFFCURVE",
"58 432 CURVE SMOOTH",
"117 432 LINE",
"117 40 LINE SMOOTH",
"117 15 OFFCURVE",
"137 -5 OFFCURVE",
"162 -5 CURVE SMOOTH"
);
}
);
width = 774;
}
);
leftKerningGroup = f;
leftMetricsKey = f;
note = f_f;
rightKerningGroup = f;
},
{
glyphname = f_f_i;
layers = (
{
layerId = "A99C00BB-606F-4263-964D-93C8B7F0BADD";
paths = (
{
closed = 1;
nodes = (
"188 -5 OFFCURVE",
"208 15 OFFCURVE",
"208 40 CURVE SMOOTH",
"208 432 LINE",
"511 432 LINE",
"511 40 LINE SMOOTH",
"511 15 OFFCURVE",
"531 -5 OFFCURVE",
"556 -5 CURVE SMOOTH",
"582 -5 OFFCURVE",
"602 15 OFFCURVE",
"602 40 CURVE SMOOTH",
"602 432 LINE",
"861 432 LINE",
"861 40 LINE SMOOTH",
"861 15 OFFCURVE",
"881 -5 OFFCURVE",
"906 -5 CURVE SMOOTH",
"932 -5 OFFCURVE",
"952 15 OFFCURVE",
"952 40 CURVE SMOOTH",
"952 464 LINE SMOOTH",
"952 490 OFFCURVE",
"932 510 OFFCURVE",
"906 510 CURVE SMOOTH",
"602 510 LINE",
"602 565 LINE SMOOTH",
"602 636 OFFCURVE",
"634 653 OFFCURVE",
"684 653 CURVE SMOOTH",
"703 653 OFFCURVE",
"718 647 OFFCURVE",
"734 647 CURVE SMOOTH",
"755 647 OFFCURVE",
"771 666 OFFCURVE",
"771 685 CURVE SMOOTH",
"771 701 OFFCURVE",
"760 714 OFFCURVE",
"748 720 CURVE SMOOTH",
"724 732 OFFCURVE",
"694 740 OFFCURVE",
"661 740 CURVE SMOOTH",
"590 740 OFFCURVE",
"511 694 OFFCURVE",
"511 568 CURVE SMOOTH",
"511 510 LINE",
"208 510 LINE",
"208 565 LINE SMOOTH",
"208 636 OFFCURVE",
"240 653 OFFCURVE",
"290 653 CURVE SMOOTH",
"309 653 OFFCURVE",
"324 647 OFFCURVE",
"340 647 CURVE SMOOTH",
"361 647 OFFCURVE",
"377 666 OFFCURVE",
"377 685 CURVE SMOOTH",
"377 701 OFFCURVE",
"366 714 OFFCURVE",
"354 720 CURVE SMOOTH",
"330 732 OFFCURVE",
"300 740 OFFCURVE",
"267 740 CURVE SMOOTH",
"196 740 OFFCURVE",
"117 694 OFFCURVE",
"117 568 CURVE SMOOTH",
"117 510 LINE",
"58 510 LINE SMOOTH",
"36 510 OFFCURVE",
"19 493 OFFCURVE",
"19 471 CURVE SMOOTH",
"19 449 OFFCURVE",
"36 432 OFFCURVE",
"58 432 CURVE SMOOTH",
"117 432 LINE",
"117 40 LINE SMOOTH",
"117 15 OFFCURVE",
"137 -5 OFFCURVE",
"162 -5 CURVE SMOOTH"
);
},
{
closed = 1;
nodes = (
"910 614 LINE SMOOTH",
"938 614 OFFCURVE",
"961 637 OFFCURVE",
"961 665 CURVE SMOOTH",
"961 669 LINE SMOOTH",
"961 697 OFFCURVE",
"938 720 OFFCURVE",
"910 720 CURVE SMOOTH",
"904 720 LINE SMOOTH",
"876 720 OFFCURVE",
"853 697 OFFCURVE",
"853 669 CURVE SMOOTH",
"853 665 LINE SMOOTH",
"853 637 OFFCURVE",
"876 614 OFFCURVE",
"904 614 CURVE SMOOTH"
);
}
);
width = 1031;
}
);
leftKerningGroup = f;
leftMetricsKey = f;
note = f_f_i;
rightKerningGroup = i;
rightMetricsKey = i;
},
{
glyphname = f_f_l;
layers = (
{
layerId = "A99C00BB-606F-4263-964D-93C8B7F0BADD";
paths = (
{
closed = 1;
nodes = (
"188 -5 OFFCURVE",
"208 15 OFFCURVE",
"208 40 CURVE SMOOTH",
"208 432 LINE",
"511 432 LINE",
"511 40 LINE SMOOTH",
"511 15 OFFCURVE",
"531 -5 OFFCURVE",
"556 -5 CURVE SMOOTH",
"582 -5 OFFCURVE",
"602 15 OFFCURVE",
"602 40 CURVE SMOOTH",
"602 432 LINE",
"727 432 LINE SMOOTH",
"749 432 OFFCURVE",
"766 449 OFFCURVE",
"766 471 CURVE SMOOTH",
"766 493 OFFCURVE",
"749 510 OFFCURVE",
"727 510 CURVE SMOOTH",
"602 510 LINE",
"602 565 LINE SMOOTH",
"602 636 OFFCURVE",
"634 653 OFFCURVE",
"684 653 CURVE SMOOTH",
"703 653 OFFCURVE",
"718 647 OFFCURVE",
"734 647 CURVE SMOOTH",
"755 647 OFFCURVE",
"771 666 OFFCURVE",
"771 685 CURVE SMOOTH",
"771 701 OFFCURVE",
"760 714 OFFCURVE",
"748 720 CURVE SMOOTH",
"724 732 OFFCURVE",
"694 740 OFFCURVE",
"661 740 CURVE SMOOTH",
"590 740 OFFCURVE",
"511 694 OFFCURVE",
"511 568 CURVE SMOOTH",
"511 510 LINE",
"208 510 LINE",
"208 565 LINE SMOOTH",
"208 636 OFFCURVE",
"240 653 OFFCURVE",
"290 653 CURVE SMOOTH",
"309 653 OFFCURVE",
"324 647 OFFCURVE",
"340 647 CURVE SMOOTH",
"361 647 OFFCURVE",
"377 666 OFFCURVE",
"377 685 CURVE SMOOTH",
"377 701 OFFCURVE",
"366 714 OFFCURVE",
"354 720 CURVE SMOOTH",
"330 732 OFFCURVE",
"300 740 OFFCURVE",
"267 740 CURVE SMOOTH",
"196 740 OFFCURVE",
"117 694 OFFCURVE",
"117 568 CURVE SMOOTH",
"117 510 LINE",
"58 510 LINE SMOOTH",
"36 510 OFFCURVE",
"19 493 OFFCURVE",
"19 471 CURVE SMOOTH",
"19 449 OFFCURVE",
"36 432 OFFCURVE",
"58 432 CURVE SMOOTH",
"117 432 LINE",
"117 40 LINE SMOOTH",
"117 15 OFFCURVE",
"137 -5 OFFCURVE",
"162 -5 CURVE SMOOTH"
);
},
{
closed = 1;
nodes = (
"931 -5 OFFCURVE",
"951 15 OFFCURVE",
"951 40 CURVE SMOOTH",
"951 689 LINE SMOOTH",
"951 715 OFFCURVE",
"931 735 OFFCURVE",
"905 735 CURVE SMOOTH",
"880 735 OFFCURVE",
"860 715 OFFCURVE",
"860 689 CURVE SMOOTH",
"860 40 LINE SMOOTH",
"860 15 OFFCURVE",
"880 -5 OFFCURVE",
"905 -5 CURVE SMOOTH"
);
}
);
width = 1030;
}
);
leftKerningGroup = f;
leftMetricsKey = f;
note = f_f_l;
rightKerningGroup = l;
rightMetricsKey = l;
},
{
glyphname = f_j;
layers = (
{
layerId = "A99C00BB-606F-4263-964D-93C8B7F0BADD";
paths = (
{
closed = 1;
nodes = (
"523 -240 OFFCURVE",
"558 -180 OFFCURVE",
"558 -103 CURVE SMOOTH",
"558 464 LINE SMOOTH",
"558 489 OFFCURVE",
"540 508 OFFCURVE",
"515 510 CURVE",
"208 510 LINE",
"208 565 LINE SMOOTH",
"208 636 OFFCURVE",
"240 653 OFFCURVE",
"290 653 CURVE SMOOTH",
"309 653 OFFCURVE",
"324 647 OFFCURVE",
"340 647 CURVE SMOOTH",
"361 647 OFFCURVE",
"377 666 OFFCURVE",
"377 685 CURVE SMOOTH",
"377 701 OFFCURVE",
"366 714 OFFCURVE",
"354 720 CURVE SMOOTH",
"330 732 OFFCURVE",
"300 740 OFFCURVE",
"267 740 CURVE SMOOTH",
"196 740 OFFCURVE",
"117 694 OFFCURVE",
"117 568 CURVE SMOOTH",
"117 510 LINE",
"58 510 LINE SMOOTH",
"36 510 OFFCURVE",
"19 493 OFFCURVE",
"19 471 CURVE SMOOTH",
"19 449 OFFCURVE",
"36 432 OFFCURVE",
"58 432 CURVE SMOOTH",
"117 432 LINE",
"117 40 LINE SMOOTH",
"117 15 OFFCURVE",
"137 -5 OFFCURVE",
"162 -5 CURVE SMOOTH",
"188 -5 OFFCURVE",
"208 15 OFFCURVE",
"208 40 CURVE SMOOTH",
"208 432 LINE",
"467 432 LINE",
"467 -101 LINE SMOOTH",
"467 -155 OFFCURVE",
"441 -160 OFFCURVE",
"406 -160 CURVE SMOOTH",
"394 -160 OFFCURVE",
"385 -157 OFFCURVE",
"376 -157 CURVE SMOOTH",
"354 -157 OFFCURVE",
"338 -175 OFFCURVE",
"338 -195 CURVE SMOOTH",
"338 -212 OFFCURVE",
"348 -226 OFFCURVE",
"364 -231 CURVE SMOOTH",
"382 -237 OFFCURVE",
"403 -240 OFFCURVE",
"427 -240 CURVE SMOOTH"
);
},
{
closed = 1;
nodes = (
"516 614 LINE SMOOTH",
"544 614 OFFCURVE",
"567 637 OFFCURVE",
"567 665 CURVE SMOOTH",
"567 669 LINE SMOOTH",
"567 697 OFFCURVE",
"544 720 OFFCURVE",
"516 720 CURVE SMOOTH",
"510 720 LINE SMOOTH",
"482 720 OFFCURVE",
"459 697 OFFCURVE",
"459 669 CURVE SMOOTH",
"459 665 LINE SMOOTH",
"459 637 OFFCURVE",
"482 614 OFFCURVE",
"510 614 CURVE SMOOTH"
);
}
);
width = 637;
}
);
leftKerningGroup = f;
leftMetricsKey = f;
note = f_j;
rightKerningGroup = i;
rightMetricsKey = j;
},
{
glyphname = fi;
layers = (
{
layerId = "A99C00BB-606F-4263-964D-93C8B7F0BADD";
paths = (
{
closed = 1;
nodes = (
"188 -5 OFFCURVE",
"208 15 OFFCURVE",
"208 40 CURVE SMOOTH",
"208 432 LINE",
"467 432 LINE",
"467 40 LINE SMOOTH",
"467 15 OFFCURVE",
"487 -5 OFFCURVE",
"512 -5 CURVE SMOOTH",
"538 -5 OFFCURVE",
"558 15 OFFCURVE",
"558 40 CURVE SMOOTH",
"558 464 LINE SMOOTH",
"558 489 OFFCURVE",
"540 508 OFFCURVE",
"515 510 CURVE",
"208 510 LINE",
"208 565 LINE SMOOTH",
"208 636 OFFCURVE",
"240 653 OFFCURVE",
"290 653 CURVE SMOOTH",
"309 653 OFFCURVE",
"324 647 OFFCURVE",
"340 647 CURVE SMOOTH",
"361 647 OFFCURVE",
"377 666 OFFCURVE",
"377 685 CURVE SMOOTH",
"377 701 OFFCURVE",
"366 714 OFFCURVE",
"354 720 CURVE SMOOTH",
"330 732 OFFCURVE",
"300 740 OFFCURVE",
"267 740 CURVE SMOOTH",
"196 740 OFFCURVE",
"117 694 OFFCURVE",
"117 568 CURVE SMOOTH",
"117 510 LINE",
"58 510 LINE SMOOTH",
"36 510 OFFCURVE",
"19 493 OFFCURVE",
"19 471 CURVE SMOOTH",
"19 449 OFFCURVE",
"36 432 OFFCURVE",
"58 432 CURVE SMOOTH",
"117 432 LINE",
"117 40 LINE SMOOTH",
"117 15 OFFCURVE",
"137 -5 OFFCURVE",
"162 -5 CURVE SMOOTH"
);
},
{
closed = 1;
nodes = (
"516 614 LINE SMOOTH",
"544 614 OFFCURVE",
"567 637 OFFCURVE",
"567 665 CURVE SMOOTH",
"567 669 LINE SMOOTH",
"567 697 OFFCURVE",
"544 720 OFFCURVE",
"516 720 CURVE SMOOTH",
"510 720 LINE SMOOTH",
"482 720 OFFCURVE",
"459 697 OFFCURVE",
"459 669 CURVE SMOOTH",
"459 665 LINE SMOOTH",
"459 637 OFFCURVE",
"482 614 OFFCURVE",
"510 614 CURVE SMOOTH"
);
}
);
width = 637;
}
);
leftKerningGroup = f;
leftMetricsKey = f;
note = fi;
rightKerningGroup = i;
rightMetricsKey = i;
unicode = FB01;
},
{
glyphname = fl;
layers = (
{
layerId = "A99C00BB-606F-4263-964D-93C8B7F0BADD";
paths = (
{
closed = 1;
nodes = (
"188 -5 OFFCURVE",
"208 15 OFFCURVE",
"208 40 CURVE SMOOTH",
"208 432 LINE",
"333 432 LINE SMOOTH",
"355 432 OFFCURVE",
"372 449 OFFCURVE",
"372 471 CURVE SMOOTH",
"372 493 OFFCURVE",
"355 510 OFFCURVE",
"333 510 CURVE SMOOTH",
"208 510 LINE",
"208 565 LINE SMOOTH",
"208 636 OFFCURVE",
"240 653 OFFCURVE",
"290 653 CURVE SMOOTH",
"309 653 OFFCURVE",
"324 647 OFFCURVE",
"340 647 CURVE SMOOTH",
"361 647 OFFCURVE",
"377 666 OFFCURVE",
"377 685 CURVE SMOOTH",
"377 701 OFFCURVE",
"366 714 OFFCURVE",
"354 720 CURVE SMOOTH",
"330 732 OFFCURVE",
"300 740 OFFCURVE",
"267 740 CURVE SMOOTH",
"196 740 OFFCURVE",
"117 694 OFFCURVE",
"117 568 CURVE SMOOTH",
"117 510 LINE",
"58 510 LINE SMOOTH",
"36 510 OFFCURVE",
"19 493 OFFCURVE",
"19 471 CURVE SMOOTH",
"19 449 OFFCURVE",
"36 432 OFFCURVE",
"58 432 CURVE SMOOTH",
"117 432 LINE",
"117 40 LINE SMOOTH",
"117 15 OFFCURVE",
"137 -5 OFFCURVE",
"162 -5 CURVE SMOOTH"
);
},
{
closed = 1;
nodes = (
"537 -5 OFFCURVE",
"557 15 OFFCURVE",
"557 40 CURVE SMOOTH",
"557 689 LINE SMOOTH",
"557 715 OFFCURVE",
"537 735 OFFCURVE",
"511 735 CURVE SMOOTH",
"486 735 OFFCURVE",
"466 715 OFFCURVE",
"466 689 CURVE SMOOTH",
"466 40 LINE SMOOTH",
"466 15 OFFCURVE",
"486 -5 OFFCURVE",
"511 -5 CURVE SMOOTH"
);
}
);
width = 636;
}
);
leftKerningGroup = f;
leftMetricsKey = f;
note = fl;
rightKerningGroup = l;
rightMetricsKey = l;
unicode = FB02;
},
